<?xml version="1.0" encoding="utf-8" standalone="no"?>
<!DOCTYPE svg PUBLIC "-//W3C//DTD SVG 1.1//EN"
  "http://www.w3.org/Graphics/SVG/1.1/DTD/svg11.dtd">
<!-- Created with matplotlib (http://matplotlib.org/) -->
<svg height="345.6pt" version="1.1" viewBox="0 0 460.8 345.6" width="460.8pt" xmlns="http://www.w3.org/2000/svg" xmlns:xlink="http://www.w3.org/1999/xlink">
 <defs>
  <style type="text/css">
*{stroke-linecap:butt;stroke-linejoin:round;}
  </style>
 </defs>
 <g id="figure_1">
  <g id="patch_1">
   <path d="M 0 345.6 
L 460.8 345.6 
L 460.8 0 
L 0 0 
z
" style="fill:#ffffff;"/>
  </g>
  <g id="axes_1">
   <g id="patch_2">
    <path d="M 57.6 307.584 
L 414.72 307.584 
L 414.72 41.472 
L 57.6 41.472 
z
" style="fill:#ffffff;"/>
   </g>
   <g id="PathCollection_1">
    <defs>
     <path d="M 0 3 
C 0.795609 3 1.55874 2.683901 2.12132 2.12132 
C 2.683901 1.55874 3 0.795609 3 0 
C 3 -0.795609 2.683901 -1.55874 2.12132 -2.12132 
C 1.55874 -2.683901 0.795609 -3 0 -3 
C -0.795609 -3 -1.55874 -2.683901 -2.12132 -2.12132 
C -2.683901 -1.55874 -3 -0.795609 -3 0 
C -3 0.795609 -2.683901 1.55874 -2.12132 2.12132 
C -1.55874 2.683901 -0.795609 3 0 3 
z
" id="md7a0817125" style="stroke:#bfbf00;"/>
    </defs>
    <g clip-path="url(#pad5c37707b)">
     <use style="fill:#bfbf00;stroke:#bfbf00;" x="279.149265" xlink:href="#md7a0817125" y="176.213913"/>
     <use style="fill:#bfbf00;stroke:#bfbf00;" x="268.19121" xlink:href="#md7a0817125" y="153.454875"/>
     <use style="fill:#bfbf00;stroke:#bfbf00;" x="246.275099" xlink:href="#md7a0817125" y="196.865633"/>
     <use style="fill:#bfbf00;stroke:#bfbf00;" x="214.665323" xlink:href="#md7a0817125" y="224.682236"/>
     <use style="fill:#bfbf00;stroke:#bfbf00;" x="292.636102" xlink:href="#md7a0817125" y="249.127129"/>
     <use style="fill:#bfbf00;stroke:#bfbf00;" x="281.256583" xlink:href="#md7a0817125" y="219.624672"/>
     <use style="fill:#bfbf00;stroke:#bfbf00;" x="288.842929" xlink:href="#md7a0817125" y="204.030516"/>
     <use style="fill:#bfbf00;stroke:#bfbf00;" x="261.869255" xlink:href="#md7a0817125" y="269.778848"/>
     <use style="fill:#bfbf00;stroke:#bfbf00;" x="314.973677" xlink:href="#md7a0817125" y="244.069564"/>
     <use style="fill:#bfbf00;stroke:#bfbf00;" x="327.196123" xlink:href="#md7a0817125" y="189.700751"/>
    </g>
   </g>
   <g id="PathCollection_2">
    <defs>
     <path d="M 0 3 
C 0.795609 3 1.55874 2.683901 2.12132 2.12132 
C 2.683901 1.55874 3 0.795609 3 0 
C 3 -0.795609 2.683901 -1.55874 2.12132 -2.12132 
C 1.55874 -2.683901 0.795609 -3 0 -3 
C -0.795609 -3 -1.55874 -2.683901 -2.12132 -2.12132 
C -2.683901 -1.55874 -3 -0.795609 -3 0 
C -3 0.795609 -2.683901 1.55874 -2.12132 2.12132 
C -1.55874 2.683901 -0.795609 3 0 3 
z
" id="ma6dc26a3c1" style="stroke:#008000;"/>
    </defs>
    <g clip-path="url(#pad5c37707b)">
     <use style="fill:#008000;stroke:#008000;" x="215.508251" xlink:href="#ma6dc26a3c1" y="155.983657"/>
     <use style="fill:#008000;stroke:#008000;" x="213.400932" xlink:href="#ma6dc26a3c1" y="103.300698"/>
     <use style="fill:#008000;stroke:#008000;" x="233.209725" xlink:href="#ma6dc26a3c1" y="131.960228"/>
     <use style="fill:#008000;stroke:#008000;" x="236.159971" xlink:href="#ma6dc26a3c1" y="88.54947"/>
     <use style="fill:#008000;stroke:#008000;" x="211.293614" xlink:href="#ma6dc26a3c1" y="129.009982"/>
     <use style="fill:#008000;stroke:#008000;" x="199.914095" xlink:href="#ma6dc26a3c1" y="94.028498"/>
    </g>
   </g>
   <g id="PathCollection_3">
    <defs>
     <path d="M 0 3 
C 0.795609 3 1.55874 2.683901 2.12132 2.12132 
C 2.683901 1.55874 3 0.795609 3 0 
C 3 -0.795609 2.683901 -1.55874 2.12132 -2.12132 
C 1.55874 -2.683901 0.795609 -3 0 -3 
C -0.795609 -3 -1.55874 -2.683901 -2.12132 -2.12132 
C -2.683901 -1.55874 -3 -0.795609 -3 0 
C -3 0.795609 -2.683901 1.55874 -2.12132 2.12132 
C -1.55874 2.683901 -0.795609 3 0 3 
z
" id="m60d133ac96" style="stroke:#0000ff;"/>
    </defs>
    <g clip-path="url(#pad5c37707b)">
     <use style="fill:#0000ff;stroke:#0000ff;" x="181.791157" xlink:href="#m60d133ac96" y="187.593433"/>
     <use style="fill:#0000ff;stroke:#0000ff;" x="196.120922" xlink:href="#m60d133ac96" y="198.551488"/>
     <use style="fill:#0000ff;stroke:#0000ff;" x="114.35697" xlink:href="#m60d133ac96" y="174.949522"/>
     <use style="fill:#0000ff;stroke:#0000ff;" x="156.503337" xlink:href="#m60d133ac96" y="245.755419"/>
     <use style="fill:#0000ff;stroke:#0000ff;" x="163.246756" xlink:href="#m60d133ac96" y="208.245152"/>
     <use style="fill:#0000ff;stroke:#0000ff;" x="154.817482" xlink:href="#m60d133ac96" y="185.907578"/>
     <use style="fill:#0000ff;stroke:#0000ff;" x="130.794053" xlink:href="#m60d133ac96" y="179.164159"/>
    </g>
   </g>
   <g id="PathCollection_4">
    <defs>
     <path d="M 0 3 
C 0.795609 3 1.55874 2.683901 2.12132 2.12132 
C 2.683901 1.55874 3 0.795609 3 0 
C 3 -0.795609 2.683901 -1.55874 2.12132 -2.12132 
C 1.55874 -2.683901 0.795609 -3 0 -3 
C -0.795609 -3 -1.55874 -2.683901 -2.12132 -2.12132 
C -2.683901 -1.55874 -3 -0.795609 -3 0 
C -3 0.795609 -2.683901 1.55874 -2.12132 2.12132 
C -1.55874 2.683901 -0.795609 3 0 3 
z
" id="mbc6b887a75" style="stroke:#00bfbf;"/>
    </defs>
    <g clip-path="url(#pad5c37707b)">
     <use style="fill:#00bfbf;stroke:#00bfbf;" x="305.701476" xlink:href="#mbc6b887a75" y="93.607034"/>
     <use style="fill:#00bfbf;stroke:#00bfbf;" x="338.154179" xlink:href="#mbc6b887a75" y="129.009982"/>
     <use style="fill:#00bfbf;stroke:#00bfbf;" x="312.866359" xlink:href="#mbc6b887a75" y="141.653892"/>
     <use style="fill:#00bfbf;stroke:#00bfbf;" x="328.460514" xlink:href="#mbc6b887a75" y="81.384588"/>
     <use style="fill:#00bfbf;stroke:#00bfbf;" x="317.502459" xlink:href="#mbc6b887a75" y="99.928989"/>
    </g>
   </g>
   <g id="matplotlib.axis_1">
    <g id="xtick_1">
     <g id="line2d_1">
      <defs>
       <path d="M 0 0 
L 0 3.5 
" id="mcf65a6ddc4" style="stroke:#000000;stroke-width:0.8;"/>
      </defs>
      <g>
       <use style="stroke:#000000;stroke-width:0.8;" x="96.234032" xlink:href="#mcf65a6ddc4" y="307.584"/>
      </g>
     </g>
     <g id="text_1">
      <!-- 0.2 -->
      <defs>
       <path d="M 31.78125 66.40625 
Q 24.171875 66.40625 20.328125 58.90625 
Q 16.5 51.421875 16.5 36.375 
Q 16.5 21.390625 20.328125 13.890625 
Q 24.171875 6.390625 31.78125 6.390625 
Q 39.453125 6.390625 43.28125 13.890625 
Q 47.125 21.390625 47.125 36.375 
Q 47.125 51.421875 43.28125 58.90625 
Q 39.453125 66.40625 31.78125 66.40625 
z
M 31.78125 74.21875 
Q 44.046875 74.21875 50.515625 64.515625 
Q 56.984375 54.828125 56.984375 36.375 
Q 56.984375 17.96875 50.515625 8.265625 
Q 44.046875 -1.421875 31.78125 -1.421875 
Q 19.53125 -1.421875 13.0625 8.265625 
Q 6.59375 17.96875 6.59375 36.375 
Q 6.59375 54.828125 13.0625 64.515625 
Q 19.53125 74.21875 31.78125 74.21875 
z
" id="DejaVuSans-30"/>
       <path d="M 10.6875 12.40625 
L 21 12.40625 
L 21 0 
L 10.6875 0 
z
" id="DejaVuSans-2e"/>
       <path d="M 19.1875 8.296875 
L 53.609375 8.296875 
L 53.609375 0 
L 7.328125 0 
L 7.328125 8.296875 
Q 12.9375 14.109375 22.625 23.890625 
Q 32.328125 33.6875 34.8125 36.53125 
Q 39.546875 41.84375 41.421875 45.53125 
Q 43.3125 49.21875 43.3125 52.78125 
Q 43.3125 58.59375 39.234375 62.25 
Q 35.15625 65.921875 28.609375 65.921875 
Q 23.96875 65.921875 18.8125 64.3125 
Q 13.671875 62.703125 7.8125 59.421875 
L 7.8125 69.390625 
Q 13.765625 71.78125 18.9375 73 
Q 24.125 74.21875 28.421875 74.21875 
Q 39.75 74.21875 46.484375 68.546875 
Q 53.21875 62.890625 53.21875 53.421875 
Q 53.21875 48.921875 51.53125 44.890625 
Q 49.859375 40.875 45.40625 35.40625 
Q 44.1875 33.984375 37.640625 27.21875 
Q 31.109375 20.453125 19.1875 8.296875 
z
" id="DejaVuSans-32"/>
      </defs>
      <g transform="translate(88.282469 322.182437)scale(0.1 -0.1)">
       <use xlink:href="#DejaVuSans-30"/>
       <use x="63.623047" xlink:href="#DejaVuSans-2e"/>
       <use x="95.410156" xlink:href="#DejaVuSans-32"/>
      </g>
     </g>
    </g>
    <g id="xtick_2">
     <g id="line2d_2">
      <g>
       <use style="stroke:#000000;stroke-width:0.8;" x="138.380399" xlink:href="#mcf65a6ddc4" y="307.584"/>
      </g>
     </g>
     <g id="text_2">
      <!-- 0.3 -->
      <defs>
       <path d="M 40.578125 39.3125 
Q 47.65625 37.796875 51.625 33 
Q 55.609375 28.21875 55.609375 21.1875 
Q 55.609375 10.40625 48.1875 4.484375 
Q 40.765625 -1.421875 27.09375 -1.421875 
Q 22.515625 -1.421875 17.65625 -0.515625 
Q 12.796875 0.390625 7.625 2.203125 
L 7.625 11.71875 
Q 11.71875 9.328125 16.59375 8.109375 
Q 21.484375 6.890625 26.8125 6.890625 
Q 36.078125 6.890625 40.9375 10.546875 
Q 45.796875 14.203125 45.796875 21.1875 
Q 45.796875 27.640625 41.28125 31.265625 
Q 36.765625 34.90625 28.71875 34.90625 
L 20.21875 34.90625 
L 20.21875 43.015625 
L 29.109375 43.015625 
Q 36.375 43.015625 40.234375 45.921875 
Q 44.09375 48.828125 44.09375 54.296875 
Q 44.09375 59.90625 40.109375 62.90625 
Q 36.140625 65.921875 28.71875 65.921875 
Q 24.65625 65.921875 20.015625 65.03125 
Q 15.375 64.15625 9.8125 62.3125 
L 9.8125 71.09375 
Q 15.4375 72.65625 20.34375 73.4375 
Q 25.25 74.21875 29.59375 74.21875 
Q 40.828125 74.21875 47.359375 69.109375 
Q 53.90625 64.015625 53.90625 55.328125 
Q 53.90625 49.265625 50.4375 45.09375 
Q 46.96875 40.921875 40.578125 39.3125 
z
" id="DejaVuSans-33"/>
      </defs>
      <g transform="translate(130.428836 322.182437)scale(0.1 -0.1)">
       <use xlink:href="#DejaVuSans-30"/>
       <use x="63.623047" xlink:href="#DejaVuSans-2e"/>
       <use x="95.410156" xlink:href="#DejaVuSans-33"/>
      </g>
     </g>
    </g>
    <g id="xtick_3">
     <g id="line2d_3">
      <g>
       <use style="stroke:#000000;stroke-width:0.8;" x="180.526766" xlink:href="#mcf65a6ddc4" y="307.584"/>
      </g>
     </g>
     <g id="text_3">
      <!-- 0.4 -->
      <defs>
       <path d="M 37.796875 64.3125 
L 12.890625 25.390625 
L 37.796875 25.390625 
z
M 35.203125 72.90625 
L 47.609375 72.90625 
L 47.609375 25.390625 
L 58.015625 25.390625 
L 58.015625 17.1875 
L 47.609375 17.1875 
L 47.609375 0 
L 37.796875 0 
L 37.796875 17.1875 
L 4.890625 17.1875 
L 4.890625 26.703125 
z
" id="DejaVuSans-34"/>
      </defs>
      <g transform="translate(172.575204 322.182437)scale(0.1 -0.1)">
       <use xlink:href="#DejaVuSans-30"/>
       <use x="63.623047" xlink:href="#DejaVuSans-2e"/>
       <use x="95.410156" xlink:href="#DejaVuSans-34"/>
      </g>
     </g>
    </g>
    <g id="xtick_4">
     <g id="line2d_4">
      <g>
       <use style="stroke:#000000;stroke-width:0.8;" x="222.673133" xlink:href="#mcf65a6ddc4" y="307.584"/>
      </g>
     </g>
     <g id="text_4">
      <!-- 0.5 -->
      <defs>
       <path d="M 10.796875 72.90625 
L 49.515625 72.90625 
L 49.515625 64.59375 
L 19.828125 64.59375 
L 19.828125 46.734375 
Q 21.96875 47.46875 24.109375 47.828125 
Q 26.265625 48.1875 28.421875 48.1875 
Q 40.625 48.1875 47.75 41.5 
Q 54.890625 34.8125 54.890625 23.390625 
Q 54.890625 11.625 47.5625 5.09375 
Q 40.234375 -1.421875 26.90625 -1.421875 
Q 22.3125 -1.421875 17.546875 -0.640625 
Q 12.796875 0.140625 7.71875 1.703125 
L 7.71875 11.625 
Q 12.109375 9.234375 16.796875 8.0625 
Q 21.484375 6.890625 26.703125 6.890625 
Q 35.15625 6.890625 40.078125 11.328125 
Q 45.015625 15.765625 45.015625 23.390625 
Q 45.015625 31 40.078125 35.4375 
Q 35.15625 39.890625 26.703125 39.890625 
Q 22.75 39.890625 18.8125 39.015625 
Q 14.890625 38.140625 10.796875 36.28125 
z
" id="DejaVuSans-35"/>
      </defs>
      <g transform="translate(214.721571 322.182437)scale(0.1 -0.1)">
       <use xlink:href="#DejaVuSans-30"/>
       <use x="63.623047" xlink:href="#DejaVuSans-2e"/>
       <use x="95.410156" xlink:href="#DejaVuSans-35"/>
      </g>
     </g>
    </g>
    <g id="xtick_5">
     <g id="line2d_5">
      <g>
       <use style="stroke:#000000;stroke-width:0.8;" x="264.8195" xlink:href="#mcf65a6ddc4" y="307.584"/>
      </g>
     </g>
     <g id="text_5">
      <!-- 0.6 -->
      <defs>
       <path d="M 33.015625 40.375 
Q 26.375 40.375 22.484375 35.828125 
Q 18.609375 31.296875 18.609375 23.390625 
Q 18.609375 15.53125 22.484375 10.953125 
Q 26.375 6.390625 33.015625 6.390625 
Q 39.65625 6.390625 43.53125 10.953125 
Q 47.40625 15.53125 47.40625 23.390625 
Q 47.40625 31.296875 43.53125 35.828125 
Q 39.65625 40.375 33.015625 40.375 
z
M 52.59375 71.296875 
L 52.59375 62.3125 
Q 48.875 64.0625 45.09375 64.984375 
Q 41.3125 65.921875 37.59375 65.921875 
Q 27.828125 65.921875 22.671875 59.328125 
Q 17.53125 52.734375 16.796875 39.40625 
Q 19.671875 43.65625 24.015625 45.921875 
Q 28.375 48.1875 33.59375 48.1875 
Q 44.578125 48.1875 50.953125 41.515625 
Q 57.328125 34.859375 57.328125 23.390625 
Q 57.328125 12.15625 50.6875 5.359375 
Q 44.046875 -1.421875 33.015625 -1.421875 
Q 20.359375 -1.421875 13.671875 8.265625 
Q 6.984375 17.96875 6.984375 36.375 
Q 6.984375 53.65625 15.1875 63.9375 
Q 23.390625 74.21875 37.203125 74.21875 
Q 40.921875 74.21875 44.703125 73.484375 
Q 48.484375 72.75 52.59375 71.296875 
z
" id="DejaVuSans-36"/>
      </defs>
      <g transform="translate(256.867938 322.182437)scale(0.1 -0.1)">
       <use xlink:href="#DejaVuSans-30"/>
       <use x="63.623047" xlink:href="#DejaVuSans-2e"/>
       <use x="95.410156" xlink:href="#DejaVuSans-36"/>
      </g>
     </g>
    </g>
    <g id="xtick_6">
     <g id="line2d_6">
      <g>
       <use style="stroke:#000000;stroke-width:0.8;" x="306.965867" xlink:href="#mcf65a6ddc4" y="307.584"/>
      </g>
     </g>
     <g id="text_6">
      <!-- 0.7 -->
      <defs>
       <path d="M 8.203125 72.90625 
L 55.078125 72.90625 
L 55.078125 68.703125 
L 28.609375 0 
L 18.3125 0 
L 43.21875 64.59375 
L 8.203125 64.59375 
z
" id="DejaVuSans-37"/>
      </defs>
      <g transform="translate(299.014305 322.182437)scale(0.1 -0.1)">
       <use xlink:href="#DejaVuSans-30"/>
       <use x="63.623047" xlink:href="#DejaVuSans-2e"/>
       <use x="95.410156" xlink:href="#DejaVuSans-37"/>
      </g>
     </g>
    </g>
    <g id="xtick_7">
     <g id="line2d_7">
      <g>
       <use style="stroke:#000000;stroke-width:0.8;" x="349.112234" xlink:href="#mcf65a6ddc4" y="307.584"/>
      </g>
     </g>
     <g id="text_7">
      <!-- 0.8 -->
      <defs>
       <path d="M 31.78125 34.625 
Q 24.75 34.625 20.71875 30.859375 
Q 16.703125 27.09375 16.703125 20.515625 
Q 16.703125 13.921875 20.71875 10.15625 
Q 24.75 6.390625 31.78125 6.390625 
Q 38.8125 6.390625 42.859375 10.171875 
Q 46.921875 13.96875 46.921875 20.515625 
Q 46.921875 27.09375 42.890625 30.859375 
Q 38.875 34.625 31.78125 34.625 
z
M 21.921875 38.8125 
Q 15.578125 40.375 12.03125 44.71875 
Q 8.5 49.078125 8.5 55.328125 
Q 8.5 64.0625 14.71875 69.140625 
Q 20.953125 74.21875 31.78125 74.21875 
Q 42.671875 74.21875 48.875 69.140625 
Q 55.078125 64.0625 55.078125 55.328125 
Q 55.078125 49.078125 51.53125 44.71875 
Q 48 40.375 41.703125 38.8125 
Q 48.828125 37.15625 52.796875 32.3125 
Q 56.78125 27.484375 56.78125 20.515625 
Q 56.78125 9.90625 50.3125 4.234375 
Q 43.84375 -1.421875 31.78125 -1.421875 
Q 19.734375 -1.421875 13.25 4.234375 
Q 6.78125 9.90625 6.78125 20.515625 
Q 6.78125 27.484375 10.78125 32.3125 
Q 14.796875 37.15625 21.921875 38.8125 
z
M 18.3125 54.390625 
Q 18.3125 48.734375 21.84375 45.5625 
Q 25.390625 42.390625 31.78125 42.390625 
Q 38.140625 42.390625 41.71875 45.5625 
Q 45.3125 48.734375 45.3125 54.390625 
Q 45.3125 60.0625 41.71875 63.234375 
Q 38.140625 66.40625 31.78125 66.40625 
Q 25.390625 66.40625 21.84375 63.234375 
Q 18.3125 60.0625 18.3125 54.390625 
z
" id="DejaVuSans-38"/>
      </defs>
      <g transform="translate(341.160672 322.182437)scale(0.1 -0.1)">
       <use xlink:href="#DejaVuSans-30"/>
       <use x="63.623047" xlink:href="#DejaVuSans-2e"/>
       <use x="95.410156" xlink:href="#DejaVuSans-38"/>
      </g>
     </g>
    </g>
    <g id="xtick_8">
     <g id="line2d_8">
      <g>
       <use style="stroke:#000000;stroke-width:0.8;" x="391.258601" xlink:href="#mcf65a6ddc4" y="307.584"/>
      </g>
     </g>
     <g id="text_8">
      <!-- 0.9 -->
      <defs>
       <path d="M 10.984375 1.515625 
L 10.984375 10.5 
Q 14.703125 8.734375 18.5 7.8125 
Q 22.3125 6.890625 25.984375 6.890625 
Q 35.75 6.890625 40.890625 13.453125 
Q 46.046875 20.015625 46.78125 33.40625 
Q 43.953125 29.203125 39.59375 26.953125 
Q 35.25 24.703125 29.984375 24.703125 
Q 19.046875 24.703125 12.671875 31.3125 
Q 6.296875 37.9375 6.296875 49.421875 
Q 6.296875 60.640625 12.9375 67.421875 
Q 19.578125 74.21875 30.609375 74.21875 
Q 43.265625 74.21875 49.921875 64.515625 
Q 56.59375 54.828125 56.59375 36.375 
Q 56.59375 19.140625 48.40625 8.859375 
Q 40.234375 -1.421875 26.421875 -1.421875 
Q 22.703125 -1.421875 18.890625 -0.6875 
Q 15.09375 0.046875 10.984375 1.515625 
z
M 30.609375 32.421875 
Q 37.25 32.421875 41.125 36.953125 
Q 45.015625 41.5 45.015625 49.421875 
Q 45.015625 57.28125 41.125 61.84375 
Q 37.25 66.40625 30.609375 66.40625 
Q 23.96875 66.40625 20.09375 61.84375 
Q 16.21875 57.28125 16.21875 49.421875 
Q 16.21875 41.5 20.09375 36.953125 
Q 23.96875 32.421875 30.609375 32.421875 
z
" id="DejaVuSans-39"/>
      </defs>
      <g transform="translate(383.307039 322.182437)scale(0.1 -0.1)">
       <use xlink:href="#DejaVuSans-30"/>
       <use x="63.623047" xlink:href="#DejaVuSans-2e"/>
       <use x="95.410156" xlink:href="#DejaVuSans-39"/>
      </g>
     </g>
    </g>
   </g>
   <g id="matplotlib.axis_2">
    <g id="ytick_1">
     <g id="line2d_9">
      <defs>
       <path d="M 0 0 
L -3.5 0 
" id="mb3727dc8c9" style="stroke:#000000;stroke-width:0.8;"/>
      </defs>
      <g>
       <use style="stroke:#000000;stroke-width:0.8;" x="57.6" xlink:href="#mb3727dc8c9" y="287.480323"/>
      </g>
     </g>
     <g id="text_9">
      <!-- 0.0 -->
      <g transform="translate(34.696875 291.279541)scale(0.1 -0.1)">
       <use xlink:href="#DejaVuSans-30"/>
       <use x="63.623047" xlink:href="#DejaVuSans-2e"/>
       <use x="95.410156" xlink:href="#DejaVuSans-30"/>
      </g>
     </g>
    </g>
    <g id="ytick_2">
     <g id="line2d_10">
      <g>
       <use style="stroke:#000000;stroke-width:0.8;" x="57.6" xlink:href="#mb3727dc8c9" y="245.333955"/>
      </g>
     </g>
     <g id="text_10">
      <!-- 0.1 -->
      <defs>
       <path d="M 12.40625 8.296875 
L 28.515625 8.296875 
L 28.515625 63.921875 
L 10.984375 60.40625 
L 10.984375 69.390625 
L 28.421875 72.90625 
L 38.28125 72.90625 
L 38.28125 8.296875 
L 54.390625 8.296875 
L 54.390625 0 
L 12.40625 0 
z
" id="DejaVuSans-31"/>
      </defs>
      <g transform="translate(34.696875 249.133174)scale(0.1 -0.1)">
       <use xlink:href="#DejaVuSans-30"/>
       <use x="63.623047" xlink:href="#DejaVuSans-2e"/>
       <use x="95.410156" xlink:href="#DejaVuSans-31"/>
      </g>
     </g>
    </g>
    <g id="ytick_3">
     <g id="line2d_11">
      <g>
       <use style="stroke:#000000;stroke-width:0.8;" x="57.6" xlink:href="#mb3727dc8c9" y="203.187588"/>
      </g>
     </g>
     <g id="text_11">
      <!-- 0.2 -->
      <g transform="translate(34.696875 206.986807)scale(0.1 -0.1)">
       <use xlink:href="#DejaVuSans-30"/>
       <use x="63.623047" xlink:href="#DejaVuSans-2e"/>
       <use x="95.410156" xlink:href="#DejaVuSans-32"/>
      </g>
     </g>
    </g>
    <g id="ytick_4">
     <g id="line2d_12">
      <g>
       <use style="stroke:#000000;stroke-width:0.8;" x="57.6" xlink:href="#mb3727dc8c9" y="161.041221"/>
      </g>
     </g>
     <g id="text_12">
      <!-- 0.3 -->
      <g transform="translate(34.696875 164.84044)scale(0.1 -0.1)">
       <use xlink:href="#DejaVuSans-30"/>
       <use x="63.623047" xlink:href="#DejaVuSans-2e"/>
       <use x="95.410156" xlink:href="#DejaVuSans-33"/>
      </g>
     </g>
    </g>
    <g id="ytick_5">
     <g id="line2d_13">
      <g>
       <use style="stroke:#000000;stroke-width:0.8;" x="57.6" xlink:href="#mb3727dc8c9" y="118.894854"/>
      </g>
     </g>
     <g id="text_13">
      <!-- 0.4 -->
      <g transform="translate(34.696875 122.694073)scale(0.1 -0.1)">
       <use xlink:href="#DejaVuSans-30"/>
       <use x="63.623047" xlink:href="#DejaVuSans-2e"/>
       <use x="95.410156" xlink:href="#DejaVuSans-34"/>
      </g>
     </g>
    </g>
    <g id="ytick_6">
     <g id="line2d_14">
      <g>
       <use style="stroke:#000000;stroke-width:0.8;" x="57.6" xlink:href="#mb3727dc8c9" y="76.748487"/>
      </g>
     </g>
     <g id="text_14">
      <!-- 0.5 -->
      <g transform="translate(34.696875 80.547706)scale(0.1 -0.1)">
       <use xlink:href="#DejaVuSans-30"/>
       <use x="63.623047" xlink:href="#DejaVuSans-2e"/>
       <use x="95.410156" xlink:href="#DejaVuSans-35"/>
      </g>
     </g>
    </g>
   </g>
   <g id="line2d_15">
    <path clip-path="url(#pad5c37707b)" d="M 325.510269 176.213913 
L 325.396731 172.971293 
L 325.056673 169.744555 
L 324.49176 166.549503 
L 323.70476 163.401788 
L 322.699527 160.316827 
L 321.480985 157.30973 
L 320.055102 154.395225 
L 318.428862 151.587588 
L 316.610231 148.900571 
L 314.608117 146.347335 
L 312.432324 143.940385 
L 310.093512 141.691511 
L 307.603134 139.611728 
L 304.973389 137.711222 
L 302.217158 135.999302 
L 299.347941 134.484353 
L 296.37979 133.173796 
L 293.327244 132.07405 
L 290.205254 131.1905 
L 287.029112 130.527475 
L 283.814375 130.088222 
L 280.576788 129.874893 
L 277.332209 129.888532 
L 274.09653 130.129073 
L 270.885599 130.595337 
L 267.715144 131.285041 
L 264.600692 132.194807 
L 261.5575 133.320179 
L 258.600473 134.655644 
L 255.744093 136.194661 
L 253.002352 137.929692 
L 250.388678 139.85224 
L 247.915874 141.952887 
L 245.59605 144.221345 
L 243.440571 146.646502 
L 241.459993 149.21648 
L 239.664016 151.918692 
L 238.061439 154.739901 
L 236.660109 157.666291 
L 235.466892 160.683527 
L 234.48763 163.77683 
L 233.727121 166.93105 
L 233.18909 170.130738 
L 232.876172 173.360221 
L 232.7899 176.603682 
L 232.930695 179.845233 
L 233.297869 183.068999 
L 233.889624 186.259188 
L 234.70306 189.400175 
L 235.734193 192.476576 
L 236.977973 195.473323 
L 238.428309 198.375736 
L 240.078095 201.169602 
L 241.919253 203.841234 
L 243.942762 206.377548 
L 246.138714 208.76612 
L 248.49635 210.995252 
L 251.004125 213.054024 
L 253.649755 214.932354 
L 256.420281 216.621041 
L 259.302134 218.111814 
L 262.281198 219.397371 
L 265.342882 220.471415 
L 268.47219 221.328686 
L 271.653793 221.964985 
L 274.87211 222.377196 
L 278.111376 222.563298 
L 281.355726 222.522381 
L 284.589268 222.254646 
L 287.796166 221.761403 
L 290.960711 221.045068 
L 294.067403 220.109151 
L 297.101026 218.958234 
L 300.046722 217.597956 
L 302.890062 216.034979 
L 305.617119 214.276958 
L 308.214537 212.332505 
L 310.669593 210.211142 
L 312.970263 207.923262 
L 315.105278 205.480068 
L 317.06418 202.89353 
L 318.837374 200.176314 
L 320.416177 197.341731 
L 321.792854 194.403664 
L 322.960663 191.376503 
L 323.913883 188.275076 
L 324.647847 185.114573 
L 325.158958 181.910475 
L 325.444714 178.678475 
L 325.510034 176.361587 
L 325.510034 176.361587 
" style="fill:none;stroke:#000000;stroke-linecap:square;stroke-width:1.5;"/>
   </g>
   <g id="line2d_16">
    <path clip-path="url(#pad5c37707b)" d="M 292.636102 196.865633 
L 292.522564 193.623013 
L 292.182506 190.396274 
L 291.617594 187.201223 
L 290.830594 184.053508 
L 289.825361 180.968547 
L 288.606819 177.961449 
L 287.180936 175.046945 
L 285.554696 172.239308 
L 283.736065 169.552291 
L 281.73395 166.999055 
L 279.558158 164.592105 
L 277.219345 162.343231 
L 274.728968 160.263447 
L 272.099223 158.362942 
L 269.342992 156.651022 
L 266.473774 155.136073 
L 263.505623 153.825516 
L 260.453078 152.725769 
L 257.331088 151.84222 
L 254.154946 151.179195 
L 250.940209 150.739942 
L 247.702622 150.526613 
L 244.458043 150.540252 
L 241.222363 150.780793 
L 238.011433 151.247057 
L 234.840977 151.936761 
L 231.726526 152.846527 
L 228.683334 153.971899 
L 225.726306 155.307363 
L 222.869927 156.846381 
L 220.128185 158.581412 
L 217.514512 160.50396 
L 215.041707 162.604607 
L 212.721884 164.873064 
L 210.566405 167.298222 
L 208.585826 169.8682 
L 206.78985 172.570412 
L 205.187272 175.391621 
L 203.785943 178.318011 
L 202.592725 181.335246 
L 201.613464 184.42855 
L 200.852955 187.58277 
L 200.314924 190.782458 
L 200.002006 194.011941 
L 199.915733 197.255402 
L 200.056529 200.496953 
L 200.423703 203.720719 
L 201.015457 206.910908 
L 201.828893 210.051895 
L 202.860027 213.128296 
L 204.103807 216.125042 
L 205.554142 219.027456 
L 207.203929 221.821322 
L 209.045086 224.492954 
L 211.068596 227.029268 
L 213.264547 229.41784 
L 215.622184 231.646972 
L 218.129959 233.705744 
L 220.775589 235.584074 
L 223.546115 237.272761 
L 226.427968 238.763534 
L 229.407032 240.049091 
L 232.468716 241.123135 
L 235.598023 241.980406 
L 238.779627 242.616705 
L 241.997944 243.028915 
L 245.23721 243.215018 
L 248.48156 243.174101 
L 251.715102 242.906366 
L 254.921999 242.413123 
L 258.086544 241.696788 
L 261.193237 240.76087 
L 264.22686 239.609954 
L 267.172556 238.249676 
L 270.015895 236.686699 
L 272.742953 234.928678 
L 275.340371 232.984224 
L 277.795427 230.862862 
L 280.096097 228.574981 
L 282.231111 226.131788 
L 284.190013 223.54525 
L 285.963208 220.828034 
L 287.54201 217.993451 
L 288.918687 215.055384 
L 290.086496 212.028223 
L 291.039717 208.926796 
L 291.77368 205.766293 
L 292.284792 202.562195 
L 292.570548 199.330195 
L 292.635867 197.013307 
L 292.635867 197.013307 
" style="fill:none;stroke:#000000;stroke-linecap:square;stroke-width:1.5;"/>
   </g>
   <g id="line2d_17">
    <path clip-path="url(#pad5c37707b)" d="M 228.152161 187.593433 
L 228.038623 184.350812 
L 227.698565 181.124074 
L 227.133652 177.929022 
L 226.346652 174.781307 
L 225.341419 171.696346 
L 224.122877 168.689249 
L 222.696994 165.774744 
L 221.070754 162.967107 
L 219.252123 160.28009 
L 217.250009 157.726854 
L 215.074216 155.319904 
L 212.735404 153.07103 
L 210.245026 150.991247 
L 207.615281 149.090741 
L 204.85905 147.378821 
L 201.989833 145.863873 
L 199.021682 144.553315 
L 195.969136 143.453569 
L 192.847146 142.570019 
L 189.671004 141.906994 
L 186.456267 141.467741 
L 183.21868 141.254412 
L 179.974101 141.268051 
L 176.738422 141.508592 
L 173.527491 141.974856 
L 170.357036 142.664561 
L 167.242585 143.574326 
L 164.199392 144.699698 
L 161.242365 146.035163 
L 158.385985 147.57418 
L 155.644244 149.309211 
L 153.03057 151.231759 
L 150.557766 153.332406 
L 148.237943 155.600864 
L 146.082463 158.026021 
L 144.101885 160.595999 
L 142.305908 163.298211 
L 140.703331 166.119421 
L 139.302001 169.04581 
L 138.108784 172.063046 
L 137.129522 175.156349 
L 136.369014 178.31057 
L 135.830982 181.510257 
L 135.518064 184.73974 
L 135.431792 187.983201 
L 135.572587 191.224752 
L 135.939761 194.448518 
L 136.531516 197.638707 
L 137.344952 200.779694 
L 138.376085 203.856095 
L 139.619865 206.852842 
L 141.070201 209.755256 
L 142.719987 212.549121 
L 144.561145 215.220753 
L 146.584654 217.757067 
L 148.780606 220.145639 
L 151.138242 222.374771 
L 153.646017 224.433544 
L 156.291647 226.311873 
L 159.062173 228.00056 
L 161.944026 229.491333 
L 164.92309 230.77689 
L 167.984774 231.850934 
L 171.114082 232.708205 
L 174.295685 233.344504 
L 177.514002 233.756715 
L 180.753268 233.942817 
L 183.997618 233.901901 
L 187.23116 233.634165 
L 190.438058 233.140922 
L 193.602603 232.424587 
L 196.709295 231.48867 
L 199.742918 230.337753 
L 202.688614 228.977475 
L 205.531954 227.414498 
L 208.259011 225.656477 
L 210.856429 223.712024 
L 213.311486 221.590661 
L 215.612155 219.302781 
L 217.74717 216.859588 
L 219.706072 214.273049 
L 221.479266 211.555833 
L 223.058069 208.72125 
L 224.434746 205.783183 
L 225.602555 202.756022 
L 226.555775 199.654595 
L 227.289739 196.494092 
L 227.80085 193.289994 
L 228.086606 190.057995 
L 228.151926 187.741106 
L 228.151926 187.741106 
" style="fill:none;stroke:#000000;stroke-linecap:square;stroke-width:1.5;"/>
   </g>
   <g id="line2d_18">
    <path clip-path="url(#pad5c37707b)" d="M 242.481926 198.551488 
L 242.368388 195.308867 
L 242.028329 192.082129 
L 241.463417 188.887078 
L 240.676417 185.739363 
L 239.671184 182.654401 
L 238.452642 179.647304 
L 237.026759 176.732799 
L 235.400519 173.925163 
L 233.581888 171.238146 
L 231.579773 168.684909 
L 229.403981 166.27796 
L 227.065168 164.029086 
L 224.574791 161.949302 
L 221.945046 160.048796 
L 219.188815 158.336877 
L 216.319597 156.821928 
L 213.351447 155.511371 
L 210.298901 154.411624 
L 207.176911 153.528074 
L 204.000769 152.865049 
L 200.786032 152.425796 
L 197.548445 152.212467 
L 194.303866 152.226106 
L 191.068187 152.466647 
L 187.857256 152.932912 
L 184.6868 153.622616 
L 181.572349 154.532382 
L 178.529157 155.657753 
L 175.572129 156.993218 
L 172.71575 158.532235 
L 169.974008 160.267267 
L 167.360335 162.189814 
L 164.887531 164.290462 
L 162.567707 166.558919 
L 160.412228 168.984076 
L 158.431649 171.554055 
L 156.635673 174.256266 
L 155.033095 177.077476 
L 153.631766 180.003865 
L 152.438548 183.021101 
L 151.459287 186.114405 
L 150.698778 189.268625 
L 150.160747 192.468313 
L 149.847829 195.697796 
L 149.761557 198.941256 
L 149.902352 202.182808 
L 150.269526 205.406573 
L 150.861281 208.596762 
L 151.674716 211.73775 
L 152.70585 214.814151 
L 153.94963 217.810897 
L 155.399966 220.713311 
L 157.049752 223.507176 
L 158.890909 226.178809 
L 160.914419 228.715122 
L 163.11037 231.103695 
L 165.468007 233.332826 
L 167.975782 235.391599 
L 170.621412 237.269929 
L 173.391938 238.958616 
L 176.273791 240.449389 
L 179.252855 241.734945 
L 182.314539 242.80899 
L 185.443846 243.666261 
L 188.62545 244.30256 
L 191.843767 244.71477 
L 195.083033 244.900873 
L 198.327383 244.859956 
L 201.560925 244.59222 
L 204.767823 244.098977 
L 207.932367 243.382643 
L 211.03906 242.446725 
L 214.072683 241.295809 
L 217.018379 239.93553 
L 219.861719 238.372553 
L 222.588776 236.614533 
L 225.186194 234.670079 
L 227.64125 232.548717 
L 229.94192 230.260836 
L 232.076935 227.817643 
L 234.035836 225.231104 
L 235.809031 222.513889 
L 237.387834 219.679306 
L 238.764511 216.741238 
L 239.932319 213.714078 
L 240.88554 210.61265 
L 241.619503 207.452148 
L 242.130615 204.24805 
L 242.416371 201.01605 
L 242.48169 198.699162 
L 242.48169 198.699162 
" style="fill:none;stroke:#000000;stroke-linecap:square;stroke-width:1.5;"/>
   </g>
   <g id="line2d_19">
    <path clip-path="url(#pad5c37707b)" d="M 338.997106 249.127129 
L 338.883568 245.884508 
L 338.54351 242.65777 
L 337.978597 239.462718 
L 337.191597 236.315003 
L 336.186364 233.230042 
L 334.967822 230.222945 
L 333.541939 227.30844 
L 331.9157 224.500803 
L 330.097069 221.813786 
L 328.094954 219.26055 
L 325.919162 216.8536 
L 323.580349 214.604726 
L 321.089971 212.524943 
L 318.460227 210.624437 
L 315.703996 208.912517 
L 312.834778 207.397569 
L 309.866627 206.087011 
L 306.814081 204.987265 
L 303.692092 204.103715 
L 300.51595 203.44069 
L 297.301212 203.001437 
L 294.063625 202.788108 
L 290.819046 202.801747 
L 287.583367 203.042288 
L 284.372436 203.508552 
L 281.201981 204.198257 
L 278.08753 205.108022 
L 275.044338 206.233394 
L 272.08731 207.568859 
L 269.23093 209.107876 
L 266.489189 210.842907 
L 263.875515 212.765455 
L 261.402711 214.866102 
L 259.082888 217.13456 
L 256.927408 219.559717 
L 254.94683 222.129695 
L 253.150854 224.831907 
L 251.548276 227.653117 
L 250.146947 230.579506 
L 248.953729 233.596742 
L 247.974468 236.690045 
L 247.213959 239.844265 
L 246.675928 243.043953 
L 246.36301 246.273436 
L 246.276737 249.516897 
L 246.417533 252.758448 
L 246.784707 255.982214 
L 247.376461 259.172403 
L 248.189897 262.31339 
L 249.22103 265.389791 
L 250.464811 268.386538 
L 251.915146 271.288951 
L 253.564933 274.082817 
L 255.40609 276.754449 
L 257.4296 279.290763 
L 259.625551 281.679335 
L 261.983188 283.908467 
L 264.490963 285.96724 
L 267.136592 287.845569 
L 269.907119 289.534256 
L 272.788972 291.025029 
L 275.768036 292.310586 
L 278.829719 293.38463 
L 281.959027 294.241901 
L 285.140631 294.8782 
L 288.358947 295.290411 
L 291.598214 295.476513 
L 294.842563 295.435596 
L 298.076106 295.167861 
L 301.283003 294.674618 
L 304.447548 293.958283 
L 307.55424 293.022366 
L 310.587864 291.871449 
L 313.533559 290.511171 
L 316.376899 288.948194 
L 319.103957 287.190173 
L 321.701375 285.24572 
L 324.156431 283.124357 
L 326.457101 280.836477 
L 328.592115 278.393284 
L 330.551017 275.806745 
L 332.324212 273.089529 
L 333.903014 270.254946 
L 335.279691 267.316879 
L 336.4475 264.289718 
L 337.400721 261.188291 
L 338.134684 258.027788 
L 338.645796 254.82369 
L 338.931552 251.59169 
L 338.996871 249.274802 
L 338.996871 249.274802 
" style="fill:none;stroke:#000000;stroke-linecap:square;stroke-width:1.5;"/>
   </g>
   <g id="line2d_20">
    <path clip-path="url(#pad5c37707b)" d="M 327.617587 219.624672 
L 327.504049 216.382051 
L 327.163991 213.155313 
L 326.599078 209.960261 
L 325.812078 206.812546 
L 324.806845 203.727585 
L 323.588303 200.720488 
L 322.16242 197.805983 
L 320.536181 194.998346 
L 318.71755 192.311329 
L 316.715435 189.758093 
L 314.539643 187.351143 
L 312.20083 185.102269 
L 309.710452 183.022486 
L 307.080708 181.12198 
L 304.324477 179.41006 
L 301.455259 177.895112 
L 298.487108 176.584554 
L 295.434562 175.484808 
L 292.312573 174.601258 
L 289.136431 173.938233 
L 285.921693 173.49898 
L 282.684106 173.285651 
L 279.439527 173.29929 
L 276.203848 173.539831 
L 272.992917 174.006095 
L 269.822462 174.6958 
L 266.708011 175.605565 
L 263.664819 176.730937 
L 260.707791 178.066402 
L 257.851411 179.605419 
L 255.10967 181.34045 
L 252.495996 183.262998 
L 250.023192 185.363645 
L 247.703369 187.632103 
L 245.547889 190.05726 
L 243.567311 192.627238 
L 241.771335 195.32945 
L 240.168757 198.15066 
L 238.767427 201.077049 
L 237.57421 204.094285 
L 236.594949 207.187588 
L 235.83444 210.341808 
L 235.296409 213.541496 
L 234.983491 216.770979 
L 234.897218 220.01444 
L 235.038014 223.255991 
L 235.405188 226.479757 
L 235.996942 229.669946 
L 236.810378 232.810933 
L 237.841511 235.887334 
L 239.085292 238.884081 
L 240.535627 241.786495 
L 242.185414 244.58036 
L 244.026571 247.251992 
L 246.050081 249.788306 
L 248.246032 252.176878 
L 250.603669 254.40601 
L 253.111444 256.464783 
L 255.757073 258.343112 
L 258.5276 260.031799 
L 261.409452 261.522572 
L 264.388516 262.808129 
L 267.4502 263.882173 
L 270.579508 264.739444 
L 273.761112 265.375743 
L 276.979428 265.787954 
L 280.218694 265.974056 
L 283.463044 265.933139 
L 286.696587 265.665404 
L 289.903484 265.172161 
L 293.068029 264.455826 
L 296.174721 263.519909 
L 299.208345 262.368992 
L 302.15404 261.008714 
L 304.99738 259.445737 
L 307.724438 257.687716 
L 310.321856 255.743263 
L 312.776912 253.6219 
L 315.077582 251.33402 
L 317.212596 248.890827 
L 319.171498 246.304288 
L 320.944693 243.587072 
L 322.523495 240.752489 
L 323.900172 237.814422 
L 325.067981 234.787261 
L 326.021201 231.685834 
L 326.755165 228.525331 
L 327.266276 225.321233 
L 327.552032 222.089234 
L 327.617352 219.772345 
L 327.617352 219.772345 
" style="fill:none;stroke:#000000;stroke-linecap:square;stroke-width:1.5;"/>
   </g>
   <g id="line2d_21">
    <path clip-path="url(#pad5c37707b)" d="M 335.203933 204.030516 
L 335.090395 200.787895 
L 334.750337 197.561157 
L 334.185424 194.366106 
L 333.398424 191.21839 
L 332.393191 188.133429 
L 331.174649 185.126332 
L 329.748766 182.211827 
L 328.122527 179.40419 
L 326.303896 176.717173 
L 324.301781 174.163937 
L 322.125989 171.756987 
L 319.787176 169.508113 
L 317.296798 167.42833 
L 314.667054 165.527824 
L 311.910823 163.815904 
L 309.041605 162.300956 
L 306.073454 160.990399 
L 303.020908 159.890652 
L 299.898919 159.007102 
L 296.722777 158.344077 
L 293.508039 157.904824 
L 290.270452 157.691495 
L 287.025873 157.705134 
L 283.790194 157.945675 
L 280.579263 158.41194 
L 277.408808 159.101644 
L 274.294357 160.01141 
L 271.251165 161.136781 
L 268.294137 162.472246 
L 265.437757 164.011263 
L 262.696016 165.746295 
L 260.082342 167.668842 
L 257.609538 169.769489 
L 255.289715 172.037947 
L 253.134235 174.463104 
L 251.153657 177.033082 
L 249.357681 179.735294 
L 247.755103 182.556504 
L 246.353774 185.482893 
L 245.160556 188.500129 
L 244.181295 191.593432 
L 243.420786 194.747653 
L 242.882755 197.94734 
L 242.569837 201.176824 
L 242.483564 204.420284 
L 242.62436 207.661836 
L 242.991534 210.885601 
L 243.583288 214.07579 
L 244.396724 217.216777 
L 245.427857 220.293178 
L 246.671638 223.289925 
L 248.121973 226.192339 
L 249.77176 228.986204 
L 251.612917 231.657836 
L 253.636427 234.19415 
L 255.832378 236.582722 
L 258.190015 238.811854 
L 260.69779 240.870627 
L 263.343419 242.748957 
L 266.113946 244.437643 
L 268.995798 245.928416 
L 271.974863 247.213973 
L 275.036546 248.288017 
L 278.165854 249.145289 
L 281.347458 249.781588 
L 284.565774 250.193798 
L 287.805041 250.3799 
L 291.04939 250.338984 
L 294.282933 250.071248 
L 297.48983 249.578005 
L 300.654375 248.86167 
L 303.761067 247.925753 
L 306.794691 246.774836 
L 309.740386 245.414558 
L 312.583726 243.851581 
L 315.310784 242.09356 
L 317.908202 240.149107 
L 320.363258 238.027745 
L 322.663928 235.739864 
L 324.798942 233.296671 
L 326.757844 230.710132 
L 328.531039 227.992917 
L 330.109841 225.158333 
L 331.486518 222.220266 
L 332.654327 219.193105 
L 333.607548 216.091678 
L 334.341511 212.931176 
L 334.852623 209.727078 
L 335.138379 206.495078 
L 335.203698 204.17819 
L 335.203698 204.17819 
" style="fill:none;stroke:#000000;stroke-linecap:square;stroke-width:1.5;"/>
   </g>
   <g id="line2d_22">
    <path clip-path="url(#pad5c37707b)" d="M 209.607759 208.245152 
L 209.494221 205.002532 
L 209.154163 201.775794 
L 208.58925 198.580742 
L 207.80225 195.433027 
L 206.797017 192.348066 
L 205.578475 189.340969 
L 204.152593 186.426464 
L 202.526353 183.618827 
L 200.707722 180.93181 
L 198.705607 178.378574 
L 196.529815 175.971624 
L 194.191002 173.72275 
L 191.700625 171.642967 
L 189.07088 169.742461 
L 186.314649 168.030541 
L 183.445431 166.515592 
L 180.47728 165.205035 
L 177.424734 164.105289 
L 174.302745 163.221739 
L 171.126603 162.558714 
L 167.911866 162.119461 
L 164.674279 161.906132 
L 161.429699 161.919771 
L 158.19402 162.160312 
L 154.98309 162.626576 
L 151.812634 163.31628 
L 148.698183 164.226046 
L 145.654991 165.351418 
L 142.697963 166.686883 
L 139.841583 168.2259 
L 137.099842 169.960931 
L 134.486169 171.883479 
L 132.013364 173.984126 
L 129.693541 176.252584 
L 127.538061 178.677741 
L 125.557483 181.247719 
L 123.761507 183.949931 
L 122.158929 186.77114 
L 120.7576 189.69753 
L 119.564382 192.714766 
L 118.585121 195.808069 
L 117.824612 198.962289 
L 117.286581 202.161977 
L 116.973663 205.39146 
L 116.88739 208.634921 
L 117.028186 211.876472 
L 117.39536 215.100238 
L 117.987114 218.290427 
L 118.80055 221.431414 
L 119.831684 224.507815 
L 121.075464 227.504561 
L 122.525799 230.406975 
L 124.175586 233.200841 
L 126.016743 235.872473 
L 128.040253 238.408787 
L 130.236204 240.797359 
L 132.593841 243.026491 
L 135.101616 245.085263 
L 137.747245 246.963593 
L 140.517772 248.65228 
L 143.399625 250.143053 
L 146.378689 251.42861 
L 149.440373 252.502654 
L 152.56968 253.359925 
L 155.751284 253.996224 
L 158.969601 254.408435 
L 162.208867 254.594537 
L 165.453216 254.55362 
L 168.686759 254.285885 
L 171.893656 253.792642 
L 175.058201 253.076307 
L 178.164893 252.140389 
L 181.198517 250.989473 
L 184.144212 249.629195 
L 186.987552 248.066218 
L 189.71461 246.308197 
L 192.312028 244.363744 
L 194.767084 242.242381 
L 197.067754 239.954501 
L 199.202768 237.511307 
L 201.16167 234.924769 
L 202.934865 232.207553 
L 204.513667 229.37297 
L 205.890344 226.434903 
L 207.058153 223.407742 
L 208.011374 220.306315 
L 208.745337 217.145812 
L 209.256449 213.941714 
L 209.542205 210.709714 
L 209.607524 208.392826 
L 209.607524 208.392826 
" style="fill:none;stroke:#000000;stroke-linecap:square;stroke-width:1.5;"/>
   </g>
   <g id="line2d_23">
    <path clip-path="url(#pad5c37707b)" d="M 201.178486 185.907578 
L 201.064948 182.664957 
L 200.72489 179.438219 
L 200.159977 176.243168 
L 199.372977 173.095453 
L 198.367744 170.010491 
L 197.149202 167.003394 
L 195.723319 164.088889 
L 194.09708 161.281253 
L 192.278449 158.594236 
L 190.276334 156.040999 
L 188.100541 153.634049 
L 185.761729 151.385175 
L 183.271351 149.305392 
L 180.641607 147.404886 
L 177.885375 145.692966 
L 175.016158 144.178018 
L 172.048007 142.867461 
L 168.995461 141.767714 
L 165.873471 140.884164 
L 162.69733 140.221139 
L 159.482592 139.781886 
L 156.245005 139.568557 
L 153.000426 139.582196 
L 149.764747 139.822737 
L 146.553816 140.289002 
L 143.383361 140.978706 
L 140.26891 141.888472 
L 137.225717 143.013843 
L 134.26869 144.349308 
L 131.41231 145.888325 
L 128.670569 147.623357 
L 126.056895 149.545904 
L 123.584091 151.646551 
L 121.264268 153.915009 
L 119.108788 156.340166 
L 117.12821 158.910144 
L 115.332233 161.612356 
L 113.729656 164.433566 
L 112.328326 167.359955 
L 111.135109 170.377191 
L 110.155847 173.470495 
L 109.395339 176.624715 
L 108.857308 179.824403 
L 108.544389 183.053886 
L 108.458117 186.297346 
L 108.598912 189.538898 
L 108.966087 192.762663 
L 109.557841 195.952852 
L 110.371277 199.093839 
L 111.40241 202.17024 
L 112.646191 205.166987 
L 114.096526 208.069401 
L 115.746313 210.863266 
L 117.58747 213.534899 
L 119.610979 216.071212 
L 121.806931 218.459785 
L 124.164568 220.688916 
L 126.672342 222.747689 
L 129.317972 224.626019 
L 132.088498 226.314706 
L 134.970351 227.805478 
L 137.949415 229.091035 
L 141.011099 230.16508 
L 144.140407 231.022351 
L 147.32201 231.65865 
L 150.540327 232.07086 
L 153.779593 232.256963 
L 157.023943 232.216046 
L 160.257485 231.94831 
L 163.464383 231.455067 
L 166.628928 230.738733 
L 169.73562 229.802815 
L 172.769243 228.651898 
L 175.714939 227.29162 
L 178.558279 225.728643 
L 181.285336 223.970623 
L 183.882754 222.026169 
L 186.337811 219.904807 
L 188.63848 217.616926 
L 190.773495 215.173733 
L 192.732397 212.587194 
L 194.505591 209.869979 
L 196.084394 207.035395 
L 197.461071 204.097328 
L 198.62888 201.070167 
L 199.5821 197.96874 
L 200.316064 194.808238 
L 200.827175 191.60414 
L 201.112931 188.37214 
L 201.178251 186.055252 
L 201.178251 186.055252 
" style="fill:none;stroke:#000000;stroke-linecap:square;stroke-width:1.5;"/>
   </g>
   <g id="line2d_24">
    <path clip-path="url(#pad5c37707b)" d="M 259.761936 103.300698 
L 259.648398 100.058078 
L 259.30834 96.83134 
L 258.743427 93.636288 
L 257.956427 90.488573 
L 256.951194 87.403612 
L 255.732652 84.396515 
L 254.306769 81.48201 
L 252.68053 78.674373 
L 250.861899 75.987356 
L 248.859784 73.43412 
L 246.683992 71.02717 
L 244.345179 68.778296 
L 241.854801 66.698513 
L 239.225057 64.798007 
L 236.468826 63.086087 
L 233.599608 61.571138 
L 230.631457 60.260581 
L 227.578911 59.160835 
L 224.456922 58.277285 
L 221.28078 57.61426 
L 218.066042 57.175007 
L 214.828455 56.961678 
L 211.583876 56.975317 
L 208.348197 57.215858 
L 205.137266 57.682122 
L 201.966811 58.371826 
L 198.85236 59.281592 
L 195.809168 60.406964 
L 192.85214 61.742428 
L 189.99576 63.281446 
L 187.254019 65.016477 
L 184.640345 66.939025 
L 182.167541 69.039672 
L 179.847718 71.30813 
L 177.692238 73.733287 
L 175.71166 76.303265 
L 173.915684 79.005477 
L 172.313106 81.826686 
L 170.911776 84.753076 
L 169.718559 87.770312 
L 168.739298 90.863615 
L 167.978789 94.017835 
L 167.440758 97.217523 
L 167.12784 100.447006 
L 167.041567 103.690467 
L 167.182363 106.932018 
L 167.549537 110.155784 
L 168.141291 113.345973 
L 168.954727 116.48696 
L 169.98586 119.563361 
L 171.229641 122.560107 
L 172.679976 125.462521 
L 174.329763 128.256387 
L 176.17092 130.928019 
L 178.19443 133.464333 
L 180.390381 135.852905 
L 182.748018 138.082037 
L 185.255793 140.140809 
L 187.901422 142.019139 
L 190.671949 143.707826 
L 193.553801 145.198599 
L 196.532866 146.484156 
L 199.594549 147.5582 
L 202.723857 148.415471 
L 205.905461 149.05177 
L 209.123777 149.463981 
L 212.363043 149.650083 
L 215.607393 149.609166 
L 218.840936 149.341431 
L 222.047833 148.848188 
L 225.212378 148.131853 
L 228.31907 147.195935 
L 231.352694 146.045019 
L 234.298389 144.684741 
L 237.141729 143.121764 
L 239.868787 141.363743 
L 242.466205 139.41929 
L 244.921261 137.297927 
L 247.221931 135.010047 
L 249.356945 132.566853 
L 251.315847 129.980315 
L 253.089042 127.263099 
L 254.667844 124.428516 
L 256.044521 121.490449 
L 257.21233 118.463288 
L 258.16555 115.361861 
L 258.899514 112.201358 
L 259.410625 108.99726 
L 259.696381 105.76526 
L 259.761701 103.448372 
L 259.761701 103.448372 
" style="fill:none;stroke:#000000;stroke-linecap:square;stroke-width:1.5;"/>
   </g>
   <g id="line2d_25">
    <path clip-path="url(#pad5c37707b)" d="M 279.570729 131.960228 
L 279.457191 128.717607 
L 279.117132 125.490869 
L 278.55222 122.295818 
L 277.76522 119.148103 
L 276.759987 116.063142 
L 275.541445 113.056044 
L 274.115562 110.141539 
L 272.489322 107.333903 
L 270.670691 104.646886 
L 268.668576 102.093649 
L 266.492784 99.6867 
L 264.153971 97.437826 
L 261.663594 95.358042 
L 259.033849 93.457536 
L 256.277618 91.745617 
L 253.4084 90.230668 
L 250.44025 88.920111 
L 247.387704 87.820364 
L 244.265714 86.936814 
L 241.089572 86.273789 
L 237.874835 85.834537 
L 234.637248 85.621207 
L 231.392669 85.634846 
L 228.15699 85.875387 
L 224.946059 86.341652 
L 221.775603 87.031356 
L 218.661152 87.941122 
L 215.61796 89.066493 
L 212.660932 90.401958 
L 209.804553 91.940975 
L 207.062812 93.676007 
L 204.449138 95.598554 
L 201.976334 97.699202 
L 199.65651 99.967659 
L 197.501031 102.392816 
L 195.520452 104.962795 
L 193.724476 107.665006 
L 192.121898 110.486216 
L 190.720569 113.412605 
L 189.527351 116.429841 
L 188.54809 119.523145 
L 187.787581 122.677365 
L 187.24955 125.877053 
L 186.936632 129.106536 
L 186.85036 132.349996 
L 186.991155 135.591548 
L 187.358329 138.815313 
L 187.950084 142.005502 
L 188.763519 145.14649 
L 189.794653 148.222891 
L 191.038433 151.219637 
L 192.488769 154.122051 
L 194.138555 156.915916 
L 195.979712 159.587549 
L 198.003222 162.123862 
L 200.199173 164.512435 
L 202.55681 166.741566 
L 205.064585 168.800339 
L 207.710215 170.678669 
L 210.480741 172.367356 
L 213.362594 173.858129 
L 216.341658 175.143685 
L 219.403342 176.21773 
L 222.532649 177.075001 
L 225.714253 177.7113 
L 228.93257 178.12351 
L 232.171836 178.309613 
L 235.416186 178.268696 
L 238.649728 178.00096 
L 241.856626 177.507717 
L 245.02117 176.791383 
L 248.127863 175.855465 
L 251.161486 174.704549 
L 254.107182 173.34427 
L 256.950522 171.781293 
L 259.677579 170.023273 
L 262.274997 168.078819 
L 264.730053 165.957457 
L 267.030723 163.669576 
L 269.165738 161.226383 
L 271.124639 158.639844 
L 272.897834 155.922629 
L 274.476637 153.088046 
L 275.853314 150.149978 
L 277.021122 147.122818 
L 277.974343 144.02139 
L 278.708306 140.860888 
L 279.219418 137.65679 
L 279.505174 134.42479 
L 279.570493 132.107902 
L 279.570493 132.107902 
" style="fill:none;stroke:#000000;stroke-linecap:square;stroke-width:1.5;"/>
   </g>
   <g id="line2d_26">
    <path clip-path="url(#pad5c37707b)" d="M 257.654618 129.009982 
L 257.54108 125.767362 
L 257.201022 122.540623 
L 256.636109 119.345572 
L 255.849109 116.197857 
L 254.843876 113.112896 
L 253.625334 110.105798 
L 252.199451 107.191294 
L 250.573211 104.383657 
L 248.75458 101.69664 
L 246.752466 99.143404 
L 244.576673 96.736454 
L 242.237861 94.48758 
L 239.747483 92.407797 
L 237.117738 90.507291 
L 234.361507 88.795371 
L 231.49229 87.280422 
L 228.524139 85.969865 
L 225.471593 84.870118 
L 222.349603 83.986569 
L 219.173461 83.323544 
L 215.958724 82.884291 
L 212.721137 82.670962 
L 209.476558 82.684601 
L 206.240879 82.925142 
L 203.029948 83.391406 
L 199.859493 84.08111 
L 196.745041 84.990876 
L 193.701849 86.116248 
L 190.744822 87.451712 
L 187.888442 88.99073 
L 185.146701 90.725761 
L 182.533027 92.648309 
L 180.060223 94.748956 
L 177.740399 97.017413 
L 175.58492 99.442571 
L 173.604342 102.012549 
L 171.808365 104.714761 
L 170.205788 107.53597 
L 168.804458 110.46236 
L 167.611241 113.479595 
L 166.631979 116.572899 
L 165.87147 119.727119 
L 165.333439 122.926807 
L 165.020521 126.15629 
L 164.934249 129.399751 
L 165.075044 132.641302 
L 165.442218 135.865068 
L 166.033973 139.055257 
L 166.847409 142.196244 
L 167.878542 145.272645 
L 169.122322 148.269391 
L 170.572658 151.171805 
L 172.222444 153.965671 
L 174.063602 156.637303 
L 176.087111 159.173617 
L 178.283063 161.562189 
L 180.640699 163.791321 
L 183.148474 165.850093 
L 185.794104 167.728423 
L 188.56463 169.41711 
L 191.446483 170.907883 
L 194.425547 172.19344 
L 197.487231 173.267484 
L 200.616539 174.124755 
L 203.798142 174.761054 
L 207.016459 175.173264 
L 210.255725 175.359367 
L 213.500075 175.31845 
L 216.733617 175.050715 
L 219.940515 174.557472 
L 223.10506 173.841137 
L 226.211752 172.905219 
L 229.245375 171.754303 
L 232.191071 170.394025 
L 235.034411 168.831048 
L 237.761468 167.073027 
L 240.358886 165.128573 
L 242.813942 163.007211 
L 245.114612 160.71933 
L 247.249627 158.276137 
L 249.208529 155.689599 
L 250.981723 152.972383 
L 252.560526 150.1378 
L 253.937203 147.199733 
L 255.105012 144.172572 
L 256.058232 141.071145 
L 256.792196 137.910642 
L 257.303307 134.706544 
L 257.589063 131.474544 
L 257.654383 129.157656 
L 257.654383 129.157656 
" style="fill:none;stroke:#000000;stroke-linecap:square;stroke-width:1.5;"/>
   </g>
   <g id="line2d_27">
    <path clip-path="url(#pad5c37707b)" d="M 363.863463 99.928989 
L 363.749925 96.686368 
L 363.409867 93.45963 
L 362.844954 90.264579 
L 362.057954 87.116864 
L 361.052721 84.031903 
L 359.834179 81.024805 
L 358.408296 78.1103 
L 356.782056 75.302664 
L 354.963425 72.615647 
L 352.961311 70.06241 
L 350.785518 67.655461 
L 348.446706 65.406587 
L 345.956328 63.326803 
L 343.326583 61.426297 
L 340.570352 59.714378 
L 337.701135 58.199429 
L 334.732984 56.888872 
L 331.680438 55.789125 
L 328.558448 54.905575 
L 325.382306 54.24255 
L 322.167569 53.803298 
L 318.929982 53.589968 
L 315.685403 53.603607 
L 312.449724 53.844148 
L 309.238793 54.310413 
L 306.068338 55.000117 
L 302.953887 55.909883 
L 299.910694 57.035254 
L 296.953667 58.370719 
L 294.097287 59.909736 
L 291.355546 61.644768 
L 288.741872 63.567316 
L 286.269068 65.667963 
L 283.949245 67.93642 
L 281.793765 70.361577 
L 279.813187 72.931556 
L 278.01721 75.633767 
L 276.414633 78.454977 
L 275.013303 81.381367 
L 273.820086 84.398602 
L 272.840824 87.491906 
L 272.080316 90.646126 
L 271.542284 93.845814 
L 271.229366 97.075297 
L 271.143094 100.318758 
L 271.283889 103.560309 
L 271.651063 106.784074 
L 272.242818 109.974263 
L 273.056254 113.115251 
L 274.087387 116.191652 
L 275.331167 119.188398 
L 276.781503 122.090812 
L 278.431289 124.884677 
L 280.272447 127.55631 
L 282.295956 130.092624 
L 284.491908 132.481196 
L 286.849544 134.710327 
L 289.357319 136.7691 
L 292.002949 138.64743 
L 294.773475 140.336117 
L 297.655328 141.82689 
L 300.634392 143.112446 
L 303.696076 144.186491 
L 306.825384 145.043762 
L 310.006987 145.680061 
L 313.225304 146.092271 
L 316.46457 146.278374 
L 319.70892 146.237457 
L 322.942462 145.969721 
L 326.14936 145.476478 
L 329.313905 144.760144 
L 332.420597 143.824226 
L 335.45422 142.67331 
L 338.399916 141.313032 
L 341.243256 139.750054 
L 343.970313 137.992034 
L 346.567731 136.04758 
L 349.022787 133.926218 
L 351.323457 131.638337 
L 353.458472 129.195144 
L 355.417374 126.608605 
L 357.190568 123.89139 
L 358.769371 121.056807 
L 360.146048 118.118739 
L 361.313857 115.091579 
L 362.267077 111.990152 
L 363.001041 108.829649 
L 363.512152 105.625551 
L 363.797908 102.393551 
L 363.863228 100.076663 
L 363.863228 100.076663 
" style="fill:none;stroke:#000000;stroke-linecap:square;stroke-width:1.5;"/>
   </g>
   <g id="patch_3">
    <path d="M 57.6 307.584 
L 57.6 41.472 
" style="fill:none;stroke:#000000;stroke-linecap:square;stroke-linejoin:miter;stroke-width:0.8;"/>
   </g>
   <g id="patch_4">
    <path d="M 414.72 307.584 
L 414.72 41.472 
" style="fill:none;stroke:#000000;stroke-linecap:square;stroke-linejoin:miter;stroke-width:0.8;"/>
   </g>
   <g id="patch_5">
    <path d="M 57.6 307.584 
L 414.72 307.584 
" style="fill:none;stroke:#000000;stroke-linecap:square;stroke-linejoin:miter;stroke-width:0.8;"/>
   </g>
   <g id="patch_6">
    <path d="M 57.6 41.472 
L 414.72 41.472 
" style="fill:none;stroke:#000000;stroke-linecap:square;stroke-linejoin:miter;stroke-width:0.8;"/>
   </g>
   <g id="legend_1">
    <g id="patch_7">
     <path d="M 369.3575 108.1845 
L 407.72 108.1845 
Q 409.72 108.1845 409.72 106.1845 
L 409.72 48.472 
Q 409.72 46.472 407.72 46.472 
L 369.3575 46.472 
Q 367.3575 46.472 367.3575 48.472 
L 367.3575 106.1845 
Q 367.3575 108.1845 369.3575 108.1845 
z
" style="fill:#ffffff;opacity:0.8;stroke:#cccccc;stroke-linejoin:miter;"/>
    </g>
    <g id="PathCollection_5">
     <g>
      <use style="fill:#bfbf00;stroke:#bfbf00;" x="381.3575" xlink:href="#md7a0817125" y="55.445438"/>
     </g>
    </g>
    <g id="text_15">
     <!-- 1 -->
     <g transform="translate(399.3575 58.070438)scale(0.1 -0.1)">
      <use xlink:href="#DejaVuSans-31"/>
     </g>
    </g>
    <g id="PathCollection_6">
     <g>
      <use style="fill:#008000;stroke:#008000;" x="381.3575" xlink:href="#ma6dc26a3c1" y="70.123563"/>
     </g>
    </g>
    <g id="text_16">
     <!-- 2 -->
     <g transform="translate(399.3575 72.748563)scale(0.1 -0.1)">
      <use xlink:href="#DejaVuSans-32"/>
     </g>
    </g>
    <g id="PathCollection_7">
     <g>
      <use style="fill:#0000ff;stroke:#0000ff;" x="381.3575" xlink:href="#m60d133ac96" y="84.801688"/>
     </g>
    </g>
    <g id="text_17">
     <!-- 3 -->
     <g transform="translate(399.3575 87.426688)scale(0.1 -0.1)">
      <use xlink:href="#DejaVuSans-33"/>
     </g>
    </g>
    <g id="PathCollection_8">
     <g>
      <use style="fill:#00bfbf;stroke:#00bfbf;" x="381.3575" xlink:href="#mbc6b887a75" y="99.479813"/>
     </g>
    </g>
    <g id="text_18">
     <!-- 4 -->
     <g transform="translate(399.3575 102.104813)scale(0.1 -0.1)">
      <use xlink:href="#DejaVuSans-34"/>
     </g>
    </g>
   </g>
  </g>
 </g>
 <defs>
  <clipPath id="pad5c37707b">
   <rect height="266.112" width="357.12" x="57.6" y="41.472"/>
  </clipPath>
 </defs>
</svg>
