<?xml version="1.0" encoding="UTF-8" standalone="no"?>
<!-- Created with Inkscape (http://www.inkscape.org/) -->

<svg
   xmlns:dc="http://purl.org/dc/elements/1.1/"
   xmlns:cc="http://creativecommons.org/ns#"
   xmlns:rdf="http://www.w3.org/1999/02/22-rdf-syntax-ns#"
   xmlns:svg="http://www.w3.org/2000/svg"
   xmlns="http://www.w3.org/2000/svg"
   xmlns:sodipodi="http://sodipodi.sourceforge.net/DTD/sodipodi-0.dtd"
   xmlns:inkscape="http://www.inkscape.org/namespaces/inkscape"
   version="1.1"
   id="svg2"
   xml:space="preserve"
   width="506.35608"
   height="374.99646"
   viewBox="0 0 506.35608 374.99646"
   sodipodi:docname="dbscan_intro_dashed_circle.svg"
   inkscape:version="0.92.3 (unknown)"><metadata
     id="metadata8"><rdf:RDF><cc:Work
         rdf:about=""><dc:format>image/svg+xml</dc:format><dc:type
           rdf:resource="http://purl.org/dc/dcmitype/StillImage" /><dc:title></dc:title></cc:Work></rdf:RDF></metadata><defs
     id="defs6"><clipPath
       clipPathUnits="userSpaceOnUse"
       id="clipPath22"><path
         d="M 57.6,38.016 H 414.72 V 304.128 H 57.6 Z"
         id="path20"
         inkscape:connector-curvature="0" /></clipPath><clipPath
       clipPathUnits="userSpaceOnUse"
       id="clipPath32"><path
         d="m -3.5,-3.5 h 7 v 7 h -7 z"
         id="path30"
         inkscape:connector-curvature="0" /></clipPath><clipPath
       clipPathUnits="userSpaceOnUse"
       id="clipPath44"><path
         d="m -3.5,-3.5 h 7 v 7 h -7 z"
         id="path42"
         inkscape:connector-curvature="0" /></clipPath><clipPath
       clipPathUnits="userSpaceOnUse"
       id="clipPath56"><path
         d="m -3.5,-3.5 h 7 v 7 h -7 z"
         id="path54"
         inkscape:connector-curvature="0" /></clipPath><clipPath
       clipPathUnits="userSpaceOnUse"
       id="clipPath68"><path
         d="m -3.5,-3.5 h 7 v 7 h -7 z"
         id="path66"
         inkscape:connector-curvature="0" /></clipPath><clipPath
       clipPathUnits="userSpaceOnUse"
       id="clipPath80"><path
         d="m -3.5,-3.5 h 7 v 7 h -7 z"
         id="path78"
         inkscape:connector-curvature="0" /></clipPath><clipPath
       clipPathUnits="userSpaceOnUse"
       id="clipPath92"><path
         d="m -3.5,-3.5 h 7 v 7 h -7 z"
         id="path90"
         inkscape:connector-curvature="0" /></clipPath><clipPath
       clipPathUnits="userSpaceOnUse"
       id="clipPath104"><path
         d="m -3.5,-3.5 h 7 v 7 h -7 z"
         id="path102"
         inkscape:connector-curvature="0" /></clipPath><clipPath
       clipPathUnits="userSpaceOnUse"
       id="clipPath114"><path
         d="M 57.6,38.016 H 414.72 V 304.128 H 57.6 Z"
         id="path112"
         inkscape:connector-curvature="0" /></clipPath><clipPath
       clipPathUnits="userSpaceOnUse"
       id="clipPath124"><path
         d="m -3.5,-3.5 h 7 v 7 h -7 z"
         id="path122"
         inkscape:connector-curvature="0" /></clipPath><clipPath
       clipPathUnits="userSpaceOnUse"
       id="clipPath136"><path
         d="m -3.5,-3.5 h 7 v 7 h -7 z"
         id="path134"
         inkscape:connector-curvature="0" /></clipPath><clipPath
       clipPathUnits="userSpaceOnUse"
       id="clipPath148"><path
         d="m -3.5,-3.5 h 7 v 7 h -7 z"
         id="path146"
         inkscape:connector-curvature="0" /></clipPath><clipPath
       clipPathUnits="userSpaceOnUse"
       id="clipPath160"><path
         d="m -3.5,-3.5 h 7 v 7 h -7 z"
         id="path158"
         inkscape:connector-curvature="0" /></clipPath><clipPath
       clipPathUnits="userSpaceOnUse"
       id="clipPath172"><path
         d="m -3.5,-3.5 h 7 v 7 h -7 z"
         id="path170"
         inkscape:connector-curvature="0" /></clipPath><clipPath
       clipPathUnits="userSpaceOnUse"
       id="clipPath184"><path
         d="m -3.5,-3.5 h 7 v 7 h -7 z"
         id="path182"
         inkscape:connector-curvature="0" /></clipPath><clipPath
       clipPathUnits="userSpaceOnUse"
       id="clipPath196"><path
         d="m -3.5,-3.5 h 7 v 7 h -7 z"
         id="path194"
         inkscape:connector-curvature="0" /></clipPath><clipPath
       clipPathUnits="userSpaceOnUse"
       id="clipPath208"><path
         d="m -3.5,-3.5 h 7 v 7 h -7 z"
         id="path206"
         inkscape:connector-curvature="0" /></clipPath><clipPath
       clipPathUnits="userSpaceOnUse"
       id="clipPath220"><path
         d="m -3.5,-3.5 h 7 v 7 h -7 z"
         id="path218"
         inkscape:connector-curvature="0" /></clipPath><clipPath
       clipPathUnits="userSpaceOnUse"
       id="clipPath230"><path
         d="M 57.6,38.016 H 414.72 V 304.128 H 57.6 Z"
         id="path228"
         inkscape:connector-curvature="0" /></clipPath><clipPath
       clipPathUnits="userSpaceOnUse"
       id="clipPath240"><path
         d="m -3.5,-3.5 h 7 v 7 h -7 z"
         id="path238"
         inkscape:connector-curvature="0" /></clipPath><clipPath
       clipPathUnits="userSpaceOnUse"
       id="clipPath252"><path
         d="m -3.5,-3.5 h 7 v 7 h -7 z"
         id="path250"
         inkscape:connector-curvature="0" /></clipPath><clipPath
       clipPathUnits="userSpaceOnUse"
       id="clipPath264"><path
         d="m -3.5,-3.5 h 7 v 7 h -7 z"
         id="path262"
         inkscape:connector-curvature="0" /></clipPath><clipPath
       clipPathUnits="userSpaceOnUse"
       id="clipPath276"><path
         d="m -3.5,-3.5 h 7 v 7 h -7 z"
         id="path274"
         inkscape:connector-curvature="0" /></clipPath><clipPath
       clipPathUnits="userSpaceOnUse"
       id="clipPath288"><path
         d="m -3.5,-3.5 h 7 v 7 h -7 z"
         id="path286"
         inkscape:connector-curvature="0" /></clipPath><clipPath
       clipPathUnits="userSpaceOnUse"
       id="clipPath298"><path
         d="M 57.6,38.016 H 414.72 V 304.128 H 57.6 Z"
         id="path296"
         inkscape:connector-curvature="0" /></clipPath><clipPath
       clipPathUnits="userSpaceOnUse"
       id="clipPath308"><path
         d="m -3.5,-3.5 h 7 v 7 h -7 z"
         id="path306"
         inkscape:connector-curvature="0" /></clipPath><clipPath
       clipPathUnits="userSpaceOnUse"
       id="clipPath320"><path
         d="m -3.5,-3.5 h 7 v 7 h -7 z"
         id="path318"
         inkscape:connector-curvature="0" /></clipPath><clipPath
       clipPathUnits="userSpaceOnUse"
       id="clipPath332"><path
         d="m -3.5,-3.5 h 7 v 7 h -7 z"
         id="path330"
         inkscape:connector-curvature="0" /></clipPath><clipPath
       clipPathUnits="userSpaceOnUse"
       id="clipPath344"><path
         d="m -3.5,-3.5 h 7 v 7 h -7 z"
         id="path342"
         inkscape:connector-curvature="0" /></clipPath><clipPath
       clipPathUnits="userSpaceOnUse"
       id="clipPath356"><path
         d="m -3.5,-3.5 h 7 v 7 h -7 z"
         id="path354"
         inkscape:connector-curvature="0" /></clipPath><clipPath
       clipPathUnits="userSpaceOnUse"
       id="clipPath368"><path
         d="m -3.5,-3.5 h 7 v 7 h -7 z"
         id="path366"
         inkscape:connector-curvature="0" /></clipPath><clipPath
       clipPathUnits="userSpaceOnUse"
       id="clipPath380"><path
         d="m -3.5,-3.5 h 7 v 7 h -7 z"
         id="path378"
         inkscape:connector-curvature="0" /></clipPath><clipPath
       clipPathUnits="userSpaceOnUse"
       id="clipPath390"><path
         d="M 57.6,38.016 H 414.72 V 304.128 H 57.6 Z"
         id="path388"
         inkscape:connector-curvature="0" /></clipPath><clipPath
       clipPathUnits="userSpaceOnUse"
       id="clipPath400"><path
         d="m -3.3531695,-2.927051 h 6.706339 V 3.5 h -6.706339 z"
         id="path398"
         inkscape:connector-curvature="0" /></clipPath><clipPath
       clipPathUnits="userSpaceOnUse"
       id="clipPath412"><path
         d="m -3.3531695,-2.927051 h 6.706339 V 3.5 h -6.706339 z"
         id="path410"
         inkscape:connector-curvature="0" /></clipPath><clipPath
       clipPathUnits="userSpaceOnUse"
       id="clipPath424"><path
         d="m -3.3531695,-2.927051 h 6.706339 V 3.5 h -6.706339 z"
         id="path422"
         inkscape:connector-curvature="0" /></clipPath><clipPath
       clipPathUnits="userSpaceOnUse"
       id="clipPath436"><path
         d="m -3.3531695,-2.927051 h 6.706339 V 3.5 h -6.706339 z"
         id="path434"
         inkscape:connector-curvature="0" /></clipPath><clipPath
       clipPathUnits="userSpaceOnUse"
       id="clipPath448"><path
         d="m -3.3531695,-2.927051 h 6.706339 V 3.5 h -6.706339 z"
         id="path446"
         inkscape:connector-curvature="0" /></clipPath><clipPath
       clipPathUnits="userSpaceOnUse"
       id="clipPath460"><path
         d="m -3.3531695,-2.927051 h 6.706339 V 3.5 h -6.706339 z"
         id="path458"
         inkscape:connector-curvature="0" /></clipPath><clipPath
       clipPathUnits="userSpaceOnUse"
       id="clipPath472"><path
         d="m -3.3531695,-2.927051 h 6.706339 V 3.5 h -6.706339 z"
         id="path470"
         inkscape:connector-curvature="0" /></clipPath><clipPath
       clipPathUnits="userSpaceOnUse"
       id="clipPath484"><path
         d="m -3.3531695,-2.927051 h 6.706339 V 3.5 h -6.706339 z"
         id="path482"
         inkscape:connector-curvature="0" /></clipPath><clipPath
       clipPathUnits="userSpaceOnUse"
       id="clipPath496"><path
         d="m -3.3531695,-2.927051 h 6.706339 V 3.5 h -6.706339 z"
         id="path494"
         inkscape:connector-curvature="0" /></clipPath><clipPath
       clipPathUnits="userSpaceOnUse"
       id="clipPath508"><path
         d="m -3.3531695,-2.927051 h 6.706339 V 3.5 h -6.706339 z"
         id="path506"
         inkscape:connector-curvature="0" /></clipPath><clipPath
       clipPathUnits="userSpaceOnUse"
       id="clipPath520"><path
         d="m -3.3531695,-2.927051 h 6.706339 V 3.5 h -6.706339 z"
         id="path518"
         inkscape:connector-curvature="0" /></clipPath><clipPath
       clipPathUnits="userSpaceOnUse"
       id="clipPath532"><path
         d="m -3.3531695,-2.927051 h 6.706339 V 3.5 h -6.706339 z"
         id="path530"
         inkscape:connector-curvature="0" /></clipPath><clipPath
       clipPathUnits="userSpaceOnUse"
       id="clipPath544"><path
         d="m -3.3531695,-2.927051 h 6.706339 V 3.5 h -6.706339 z"
         id="path542"
         inkscape:connector-curvature="0" /></clipPath><clipPath
       clipPathUnits="userSpaceOnUse"
       id="clipPath640"><path
         d="M 57.6,38.016 H 414.72 V 304.128 H 57.6 Z"
         id="path638"
         inkscape:connector-curvature="0" /></clipPath><clipPath
       clipPathUnits="userSpaceOnUse"
       id="clipPath650"><path
         d="M 57.6,38.016 H 414.72 V 304.128 H 57.6 Z"
         id="path648"
         inkscape:connector-curvature="0" /></clipPath><clipPath
       clipPathUnits="userSpaceOnUse"
       id="clipPath660"><path
         d="M 57.6,38.016 H 414.72 V 304.128 H 57.6 Z"
         id="path658"
         inkscape:connector-curvature="0" /></clipPath><clipPath
       clipPathUnits="userSpaceOnUse"
       id="clipPath670"><path
         d="M 57.6,38.016 H 414.72 V 304.128 H 57.6 Z"
         id="path668"
         inkscape:connector-curvature="0" /></clipPath><clipPath
       clipPathUnits="userSpaceOnUse"
       id="clipPath680"><path
         d="M 57.6,38.016 H 414.72 V 304.128 H 57.6 Z"
         id="path678"
         inkscape:connector-curvature="0" /></clipPath><clipPath
       clipPathUnits="userSpaceOnUse"
       id="clipPath690"><path
         d="M 57.6,38.016 H 414.72 V 304.128 H 57.6 Z"
         id="path688"
         inkscape:connector-curvature="0" /></clipPath><clipPath
       clipPathUnits="userSpaceOnUse"
       id="clipPath700"><path
         d="M 57.6,38.016 H 414.72 V 304.128 H 57.6 Z"
         id="path698"
         inkscape:connector-curvature="0" /></clipPath><clipPath
       clipPathUnits="userSpaceOnUse"
       id="clipPath710"><path
         d="M 57.6,38.016 H 414.72 V 304.128 H 57.6 Z"
         id="path708"
         inkscape:connector-curvature="0" /></clipPath><clipPath
       clipPathUnits="userSpaceOnUse"
       id="clipPath720"><path
         d="M 57.6,38.016 H 414.72 V 304.128 H 57.6 Z"
         id="path718"
         inkscape:connector-curvature="0" /></clipPath><clipPath
       clipPathUnits="userSpaceOnUse"
       id="clipPath730"><path
         d="M 57.6,38.016 H 414.72 V 304.128 H 57.6 Z"
         id="path728"
         inkscape:connector-curvature="0" /></clipPath><clipPath
       clipPathUnits="userSpaceOnUse"
       id="clipPath740"><path
         d="M 57.6,38.016 H 414.72 V 304.128 H 57.6 Z"
         id="path738"
         inkscape:connector-curvature="0" /></clipPath><clipPath
       clipPathUnits="userSpaceOnUse"
       id="clipPath750"><path
         d="M 57.6,38.016 H 414.72 V 304.128 H 57.6 Z"
         id="path748"
         inkscape:connector-curvature="0" /></clipPath><clipPath
       clipPathUnits="userSpaceOnUse"
       id="clipPath760"><path
         d="M 57.6,38.016 H 414.72 V 304.128 H 57.6 Z"
         id="path758"
         inkscape:connector-curvature="0" /></clipPath></defs><sodipodi:namedview
     pagecolor="#ffffff"
     bordercolor="#666666"
     borderopacity="1"
     objecttolerance="10"
     gridtolerance="10"
     guidetolerance="10"
     inkscape:pageopacity="0"
     inkscape:pageshadow="2"
     inkscape:window-width="1543"
     inkscape:window-height="876"
     id="namedview4"
     showgrid="false"
     inkscape:zoom="0.51215279"
     inkscape:cx="260.06277"
     inkscape:cy="199.35914"
     inkscape:window-x="1657"
     inkscape:window-y="24"
     inkscape:window-maximized="1"
     inkscape:current-layer="g10"
     fit-margin-top="0"
     fit-margin-left="0"
     fit-margin-right="0"
     fit-margin-bottom="0" /><g
     id="g10"
     inkscape:groupmode="layer"
     inkscape:label="dbscan_intro_dashed_circle"
     transform="matrix(1.3333333,0,0,-1.3333333,-47.137238,406.03732)"><path
       d="M 57.6,38.016 H 414.72 V 304.128 H 57.6 Z"
       style="fill:#ffffff;fill-opacity:1;fill-rule:nonzero;stroke:none"
       id="path14"
       inkscape:connector-curvature="0" /><g
       id="g16"><g
         id="g18"
         clip-path="url(#clipPath22)"><g
           id="g24"
           transform="translate(268.19121,192.14512)"><g
             id="g26"><g
               id="g28"
               clip-path="url(#clipPath32)"><path
                 d="m 0,-3 c 0.795609,0 1.55874,0.316099 2.12132,0.87868 C 2.683901,-1.55874 3,-0.795609 3,0 3,0.795609 2.683901,1.55874 2.12132,2.12132 1.55874,2.683901 0.795609,3 0,3 -0.795609,3 -1.55874,2.683901 -2.12132,2.12132 -2.683901,1.55874 -3,0.795609 -3,0 -3,-0.795609 -2.683901,-1.55874 -2.12132,-2.12132 -1.55874,-2.683901 -0.795609,-3 0,-3 Z"
                 style="fill:#bfbf00;fill-opacity:1;fill-rule:nonzero;stroke:#bfbf00;stroke-width:1;stroke-linecap:butt;stroke-linejoin:round;stroke-miterlimit:10;stroke-dasharray:none;stroke-opacity:1"
                 id="path34"
                 inkscape:connector-curvature="0" /></g></g><g
             id="g36"
             transform="translate(-52.682959,-2.528782)"><g
               id="g38"><g
                 id="g40"
                 clip-path="url(#clipPath44)"><path
                   d="m 0,-3 c 0.795609,0 1.55874,0.316099 2.12132,0.87868 C 2.683901,-1.55874 3,-0.795609 3,0 3,0.795609 2.683901,1.55874 2.12132,2.12132 1.55874,2.683901 0.795609,3 0,3 -0.795609,3 -1.55874,2.683901 -2.12132,2.12132 -2.683901,1.55874 -3,0.795609 -3,0 -3,-0.795609 -2.683901,-1.55874 -2.12132,-2.12132 -1.55874,-2.683901 -0.795609,-3 0,-3 Z"
                   style="fill:#bfbf00;fill-opacity:1;fill-rule:nonzero;stroke:#bfbf00;stroke-width:1;stroke-linecap:butt;stroke-linejoin:round;stroke-miterlimit:10;stroke-dasharray:none;stroke-opacity:1"
                   id="path46"
                   inkscape:connector-curvature="0" /></g></g><g
               id="g48"
               transform="translate(-2.1073184,52.682959)"><g
                 id="g50"><g
                   id="g52"
                   clip-path="url(#clipPath56)"><path
                     d="m 0,-3 c 0.795609,0 1.55874,0.316099 2.12132,0.87868 C 2.683901,-1.55874 3,-0.795609 3,0 3,0.795609 2.683901,1.55874 2.12132,2.12132 1.55874,2.683901 0.795609,3 0,3 -0.795609,3 -1.55874,2.683901 -2.12132,2.12132 -2.683901,1.55874 -3,0.795609 -3,0 -3,-0.795609 -2.683901,-1.55874 -2.12132,-2.12132 -1.55874,-2.683901 -0.795609,-3 0,-3 Z"
                     style="fill:#bfbf00;fill-opacity:1;fill-rule:nonzero;stroke:#bfbf00;stroke-width:1;stroke-linecap:butt;stroke-linejoin:round;stroke-miterlimit:10;stroke-dasharray:none;stroke-opacity:1"
                     id="path58"
                     inkscape:connector-curvature="0" /></g></g><g
                 id="g60"
                 transform="translate(19.808793,-28.65953)"><g
                   id="g62"><g
                     id="g64"
                     clip-path="url(#clipPath68)"><path
                       d="m 0,-3 c 0.795609,0 1.55874,0.316099 2.12132,0.87868 C 2.683901,-1.55874 3,-0.795609 3,0 3,0.795609 2.683901,1.55874 2.12132,2.12132 1.55874,2.683901 0.795609,3 0,3 -0.795609,3 -1.55874,2.683901 -2.12132,2.12132 -2.683901,1.55874 -3,0.795609 -3,0 -3,-0.795609 -2.683901,-1.55874 -2.12132,-2.12132 -1.55874,-2.683901 -0.795609,-3 0,-3 Z"
                       style="fill:#bfbf00;fill-opacity:1;fill-rule:nonzero;stroke:#bfbf00;stroke-width:1;stroke-linecap:butt;stroke-linejoin:round;stroke-miterlimit:10;stroke-dasharray:none;stroke-opacity:1"
                       id="path70"
                       inkscape:connector-curvature="0" /></g></g><g
                   id="g72"
                   transform="translate(2.9502457,43.410758)"><g
                     id="g74"><g
                       id="g76"
                       clip-path="url(#clipPath80)"><path
                         d="m 0,-3 c 0.795609,0 1.55874,0.316099 2.12132,0.87868 C 2.683901,-1.55874 3,-0.795609 3,0 3,0.795609 2.683901,1.55874 2.12132,2.12132 1.55874,2.683901 0.795609,3 0,3 -0.795609,3 -1.55874,2.683901 -2.12132,2.12132 -2.683901,1.55874 -3,0.795609 -3,0 -3,-0.795609 -2.683901,-1.55874 -2.12132,-2.12132 -1.55874,-2.683901 -0.795609,-3 0,-3 Z"
                         style="fill:#bfbf00;fill-opacity:1;fill-rule:nonzero;stroke:#bfbf00;stroke-width:1;stroke-linecap:butt;stroke-linejoin:round;stroke-miterlimit:10;stroke-dasharray:none;stroke-opacity:1"
                         id="path82"
                         inkscape:connector-curvature="0" /></g></g><g
                     id="g84"
                     transform="translate(-24.866357,-40.460512)"><g
                       id="g86"><g
                         id="g88"
                         clip-path="url(#clipPath92)"><path
                           d="m 0,-3 c 0.795609,0 1.55874,0.316099 2.12132,0.87868 C 2.683901,-1.55874 3,-0.795609 3,0 3,0.795609 2.683901,1.55874 2.12132,2.12132 1.55874,2.683901 0.795609,3 0,3 -0.795609,3 -1.55874,2.683901 -2.12132,2.12132 -2.683901,1.55874 -3,0.795609 -3,0 -3,-0.795609 -2.683901,-1.55874 -2.12132,-2.12132 -1.55874,-2.683901 -0.795609,-3 0,-3 Z"
                           style="fill:#bfbf00;fill-opacity:1;fill-rule:nonzero;stroke:#bfbf00;stroke-width:1;stroke-linecap:butt;stroke-linejoin:round;stroke-miterlimit:10;stroke-dasharray:none;stroke-opacity:1"
                           id="path94"
                           inkscape:connector-curvature="0" /></g></g><g
                       id="g96"
                       transform="translate(-11.379519,34.981485)"><g
                         id="g98"><g
                           id="g100"
                           clip-path="url(#clipPath104)"><path
                             d="m 0,-3 c 0.795609,0 1.55874,0.316099 2.12132,0.87868 C 2.683901,-1.55874 3,-0.795609 3,0 3,0.795609 2.683901,1.55874 2.12132,2.12132 1.55874,2.683901 0.795609,3 0,3 -0.795609,3 -1.55874,2.683901 -2.12132,2.12132 -2.683901,1.55874 -3,0.795609 -3,0 -3,-0.795609 -2.683901,-1.55874 -2.12132,-2.12132 -1.55874,-2.683901 -0.795609,-3 0,-3 Z"
                             style="fill:#bfbf00;fill-opacity:1;fill-rule:nonzero;stroke:#bfbf00;stroke-width:1;stroke-linecap:butt;stroke-linejoin:round;stroke-miterlimit:10;stroke-dasharray:none;stroke-opacity:1"
                             id="path106"
                             inkscape:connector-curvature="0" /></g></g></g></g></g></g></g></g></g></g></g><g
       id="g108"><g
         id="g110"
         clip-path="url(#clipPath114)"><g
           id="g116"
           transform="translate(279.14927,169.38609)"><g
             id="g118"><g
               id="g120"
               clip-path="url(#clipPath124)"><path
                 d="m 0,-3 c 0.795609,0 1.55874,0.316099 2.12132,0.87868 C 2.683901,-1.55874 3,-0.795609 3,0 3,0.795609 2.683901,1.55874 2.12132,2.12132 1.55874,2.683901 0.795609,3 0,3 -0.795609,3 -1.55874,2.683901 -2.12132,2.12132 -2.683901,1.55874 -3,0.795609 -3,0 -3,-0.795609 -2.683901,-1.55874 -2.12132,-2.12132 -1.55874,-2.683901 -0.795609,-3 0,-3 Z"
                 style="fill:#008000;fill-opacity:1;fill-rule:nonzero;stroke:#008000;stroke-width:1;stroke-linecap:butt;stroke-linejoin:round;stroke-miterlimit:10;stroke-dasharray:none;stroke-opacity:1"
                 id="path126"
                 inkscape:connector-curvature="0" /></g></g><g
             id="g128"
             transform="translate(-32.874166,-20.65172)"><g
               id="g130"><g
                 id="g132"
                 clip-path="url(#clipPath136)"><path
                   d="m 0,-3 c 0.795609,0 1.55874,0.316099 2.12132,0.87868 C 2.683901,-1.55874 3,-0.795609 3,0 3,0.795609 2.683901,1.55874 2.12132,2.12132 1.55874,2.683901 0.795609,3 0,3 -0.795609,3 -1.55874,2.683901 -2.12132,2.12132 -2.683901,1.55874 -3,0.795609 -3,0 -3,-0.795609 -2.683901,-1.55874 -2.12132,-2.12132 -1.55874,-2.683901 -0.795609,-3 0,-3 Z"
                   style="fill:#008000;fill-opacity:1;fill-rule:nonzero;stroke:#008000;stroke-width:1;stroke-linecap:butt;stroke-linejoin:round;stroke-miterlimit:10;stroke-dasharray:none;stroke-opacity:1"
                   id="path138"
                   inkscape:connector-curvature="0" /></g></g><g
               id="g140"
               transform="translate(-31.609775,-27.816602)"><g
                 id="g142"><g
                   id="g144"
                   clip-path="url(#clipPath148)"><path
                     d="m 0,-3 c 0.795609,0 1.55874,0.316099 2.12132,0.87868 C 2.683901,-1.55874 3,-0.795609 3,0 3,0.795609 2.683901,1.55874 2.12132,2.12132 1.55874,2.683901 0.795609,3 0,3 -0.795609,3 -1.55874,2.683901 -2.12132,2.12132 -2.683901,1.55874 -3,0.795609 -3,0 -3,-0.795609 -2.683901,-1.55874 -2.12132,-2.12132 -1.55874,-2.683901 -0.795609,-3 0,-3 Z"
                     style="fill:#008000;fill-opacity:1;fill-rule:nonzero;stroke:#008000;stroke-width:1;stroke-linecap:butt;stroke-linejoin:round;stroke-miterlimit:10;stroke-dasharray:none;stroke-opacity:1"
                     id="path150"
                     inkscape:connector-curvature="0" /></g></g><g
                 id="g152"
                 transform="translate(77.970779,-24.444893)"><g
                   id="g154"><g
                     id="g156"
                     clip-path="url(#clipPath160)"><path
                       d="m 0,-3 c 0.795609,0 1.55874,0.316099 2.12132,0.87868 C 2.683901,-1.55874 3,-0.795609 3,0 3,0.795609 2.683901,1.55874 2.12132,2.12132 1.55874,2.683901 0.795609,3 0,3 -0.795609,3 -1.55874,2.683901 -2.12132,2.12132 -2.683901,1.55874 -3,0.795609 -3,0 -3,-0.795609 -2.683901,-1.55874 -2.12132,-2.12132 -1.55874,-2.683901 -0.795609,-3 0,-3 Z"
                       style="fill:#008000;fill-opacity:1;fill-rule:nonzero;stroke:#008000;stroke-width:1;stroke-linecap:butt;stroke-linejoin:round;stroke-miterlimit:10;stroke-dasharray:none;stroke-opacity:1"
                       id="path162"
                       inkscape:connector-curvature="0" /></g></g><g
                   id="g164"
                   transform="translate(-11.379519,29.502457)"><g
                     id="g166"><g
                       id="g168"
                       clip-path="url(#clipPath172)"><path
                         d="m 0,-3 c 0.795609,0 1.55874,0.316099 2.12132,0.87868 C 2.683901,-1.55874 3,-0.795609 3,0 3,0.795609 2.683901,1.55874 2.12132,2.12132 1.55874,2.683901 0.795609,3 0,3 -0.795609,3 -1.55874,2.683901 -2.12132,2.12132 -2.683901,1.55874 -3,0.795609 -3,0 -3,-0.795609 -2.683901,-1.55874 -2.12132,-2.12132 -1.55874,-2.683901 -0.795609,-3 0,-3 Z"
                         style="fill:#008000;fill-opacity:1;fill-rule:nonzero;stroke:#008000;stroke-width:1;stroke-linecap:butt;stroke-linejoin:round;stroke-miterlimit:10;stroke-dasharray:none;stroke-opacity:1"
                         id="path174"
                         inkscape:connector-curvature="0" /></g></g><g
                     id="g176"
                     transform="translate(7.5863461,15.594156)"><g
                       id="g178"><g
                         id="g180"
                         clip-path="url(#clipPath184)"><path
                           d="m 0,-3 c 0.795609,0 1.55874,0.316099 2.12132,0.87868 C 2.683901,-1.55874 3,-0.795609 3,0 3,0.795609 2.683901,1.55874 2.12132,2.12132 1.55874,2.683901 0.795609,3 0,3 -0.795609,3 -1.55874,2.683901 -2.12132,2.12132 -2.683901,1.55874 -3,0.795609 -3,0 -3,-0.795609 -2.683901,-1.55874 -2.12132,-2.12132 -1.55874,-2.683901 -0.795609,-3 0,-3 Z"
                           style="fill:#008000;fill-opacity:1;fill-rule:nonzero;stroke:#008000;stroke-width:1;stroke-linecap:butt;stroke-linejoin:round;stroke-miterlimit:10;stroke-dasharray:none;stroke-opacity:1"
                           id="path186"
                           inkscape:connector-curvature="0" /></g></g><g
                       id="g188"
                       transform="translate(-26.973675,-65.748333)"><g
                         id="g190"><g
                           id="g192"
                           clip-path="url(#clipPath196)"><path
                             d="m 0,-3 c 0.795609,0 1.55874,0.316099 2.12132,0.87868 C 2.683901,-1.55874 3,-0.795609 3,0 3,0.795609 2.683901,1.55874 2.12132,2.12132 1.55874,2.683901 0.795609,3 0,3 -0.795609,3 -1.55874,2.683901 -2.12132,2.12132 -2.683901,1.55874 -3,0.795609 -3,0 -3,-0.795609 -2.683901,-1.55874 -2.12132,-2.12132 -1.55874,-2.683901 -0.795609,-3 0,-3 Z"
                             style="fill:#008000;fill-opacity:1;fill-rule:nonzero;stroke:#008000;stroke-width:1;stroke-linecap:butt;stroke-linejoin:round;stroke-miterlimit:10;stroke-dasharray:none;stroke-opacity:1"
                             id="path198"
                             inkscape:connector-curvature="0" /></g></g><g
                         id="g200"
                         transform="translate(53.104423,25.709284)"><g
                           id="g202"><g
                             id="g204"
                             clip-path="url(#clipPath208)"><path
                               d="m 0,-3 c 0.795609,0 1.55874,0.316099 2.12132,0.87868 C 2.683901,-1.55874 3,-0.795609 3,0 3,0.795609 2.683901,1.55874 2.12132,2.12132 1.55874,2.683901 0.795609,3 0,3 -0.795609,3 -1.55874,2.683901 -2.12132,2.12132 -2.683901,1.55874 -3,0.795609 -3,0 -3,-0.795609 -2.683901,-1.55874 -2.12132,-2.12132 -1.55874,-2.683901 -0.795609,-3 0,-3 Z"
                               style="fill:#008000;fill-opacity:1;fill-rule:nonzero;stroke:#008000;stroke-width:1;stroke-linecap:butt;stroke-linejoin:round;stroke-miterlimit:10;stroke-dasharray:none;stroke-opacity:1"
                               id="path210"
                               inkscape:connector-curvature="0" /></g></g><g
                           id="g212"
                           transform="translate(12.222446,54.368814)"><g
                             id="g214"><g
                               id="g216"
                               clip-path="url(#clipPath220)"><path
                                 d="m 0,-3 c 0.795609,0 1.55874,0.316099 2.12132,0.87868 C 2.683901,-1.55874 3,-0.795609 3,0 3,0.795609 2.683901,1.55874 2.12132,2.12132 1.55874,2.683901 0.795609,3 0,3 -0.795609,3 -1.55874,2.683901 -2.12132,2.12132 -2.683901,1.55874 -3,0.795609 -3,0 -3,-0.795609 -2.683901,-1.55874 -2.12132,-2.12132 -1.55874,-2.683901 -0.795609,-3 0,-3 Z"
                                 style="fill:#008000;fill-opacity:1;fill-rule:nonzero;stroke:#008000;stroke-width:1;stroke-linecap:butt;stroke-linejoin:round;stroke-miterlimit:10;stroke-dasharray:none;stroke-opacity:1"
                                 id="path222"
                                 inkscape:connector-curvature="0" /></g></g></g></g></g></g></g></g></g></g></g></g></g><g
       id="g224"><g
         id="g226"
         clip-path="url(#clipPath230)"><g
           id="g232"
           transform="translate(305.70148,251.99297)"><g
             id="g234"><g
               id="g236"
               clip-path="url(#clipPath240)"><path
                 d="m 0,-3 c 0.795609,0 1.55874,0.316099 2.12132,0.87868 C 2.683901,-1.55874 3,-0.795609 3,0 3,0.795609 2.683901,1.55874 2.12132,2.12132 1.55874,2.683901 0.795609,3 0,3 -0.795609,3 -1.55874,2.683901 -2.12132,2.12132 -2.683901,1.55874 -3,0.795609 -3,0 -3,-0.795609 -2.683901,-1.55874 -2.12132,-2.12132 -1.55874,-2.683901 -0.795609,-3 0,-3 Z"
                 style="fill:#0000ff;fill-opacity:1;fill-rule:nonzero;stroke:#0000ff;stroke-width:1;stroke-linecap:butt;stroke-linejoin:round;stroke-miterlimit:10;stroke-dasharray:none;stroke-opacity:1"
                 id="path242"
                 inkscape:connector-curvature="0" /></g></g><g
             id="g244"
             transform="translate(32.452703,-35.402948)"><g
               id="g246"><g
                 id="g248"
                 clip-path="url(#clipPath252)"><path
                   d="m 0,-3 c 0.795609,0 1.55874,0.316099 2.12132,0.87868 C 2.683901,-1.55874 3,-0.795609 3,0 3,0.795609 2.683901,1.55874 2.12132,2.12132 1.55874,2.683901 0.795609,3 0,3 -0.795609,3 -1.55874,2.683901 -2.12132,2.12132 -2.683901,1.55874 -3,0.795609 -3,0 -3,-0.795609 -2.683901,-1.55874 -2.12132,-2.12132 -1.55874,-2.683901 -0.795609,-3 0,-3 Z"
                   style="fill:#0000ff;fill-opacity:1;fill-rule:nonzero;stroke:#0000ff;stroke-width:1;stroke-linecap:butt;stroke-linejoin:round;stroke-miterlimit:10;stroke-dasharray:none;stroke-opacity:1"
                   id="path254"
                   inkscape:connector-curvature="0" /></g></g><g
               id="g256"
               transform="translate(-25.28782,-12.64391)"><g
                 id="g258"><g
                   id="g260"
                   clip-path="url(#clipPath264)"><path
                     d="m 0,-3 c 0.795609,0 1.55874,0.316099 2.12132,0.87868 C 2.683901,-1.55874 3,-0.795609 3,0 3,0.795609 2.683901,1.55874 2.12132,2.12132 1.55874,2.683901 0.795609,3 0,3 -0.795609,3 -1.55874,2.683901 -2.12132,2.12132 -2.683901,1.55874 -3,0.795609 -3,0 -3,-0.795609 -2.683901,-1.55874 -2.12132,-2.12132 -1.55874,-2.683901 -0.795609,-3 0,-3 Z"
                     style="fill:#0000ff;fill-opacity:1;fill-rule:nonzero;stroke:#0000ff;stroke-width:1;stroke-linecap:butt;stroke-linejoin:round;stroke-miterlimit:10;stroke-dasharray:none;stroke-opacity:1"
                     id="path266"
                     inkscape:connector-curvature="0" /></g></g><g
                 id="g268"
                 transform="translate(15.594156,60.269305)"><g
                   id="g270"><g
                     id="g272"
                     clip-path="url(#clipPath276)"><path
                       d="m 0,-3 c 0.795609,0 1.55874,0.316099 2.12132,0.87868 C 2.683901,-1.55874 3,-0.795609 3,0 3,0.795609 2.683901,1.55874 2.12132,2.12132 1.55874,2.683901 0.795609,3 0,3 -0.795609,3 -1.55874,2.683901 -2.12132,2.12132 -2.683901,1.55874 -3,0.795609 -3,0 -3,-0.795609 -2.683901,-1.55874 -2.12132,-2.12132 -1.55874,-2.683901 -0.795609,-3 0,-3 Z"
                       style="fill:#0000ff;fill-opacity:1;fill-rule:nonzero;stroke:#0000ff;stroke-width:1;stroke-linecap:butt;stroke-linejoin:round;stroke-miterlimit:10;stroke-dasharray:none;stroke-opacity:1"
                       id="path278"
                       inkscape:connector-curvature="0" /></g></g><g
                   id="g280"
                   transform="translate(-10.958055,-18.544402)"><g
                     id="g282"><g
                       id="g284"
                       clip-path="url(#clipPath288)"><path
                         d="m 0,-3 c 0.795609,0 1.55874,0.316099 2.12132,0.87868 C 2.683901,-1.55874 3,-0.795609 3,0 3,0.795609 2.683901,1.55874 2.12132,2.12132 1.55874,2.683901 0.795609,3 0,3 -0.795609,3 -1.55874,2.683901 -2.12132,2.12132 -2.683901,1.55874 -3,0.795609 -3,0 -3,-0.795609 -2.683901,-1.55874 -2.12132,-2.12132 -1.55874,-2.683901 -0.795609,-3 0,-3 Z"
                         style="fill:#0000ff;fill-opacity:1;fill-rule:nonzero;stroke:#0000ff;stroke-width:1;stroke-linecap:butt;stroke-linejoin:round;stroke-miterlimit:10;stroke-dasharray:none;stroke-opacity:1"
                         id="path290"
                         inkscape:connector-curvature="0" /></g></g></g></g></g></g></g></g></g><g
       id="g292"><g
         id="g294"
         clip-path="url(#clipPath298)"><g
           id="g300"
           transform="translate(181.79116,158.00657)"><g
             id="g302"><g
               id="g304"
               clip-path="url(#clipPath308)"><path
                 d="m 0,-3 c 0.795609,0 1.55874,0.316099 2.12132,0.87868 C 2.683901,-1.55874 3,-0.795609 3,0 3,0.795609 2.683901,1.55874 2.12132,2.12132 1.55874,2.683901 0.795609,3 0,3 -0.795609,3 -1.55874,2.683901 -2.12132,2.12132 -2.683901,1.55874 -3,0.795609 -3,0 -3,-0.795609 -2.683901,-1.55874 -2.12132,-2.12132 -1.55874,-2.683901 -0.795609,-3 0,-3 Z"
                 style="fill:#00bfbf;fill-opacity:1;fill-rule:nonzero;stroke:#00bfbf;stroke-width:1;stroke-linecap:butt;stroke-linejoin:round;stroke-miterlimit:10;stroke-dasharray:none;stroke-opacity:1"
                 id="path310"
                 inkscape:connector-curvature="0" /></g></g><g
             id="g312"
             transform="translate(14.329765,-10.958055)"><g
               id="g314"><g
                 id="g316"
                 clip-path="url(#clipPath320)"><path
                   d="m 0,-3 c 0.795609,0 1.55874,0.316099 2.12132,0.87868 C 2.683901,-1.55874 3,-0.795609 3,0 3,0.795609 2.683901,1.55874 2.12132,2.12132 1.55874,2.683901 0.795609,3 0,3 -0.795609,3 -1.55874,2.683901 -2.12132,2.12132 -2.683901,1.55874 -3,0.795609 -3,0 -3,-0.795609 -2.683901,-1.55874 -2.12132,-2.12132 -1.55874,-2.683901 -0.795609,-3 0,-3 Z"
                   style="fill:#00bfbf;fill-opacity:1;fill-rule:nonzero;stroke:#00bfbf;stroke-width:1;stroke-linecap:butt;stroke-linejoin:round;stroke-miterlimit:10;stroke-dasharray:none;stroke-opacity:1"
                   id="path322"
                   inkscape:connector-curvature="0" /></g></g><g
               id="g324"
               transform="translate(-81.763952,23.601966)"><g
                 id="g326"><g
                   id="g328"
                   clip-path="url(#clipPath332)"><path
                     d="m 0,-3 c 0.795609,0 1.55874,0.316099 2.12132,0.87868 C 2.683901,-1.55874 3,-0.795609 3,0 3,0.795609 2.683901,1.55874 2.12132,2.12132 1.55874,2.683901 0.795609,3 0,3 -0.795609,3 -1.55874,2.683901 -2.12132,2.12132 -2.683901,1.55874 -3,0.795609 -3,0 -3,-0.795609 -2.683901,-1.55874 -2.12132,-2.12132 -1.55874,-2.683901 -0.795609,-3 0,-3 Z"
                     style="fill:#00bfbf;fill-opacity:1;fill-rule:nonzero;stroke:#00bfbf;stroke-width:1;stroke-linecap:butt;stroke-linejoin:round;stroke-miterlimit:10;stroke-dasharray:none;stroke-opacity:1"
                     id="path334"
                     inkscape:connector-curvature="0" /></g></g><g
                 id="g336"
                 transform="translate(42.146367,-70.805897)"><g
                   id="g338"><g
                     id="g340"
                     clip-path="url(#clipPath344)"><path
                       d="m 0,-3 c 0.795609,0 1.55874,0.316099 2.12132,0.87868 C 2.683901,-1.55874 3,-0.795609 3,0 3,0.795609 2.683901,1.55874 2.12132,2.12132 1.55874,2.683901 0.795609,3 0,3 -0.795609,3 -1.55874,2.683901 -2.12132,2.12132 -2.683901,1.55874 -3,0.795609 -3,0 -3,-0.795609 -2.683901,-1.55874 -2.12132,-2.12132 -1.55874,-2.683901 -0.795609,-3 0,-3 Z"
                       style="fill:#00bfbf;fill-opacity:1;fill-rule:nonzero;stroke:#00bfbf;stroke-width:1;stroke-linecap:butt;stroke-linejoin:round;stroke-miterlimit:10;stroke-dasharray:none;stroke-opacity:1"
                       id="path346"
                       inkscape:connector-curvature="0" /></g></g><g
                   id="g348"
                   transform="translate(6.7434187,37.510267)"><g
                     id="g350"><g
                       id="g352"
                       clip-path="url(#clipPath356)"><path
                         d="m 0,-3 c 0.795609,0 1.55874,0.316099 2.12132,0.87868 C 2.683901,-1.55874 3,-0.795609 3,0 3,0.795609 2.683901,1.55874 2.12132,2.12132 1.55874,2.683901 0.795609,3 0,3 -0.795609,3 -1.55874,2.683901 -2.12132,2.12132 -2.683901,1.55874 -3,0.795609 -3,0 -3,-0.795609 -2.683901,-1.55874 -2.12132,-2.12132 -1.55874,-2.683901 -0.795609,-3 0,-3 Z"
                         style="fill:#00bfbf;fill-opacity:1;fill-rule:nonzero;stroke:#00bfbf;stroke-width:1;stroke-linecap:butt;stroke-linejoin:round;stroke-miterlimit:10;stroke-dasharray:none;stroke-opacity:1"
                         id="path358"
                         inkscape:connector-curvature="0" /></g></g><g
                     id="g360"
                     transform="translate(-8.4292734,22.337575)"><g
                       id="g362"><g
                         id="g364"
                         clip-path="url(#clipPath368)"><path
                           d="m 0,-3 c 0.795609,0 1.55874,0.316099 2.12132,0.87868 C 2.683901,-1.55874 3,-0.795609 3,0 3,0.795609 2.683901,1.55874 2.12132,2.12132 1.55874,2.683901 0.795609,3 0,3 -0.795609,3 -1.55874,2.683901 -2.12132,2.12132 -2.683901,1.55874 -3,0.795609 -3,0 -3,-0.795609 -2.683901,-1.55874 -2.12132,-2.12132 -1.55874,-2.683901 -0.795609,-3 0,-3 Z"
                           style="fill:#00bfbf;fill-opacity:1;fill-rule:nonzero;stroke:#00bfbf;stroke-width:1;stroke-linecap:butt;stroke-linejoin:round;stroke-miterlimit:10;stroke-dasharray:none;stroke-opacity:1"
                           id="path370"
                           inkscape:connector-curvature="0" /></g></g><g
                       id="g372"
                       transform="translate(-24.023429,6.7434187)"><g
                         id="g374"><g
                           id="g376"
                           clip-path="url(#clipPath380)"><path
                             d="m 0,-3 c 0.795609,0 1.55874,0.316099 2.12132,0.87868 C 2.683901,-1.55874 3,-0.795609 3,0 3,0.795609 2.683901,1.55874 2.12132,2.12132 1.55874,2.683901 0.795609,3 0,3 -0.795609,3 -1.55874,2.683901 -2.12132,2.12132 -2.683901,1.55874 -3,0.795609 -3,0 -3,-0.795609 -2.683901,-1.55874 -2.12132,-2.12132 -1.55874,-2.683901 -0.795609,-3 0,-3 Z"
                             style="fill:#00bfbf;fill-opacity:1;fill-rule:nonzero;stroke:#00bfbf;stroke-width:1;stroke-linecap:butt;stroke-linejoin:round;stroke-miterlimit:10;stroke-dasharray:none;stroke-opacity:1"
                             id="path382"
                             inkscape:connector-curvature="0" /></g></g></g></g></g></g></g></g></g></g></g><g
       id="g384"><g
         id="g386"
         clip-path="url(#clipPath390)"><g
           id="g392"
           transform="translate(279.14927,169.38609)"><g
             id="g394"><g
               id="g396"
               clip-path="url(#clipPath400)"><path
                 d="M 0,3 -0.673542,0.927051 H -2.85317 L -1.089814,-0.354102 -1.763356,-2.427051 0,-1.145898 1.763356,-2.427051 1.089814,-0.354102 2.85317,0.927051 H 0.673542 Z"
                 style="fill:#ff0000;fill-opacity:1;fill-rule:nonzero;stroke:#ff0000;stroke-width:1;stroke-linecap:butt;stroke-linejoin:round;stroke-miterlimit:10;stroke-dasharray:none;stroke-opacity:1"
                 id="path402"
                 inkscape:connector-curvature="0" /></g></g><g
             id="g404"
             transform="translate(-32.874166,-20.65172)"><g
               id="g406"><g
                 id="g408"
                 clip-path="url(#clipPath412)"><path
                   d="M 0,3 -0.673542,0.927051 H -2.85317 L -1.089814,-0.354102 -1.763356,-2.427051 0,-1.145898 1.763356,-2.427051 1.089814,-0.354102 2.85317,0.927051 H 0.673542 Z"
                   style="fill:#ff0000;fill-opacity:1;fill-rule:nonzero;stroke:#ff0000;stroke-width:1;stroke-linecap:butt;stroke-linejoin:round;stroke-miterlimit:10;stroke-dasharray:none;stroke-opacity:1"
                   id="path414"
                   inkscape:connector-curvature="0" /></g></g><g
               id="g416"
               transform="translate(-64.483942,9.2722008)"><g
                 id="g418"><g
                   id="g420"
                   clip-path="url(#clipPath424)"><path
                     d="M 0,3 -0.673542,0.927051 H -2.85317 L -1.089814,-0.354102 -1.763356,-2.427051 0,-1.145898 1.763356,-2.427051 1.089814,-0.354102 2.85317,0.927051 H 0.673542 Z"
                     style="fill:#ff0000;fill-opacity:1;fill-rule:nonzero;stroke:#ff0000;stroke-width:1;stroke-linecap:butt;stroke-linejoin:round;stroke-miterlimit:10;stroke-dasharray:none;stroke-opacity:1"
                     id="path426"
                     inkscape:connector-curvature="0" /></g></g><g
                 id="g428"
                 transform="translate(14.329765,-10.958055)"><g
                   id="g430"><g
                     id="g432"
                     clip-path="url(#clipPath436)"><path
                       d="M 0,3 -0.673542,0.927051 H -2.85317 L -1.089814,-0.354102 -1.763356,-2.427051 0,-1.145898 1.763356,-2.427051 1.089814,-0.354102 2.85317,0.927051 H 0.673542 Z"
                       style="fill:#ff0000;fill-opacity:1;fill-rule:nonzero;stroke:#ff0000;stroke-width:1;stroke-linecap:butt;stroke-linejoin:round;stroke-miterlimit:10;stroke-dasharray:none;stroke-opacity:1"
                       id="path438"
                       inkscape:connector-curvature="0" /></g></g><g
                   id="g440"
                   transform="translate(96.515181,-50.57564)"><g
                     id="g442"><g
                       id="g444"
                       clip-path="url(#clipPath448)"><path
                         d="M 0,3 -0.673542,0.927051 H -2.85317 L -1.089814,-0.354102 -1.763356,-2.427051 0,-1.145898 1.763356,-2.427051 1.089814,-0.354102 2.85317,0.927051 H 0.673542 Z"
                         style="fill:#ff0000;fill-opacity:1;fill-rule:nonzero;stroke:#ff0000;stroke-width:1;stroke-linecap:butt;stroke-linejoin:round;stroke-miterlimit:10;stroke-dasharray:none;stroke-opacity:1"
                         id="path450"
                         inkscape:connector-curvature="0" /></g></g><g
                     id="g452"
                     transform="translate(-11.379519,29.502457)"><g
                       id="g454"><g
                         id="g456"
                         clip-path="url(#clipPath460)"><path
                           d="M 0,3 -0.673542,0.927051 H -2.85317 L -1.089814,-0.354102 -1.763356,-2.427051 0,-1.145898 1.763356,-2.427051 1.089814,-0.354102 2.85317,0.927051 H 0.673542 Z"
                           style="fill:#ff0000;fill-opacity:1;fill-rule:nonzero;stroke:#ff0000;stroke-width:1;stroke-linecap:butt;stroke-linejoin:round;stroke-miterlimit:10;stroke-dasharray:none;stroke-opacity:1"
                           id="path462"
                           inkscape:connector-curvature="0" /></g></g><g
                       id="g464"
                       transform="translate(7.5863461,15.594156)"><g
                         id="g466"><g
                           id="g468"
                           clip-path="url(#clipPath472)"><path
                             d="M 0,3 -0.673542,0.927051 H -2.85317 L -1.089814,-0.354102 -1.763356,-2.427051 0,-1.145898 1.763356,-2.427051 1.089814,-0.354102 2.85317,0.927051 H 0.673542 Z"
                             style="fill:#ff0000;fill-opacity:1;fill-rule:nonzero;stroke:#ff0000;stroke-width:1;stroke-linecap:butt;stroke-linejoin:round;stroke-miterlimit:10;stroke-dasharray:none;stroke-opacity:1"
                             id="path474"
                             inkscape:connector-curvature="0" /></g></g><g
                         id="g476"
                         transform="translate(-125.59617,-4.2146367)"><g
                           id="g478"><g
                             id="g480"
                             clip-path="url(#clipPath484)"><path
                               d="M 0,3 -0.673542,0.927051 H -2.85317 L -1.089814,-0.354102 -1.763356,-2.427051 0,-1.145898 1.763356,-2.427051 1.089814,-0.354102 2.85317,0.927051 H 0.673542 Z"
                               style="fill:#ff0000;fill-opacity:1;fill-rule:nonzero;stroke:#ff0000;stroke-width:1;stroke-linecap:butt;stroke-linejoin:round;stroke-miterlimit:10;stroke-dasharray:none;stroke-opacity:1"
                               id="path486"
                               inkscape:connector-curvature="0" /></g></g><g
                           id="g488"
                           transform="translate(-8.4292734,22.337575)"><g
                             id="g490"><g
                               id="g492"
                               clip-path="url(#clipPath496)"><path
                                 d="M 0,3 -0.673542,0.927051 H -2.85317 L -1.089814,-0.354102 -1.763356,-2.427051 0,-1.145898 1.763356,-2.427051 1.089814,-0.354102 2.85317,0.927051 H 0.673542 Z"
                                 style="fill:#ff0000;fill-opacity:1;fill-rule:nonzero;stroke:#ff0000;stroke-width:1;stroke-linecap:butt;stroke-linejoin:round;stroke-miterlimit:10;stroke-dasharray:none;stroke-opacity:1"
                                 id="path498"
                                 inkscape:connector-curvature="0" /></g></g><g
                             id="g500"
                             transform="translate(58.58345,82.606879)"><g
                               id="g502"><g
                                 id="g504"
                                 clip-path="url(#clipPath508)"><path
                                   d="M 0,3 -0.673542,0.927051 H -2.85317 L -1.089814,-0.354102 -1.763356,-2.427051 0,-1.145898 1.763356,-2.427051 1.089814,-0.354102 2.85317,0.927051 H 0.673542 Z"
                                   style="fill:#ff0000;fill-opacity:1;fill-rule:nonzero;stroke:#ff0000;stroke-width:1;stroke-linecap:butt;stroke-linejoin:round;stroke-miterlimit:10;stroke-dasharray:none;stroke-opacity:1"
                                   id="path510"
                                   inkscape:connector-curvature="0" /></g></g><g
                               id="g512"
                               transform="translate(19.808793,-28.65953)"><g
                                 id="g514"><g
                                   id="g516"
                                   clip-path="url(#clipPath520)"><path
                                   d="M 0,3 -0.673542,0.927051 H -2.85317 L -1.089814,-0.354102 -1.763356,-2.427051 0,-1.145898 1.763356,-2.427051 1.089814,-0.354102 2.85317,0.927051 H 0.673542 Z"
                                   style="fill:#ff0000;fill-opacity:1;fill-rule:nonzero;stroke:#ff0000;stroke-width:1;stroke-linecap:butt;stroke-linejoin:round;stroke-miterlimit:10;stroke-dasharray:none;stroke-opacity:1"
                                   id="path522"
                                   inkscape:connector-curvature="0" /></g></g><g
                                 id="g524"
                                 transform="translate(-21.916111,2.9502457)"><g
                                   id="g526"><g
                                   id="g528"
                                   clip-path="url(#clipPath532)"><path
                                   d="M 0,3 -0.673542,0.927051 H -2.85317 L -1.089814,-0.354102 -1.763356,-2.427051 0,-1.145898 1.763356,-2.427051 1.089814,-0.354102 2.85317,0.927051 H 0.673542 Z"
                                   style="fill:#ff0000;fill-opacity:1;fill-rule:nonzero;stroke:#ff0000;stroke-width:1;stroke-linecap:butt;stroke-linejoin:round;stroke-miterlimit:10;stroke-dasharray:none;stroke-opacity:1"
                                   id="path534"
                                   inkscape:connector-curvature="0" /></g></g><g
                                   id="g536"
                                   transform="translate(106.20885,29.080993)"><g
                                   id="g538"><g
                                   id="g540"
                                   clip-path="url(#clipPath544)"><path
                                   d="M 0,3 -0.673542,0.927051 H -2.85317 L -1.089814,-0.354102 -1.763356,-2.427051 0,-1.145898 1.763356,-2.427051 1.089814,-0.354102 2.85317,0.927051 H 0.673542 Z"
                                   style="fill:#ff0000;fill-opacity:1;fill-rule:nonzero;stroke:#ff0000;stroke-width:1;stroke-linecap:butt;stroke-linejoin:round;stroke-miterlimit:10;stroke-dasharray:none;stroke-opacity:1"
                                   id="path546"
                                   inkscape:connector-curvature="0" /></g></g></g></g></g></g></g></g></g></g></g></g></g></g></g></g></g><g
       id="g548"><path
         d="m 96.234032,38.016 v -3.5"
         style="fill:#000000;fill-opacity:1;fill-rule:nonzero;stroke:#000000;stroke-width:0.80000001;stroke-linecap:butt;stroke-linejoin:round;stroke-miterlimit:10;stroke-dasharray:none;stroke-opacity:1"
         id="path550"
         inkscape:connector-curvature="0" /><text
         transform="matrix(1,0,0,-1,88.280907,23.42225)"
         style="font-variant:normal;font-weight:normal;font-size:10px;font-family:'DejaVu Sans';-inkscape-font-specification:DejaVuSans;writing-mode:lr-tb;fill:#000000;fill-opacity:1;fill-rule:nonzero;stroke:none"
         id="text554"><tspan
           x="0 6.3600001 9.54"
           y="0"
           sodipodi:role="line"
           id="tspan552">0.2</tspan></text>
<path
         d="m 138.3804,38.016 v -3.5"
         style="fill:#000000;fill-opacity:1;fill-rule:nonzero;stroke:#000000;stroke-width:0.80000001;stroke-linecap:butt;stroke-linejoin:round;stroke-miterlimit:10;stroke-dasharray:none;stroke-opacity:1"
         id="path556"
         inkscape:connector-curvature="0" /><text
         transform="matrix(1,0,0,-1,130.42727,23.42225)"
         style="font-variant:normal;font-weight:normal;font-size:10px;font-family:'DejaVu Sans';-inkscape-font-specification:DejaVuSans;writing-mode:lr-tb;fill:#000000;fill-opacity:1;fill-rule:nonzero;stroke:none"
         id="text560"><tspan
           x="0 6.3600001 9.54"
           y="0"
           sodipodi:role="line"
           id="tspan558">0.3</tspan></text>
<path
         d="m 180.52677,38.016 v -3.5"
         style="fill:#000000;fill-opacity:1;fill-rule:nonzero;stroke:#000000;stroke-width:0.80000001;stroke-linecap:butt;stroke-linejoin:round;stroke-miterlimit:10;stroke-dasharray:none;stroke-opacity:1"
         id="path562"
         inkscape:connector-curvature="0" /><text
         transform="matrix(1,0,0,-1,172.57364,23.42225)"
         style="font-variant:normal;font-weight:normal;font-size:10px;font-family:'DejaVu Sans';-inkscape-font-specification:DejaVuSans;writing-mode:lr-tb;fill:#000000;fill-opacity:1;fill-rule:nonzero;stroke:none"
         id="text566"><tspan
           x="0 6.3600001 9.54"
           y="0"
           sodipodi:role="line"
           id="tspan564">0.4</tspan></text>
<path
         d="m 222.67313,38.016 v -3.5"
         style="fill:#000000;fill-opacity:1;fill-rule:nonzero;stroke:#000000;stroke-width:0.80000001;stroke-linecap:butt;stroke-linejoin:round;stroke-miterlimit:10;stroke-dasharray:none;stroke-opacity:1"
         id="path568"
         inkscape:connector-curvature="0" /><text
         transform="matrix(1,0,0,-1,214.72001,23.42225)"
         style="font-variant:normal;font-weight:normal;font-size:10px;font-family:'DejaVu Sans';-inkscape-font-specification:DejaVuSans;writing-mode:lr-tb;fill:#000000;fill-opacity:1;fill-rule:nonzero;stroke:none"
         id="text572"><tspan
           x="0 6.3600001 9.54"
           y="0"
           sodipodi:role="line"
           id="tspan570">0.5</tspan></text>
<path
         d="m 264.8195,38.016 v -3.5"
         style="fill:#000000;fill-opacity:1;fill-rule:nonzero;stroke:#000000;stroke-width:0.80000001;stroke-linecap:butt;stroke-linejoin:round;stroke-miterlimit:10;stroke-dasharray:none;stroke-opacity:1"
         id="path574"
         inkscape:connector-curvature="0" /><text
         transform="matrix(1,0,0,-1,256.86638,23.42225)"
         style="font-variant:normal;font-weight:normal;font-size:10px;font-family:'DejaVu Sans';-inkscape-font-specification:DejaVuSans;writing-mode:lr-tb;fill:#000000;fill-opacity:1;fill-rule:nonzero;stroke:none"
         id="text578"><tspan
           x="0 6.3600001 9.54"
           y="0"
           sodipodi:role="line"
           id="tspan576">0.6</tspan></text>
<path
         d="m 306.96587,38.016 v -3.5"
         style="fill:#000000;fill-opacity:1;fill-rule:nonzero;stroke:#000000;stroke-width:0.80000001;stroke-linecap:butt;stroke-linejoin:round;stroke-miterlimit:10;stroke-dasharray:none;stroke-opacity:1"
         id="path580"
         inkscape:connector-curvature="0" /><text
         transform="matrix(1,0,0,-1,299.01274,23.42225)"
         style="font-variant:normal;font-weight:normal;font-size:10px;font-family:'DejaVu Sans';-inkscape-font-specification:DejaVuSans;writing-mode:lr-tb;fill:#000000;fill-opacity:1;fill-rule:nonzero;stroke:none"
         id="text584"><tspan
           x="0 6.3600001 9.54"
           y="0"
           sodipodi:role="line"
           id="tspan582">0.7</tspan></text>
<path
         d="m 349.11223,38.016 v -3.5"
         style="fill:#000000;fill-opacity:1;fill-rule:nonzero;stroke:#000000;stroke-width:0.80000001;stroke-linecap:butt;stroke-linejoin:round;stroke-miterlimit:10;stroke-dasharray:none;stroke-opacity:1"
         id="path586"
         inkscape:connector-curvature="0" /><text
         transform="matrix(1,0,0,-1,341.15911,23.42225)"
         style="font-variant:normal;font-weight:normal;font-size:10px;font-family:'DejaVu Sans';-inkscape-font-specification:DejaVuSans;writing-mode:lr-tb;fill:#000000;fill-opacity:1;fill-rule:nonzero;stroke:none"
         id="text590"><tspan
           x="0 6.3600001 9.54"
           y="0"
           sodipodi:role="line"
           id="tspan588">0.8</tspan></text>
<path
         d="m 391.2586,38.016 v -3.5"
         style="fill:#000000;fill-opacity:1;fill-rule:nonzero;stroke:#000000;stroke-width:0.80000001;stroke-linecap:butt;stroke-linejoin:round;stroke-miterlimit:10;stroke-dasharray:none;stroke-opacity:1"
         id="path592"
         inkscape:connector-curvature="0" /><text
         transform="matrix(1,0,0,-1,383.30548,23.42225)"
         style="font-variant:normal;font-weight:normal;font-size:10px;font-family:'DejaVu Sans';-inkscape-font-specification:DejaVuSans;writing-mode:lr-tb;fill:#000000;fill-opacity:1;fill-rule:nonzero;stroke:none"
         id="text596"><tspan
           x="0 6.3600001 9.54"
           y="0"
           sodipodi:role="line"
           id="tspan594">0.9</tspan></text>
<path
         d="M 57.6,58.119677 H 54.1"
         style="fill:#000000;fill-opacity:1;fill-rule:nonzero;stroke:#000000;stroke-width:0.80000001;stroke-linecap:butt;stroke-linejoin:round;stroke-miterlimit:10;stroke-dasharray:none;stroke-opacity:1"
         id="path598"
         inkscape:connector-curvature="0" /><text
         transform="matrix(1,0,0,-1,34.69375,54.322802)"
         style="font-variant:normal;font-weight:normal;font-size:10px;font-family:'DejaVu Sans';-inkscape-font-specification:DejaVuSans;writing-mode:lr-tb;fill:#000000;fill-opacity:1;fill-rule:nonzero;stroke:none"
         id="text602"><tspan
           x="0 6.3600001 9.54"
           y="0"
           sodipodi:role="line"
           id="tspan600">0.0</tspan></text>
<path
         d="M 57.6,100.26605 H 54.1"
         style="fill:#000000;fill-opacity:1;fill-rule:nonzero;stroke:#000000;stroke-width:0.80000001;stroke-linecap:butt;stroke-linejoin:round;stroke-miterlimit:10;stroke-dasharray:none;stroke-opacity:1"
         id="path604"
         inkscape:connector-curvature="0" /><text
         transform="matrix(1,0,0,-1,34.69375,96.46917)"
         style="font-variant:normal;font-weight:normal;font-size:10px;font-family:'DejaVu Sans';-inkscape-font-specification:DejaVuSans;writing-mode:lr-tb;fill:#000000;fill-opacity:1;fill-rule:nonzero;stroke:none"
         id="text608"><tspan
           x="0 6.3600001 9.54"
           y="0"
           sodipodi:role="line"
           id="tspan606">0.1</tspan></text>
<path
         d="M 57.6,142.41241 H 54.1"
         style="fill:#000000;fill-opacity:1;fill-rule:nonzero;stroke:#000000;stroke-width:0.80000001;stroke-linecap:butt;stroke-linejoin:round;stroke-miterlimit:10;stroke-dasharray:none;stroke-opacity:1"
         id="path610"
         inkscape:connector-curvature="0" /><text
         transform="matrix(1,0,0,-1,34.69375,138.61554)"
         style="font-variant:normal;font-weight:normal;font-size:10px;font-family:'DejaVu Sans';-inkscape-font-specification:DejaVuSans;writing-mode:lr-tb;fill:#000000;fill-opacity:1;fill-rule:nonzero;stroke:none"
         id="text614"><tspan
           x="0 6.3600001 9.54"
           y="0"
           sodipodi:role="line"
           id="tspan612">0.2</tspan></text>
<path
         d="M 57.6,184.55878 H 54.1"
         style="fill:#000000;fill-opacity:1;fill-rule:nonzero;stroke:#000000;stroke-width:0.80000001;stroke-linecap:butt;stroke-linejoin:round;stroke-miterlimit:10;stroke-dasharray:none;stroke-opacity:1"
         id="path616"
         inkscape:connector-curvature="0" /><text
         transform="matrix(1,0,0,-1,34.69375,180.7619)"
         style="font-variant:normal;font-weight:normal;font-size:10px;font-family:'DejaVu Sans';-inkscape-font-specification:DejaVuSans;writing-mode:lr-tb;fill:#000000;fill-opacity:1;fill-rule:nonzero;stroke:none"
         id="text620"><tspan
           x="0 6.3600001 9.54"
           y="0"
           sodipodi:role="line"
           id="tspan618">0.3</tspan></text>
<path
         d="M 57.6,226.70515 H 54.1"
         style="fill:#000000;fill-opacity:1;fill-rule:nonzero;stroke:#000000;stroke-width:0.80000001;stroke-linecap:butt;stroke-linejoin:round;stroke-miterlimit:10;stroke-dasharray:none;stroke-opacity:1"
         id="path622"
         inkscape:connector-curvature="0" /><text
         transform="matrix(1,0,0,-1,34.69375,222.90827)"
         style="font-variant:normal;font-weight:normal;font-size:10px;font-family:'DejaVu Sans';-inkscape-font-specification:DejaVuSans;writing-mode:lr-tb;fill:#000000;fill-opacity:1;fill-rule:nonzero;stroke:none"
         id="text626"><tspan
           x="0 6.3600001 9.54"
           y="0"
           sodipodi:role="line"
           id="tspan624">0.4</tspan></text>
<path
         d="M 57.6,268.85151 H 54.1"
         style="fill:#000000;fill-opacity:1;fill-rule:nonzero;stroke:#000000;stroke-width:0.80000001;stroke-linecap:butt;stroke-linejoin:round;stroke-miterlimit:10;stroke-dasharray:none;stroke-opacity:1"
         id="path628"
         inkscape:connector-curvature="0" /><text
         transform="matrix(1,0,0,-1,34.69375,265.05464)"
         style="font-variant:normal;font-weight:normal;font-size:10px;font-family:'DejaVu Sans';-inkscape-font-specification:DejaVuSans;writing-mode:lr-tb;fill:#000000;fill-opacity:1;fill-rule:nonzero;stroke:none"
         id="text632"><tspan
           x="0 6.3600001 9.54"
           y="0"
           sodipodi:role="line"
           id="tspan630">0.5</tspan></text>
</g><g
       id="g634"><g
         id="g636"
         clip-path="url(#clipPath640)"><path
           d="m 325.51027,169.38609 -0.11354,3.24262 -0.34006,3.22674 -0.56491,3.19505 -0.787,3.14771 -1.00523,3.08496 -1.21855,3.0071 -1.42588,2.9145 -1.62624,2.80764 -1.81863,2.68702 -2.00211,2.55323 -2.1758,2.40695 -2.33881,2.24888 -2.49038,2.07978 -2.62974,1.90051 -2.75623,1.71192 -2.86922,1.51495 -2.96815,1.31055 -3.05255,1.09975 -3.12199,0.88355 -3.17614,0.66302 -3.21474,0.43926 -3.23758,0.21333 -3.24458,-0.0136 -3.23568,-0.24054 -3.21093,-0.46627 -3.17046,-0.6897 -3.11445,-0.90977 -3.04319,-1.12537 -2.95703,-1.33546 -2.85638,-1.53902 -2.74174,-1.73503 -2.61367,-1.92255 -2.47281,-2.10065 -2.31982,-2.26846 -2.15548,-2.42515 -1.98058,-2.56998 -1.79597,-2.70221 -1.60258,-2.82121 -1.40133,-2.92639 -1.19322,-3.01724 -0.97926,-3.0933 -0.76051,-3.15422 -0.53803,-3.19969 -0.31292,-3.22948 -0.0863,-3.24346 0.14079,-3.24155 0.36718,-3.22377 0.59175,-3.19019 0.81344,-3.14099 1.03113,-3.0764 1.24378,-2.99674 1.45034,-2.90242 1.64978,-2.79386 1.84116,-2.67163 2.02351,-2.53632 2.19595,-2.38857 2.35764,-2.22913 2.50777,-2.05877 2.64563,-1.87833 2.77053,-1.68869 2.88185,-1.49077 2.97907,-1.28556 3.06168,-1.07405 3.12931,-0.85727 3.1816,-0.6363 3.21832,-0.41221 3.23927,-0.1861 3.24435,0.0409 3.23354,0.26773 3.2069,0.49325 3.16454,0.71633 3.10669,0.93592 3.03363,1.15092 2.94569,1.36027 2.84334,1.56298 2.72706,1.75802 2.59742,1.94445 2.45505,2.12137 2.30067,2.28788 2.13502,2.44319 1.9589,2.58654 1.77319,2.71722 1.57881,2.83458 1.37667,2.93807 1.16781,3.02716 0.95322,3.10142 0.73397,3.16051 0.51111,3.20409 0.28575,3.232 0.0653,2.31689 v 0"
           style="fill:none;stroke:#000000;stroke-width:1;stroke-linecap:butt;stroke-linejoin:round;stroke-miterlimit:10;stroke-dasharray:3.7, 1.6;stroke-dashoffset:0;stroke-opacity:1"
           id="path642"
           inkscape:connector-curvature="0" /></g></g><g
       id="g644"><g
         id="g646"
         clip-path="url(#clipPath650)"><path
           d="m 292.6361,148.73437 -0.11354,3.24262 -0.34005,3.22674 -0.56492,3.19505 -0.787,3.14771 -1.00523,3.08496 -1.21854,3.0071 -1.42588,2.9145 -1.62624,2.80764 -1.81864,2.68702 -2.00211,2.55323 -2.17579,2.40695 -2.33882,2.24888 -2.49037,2.07978 -2.62975,1.90051 -2.75623,1.71192 -2.86922,1.51495 -2.96815,1.31055 -3.05254,1.09975 -3.12199,0.88355 -3.17614,0.66302 -3.21474,0.43926 -3.23759,0.21333 -3.24458,-0.0136 -3.23568,-0.24054 -3.21093,-0.46627 -3.17045,-0.6897 -3.11445,-0.90977 -3.0432,-1.12537 -2.95702,-1.33546 -2.85638,-1.53902 -2.74175,-1.73503 -2.61367,-1.92255 -2.4728,-2.10065 -2.31983,-2.26845 -2.15548,-2.42516 -1.98057,-2.56998 -1.79598,-2.70221 -1.60258,-2.82121 -1.40133,-2.92639 -1.19322,-3.01724 -0.97926,-3.0933 -0.76051,-3.15422 -0.53803,-3.19969 -0.31291,-3.22948 -0.0863,-3.24346 0.1408,-3.24155 0.36717,-3.22377 0.59176,-3.19019 0.81343,-3.14099 1.03114,-3.0764 1.24378,-2.99674 1.45033,-2.90242 1.64979,-2.79386 1.84116,-2.67163 2.02351,-2.53632 2.19595,-2.38857 2.35763,-2.22913 2.50778,-2.05877 2.64563,-1.87833 2.77052,-1.68869 2.88186,-1.49077 2.97906,-1.28556 3.06169,-1.07404 3.1293,-0.85728 3.18161,-0.63629 3.21831,-0.41222 3.23927,-0.1861 3.24435,0.0409 3.23354,0.26773 3.2069,0.49325 3.16454,0.71633 3.1067,0.93592 3.03362,1.15092 2.9457,1.36027 2.84333,1.56298 2.72706,1.75802 2.59742,1.94446 2.45506,2.12136 2.30067,2.28788 2.13501,2.44319 1.9589,2.58654 1.7732,2.71722 1.5788,2.83458 1.37668,2.93807 1.16781,3.02716 0.95322,3.10142 0.73396,3.16051 0.51111,3.20409 0.28576,3.232 0.0653,2.31689 v 0"
           style="fill:none;stroke:#000000;stroke-width:1;stroke-linecap:butt;stroke-linejoin:round;stroke-miterlimit:10;stroke-dasharray:3.7, 1.6;stroke-dashoffset:0;stroke-opacity:1"
           id="path652"
           inkscape:connector-curvature="0" /></g></g><g
       id="g654"><g
         id="g656"
         clip-path="url(#clipPath660)"><path
           d="m 228.15216,158.00657 -0.11354,3.24262 -0.34006,3.22674 -0.56491,3.19505 -0.787,3.14771 -1.00523,3.08496 -1.21854,3.0071 -1.42589,2.91451 -1.62624,2.80763 -1.81863,2.68702 -2.00211,2.55324 -2.17579,2.40695 -2.33882,2.24887 -2.49037,2.07978 -2.62975,1.90051 -2.75623,1.71192 -2.86922,1.51495 -2.96815,1.31055 -3.05254,1.09975 -3.12199,0.88355 -3.17615,0.66303 -3.21473,0.43925 -3.23759,0.21333 -3.24458,-0.0136 -3.23568,-0.24054 -3.21093,-0.46627 -3.17045,-0.6897 -3.11446,-0.90977 -3.04319,-1.12537 -2.95703,-1.33546 -2.85638,-1.53902 -2.74174,-1.73503 -2.61367,-1.92255 -2.4728,-2.10065 -2.31983,-2.26845 -2.15548,-2.42516 -1.98058,-2.56998 -1.79597,-2.70221 -1.60258,-2.82121 -1.40133,-2.92639 -1.19322,-3.01724 -0.97926,-3.0933 -0.76051,-3.15422 -0.53803,-3.19969 -0.31292,-3.22948 -0.0863,-3.24346 0.1408,-3.24155 0.36717,-3.22377 0.59176,-3.19019 0.81343,-3.14098 1.03113,-3.07641 1.24378,-2.99674 1.45034,-2.90242 1.64979,-2.79386 1.84115,-2.67163 2.02351,-2.53632 2.19596,-2.38857 2.35763,-2.22913 2.50778,-2.05877 2.64563,-1.87833 2.77052,-1.68869 2.88186,-1.49077 2.97906,-1.28556 3.06168,-1.07404 3.12931,-0.85727 3.1816,-0.6363 3.21832,-0.41221 3.23927,-0.18611 3.24435,0.0409 3.23354,0.26774 3.2069,0.49324 3.16454,0.71633 3.10669,0.93592 3.03363,1.15092 2.94569,1.36027 2.84334,1.56298 2.72706,1.75802 2.59742,1.94446 2.45506,2.12136 2.30066,2.28788 2.13502,2.44319 1.9589,2.58654 1.7732,2.71722 1.5788,2.83458 1.37668,2.93807 1.1678,3.02716 0.95322,3.10142 0.73397,3.16051 0.51111,3.2041 0.28576,3.23199 0.0653,2.31689 v 0"
           style="fill:none;stroke:#000000;stroke-width:1;stroke-linecap:butt;stroke-linejoin:round;stroke-miterlimit:10;stroke-dasharray:3.7, 1.6;stroke-dashoffset:0;stroke-opacity:1"
           id="path662"
           inkscape:connector-curvature="0" /></g></g><g
       id="g664"><g
         id="g666"
         clip-path="url(#clipPath670)"><path
           d="m 242.48193,147.04851 -0.11354,3.24262 -0.34006,3.22674 -0.56491,3.19505 -0.787,3.14772 -1.00524,3.08496 -1.21854,3.0071 -1.42588,2.9145 -1.62624,2.80764 -1.81863,2.68701 -2.00212,2.55324 -2.17579,2.40695 -2.33881,2.24887 -2.49038,2.07979 -2.62974,1.9005 -2.75624,1.71192 -2.86921,1.51495 -2.96815,1.31056 -3.05255,1.09975 -3.12199,0.88355 -3.17614,0.66302 -3.21474,0.43925 -3.23758,0.21333 -3.24458,-0.0136 -3.23568,-0.24054 -3.21093,-0.46626 -3.17046,-0.68971 -3.11445,-0.90976 -3.04319,-1.12537 -2.95703,-1.33547 -2.85638,-1.53902 -2.74174,-1.73503 -2.61367,-1.92254 -2.47281,-2.10065 -2.31982,-2.26846 -2.15548,-2.42516 -1.98058,-2.56998 -1.79598,-2.70221 -1.60258,-2.82121 -1.40132,-2.92639 -1.19322,-3.01723 -0.97926,-3.09331 -0.76051,-3.15422 -0.53803,-3.19968 -0.31292,-3.22949 -0.0863,-3.24346 0.14079,-3.24155 0.36718,-3.22376 0.59175,-3.19019 0.81344,-3.14099 1.03113,-3.0764 1.24378,-2.99675 1.45034,-2.90241 1.64978,-2.79387 1.84116,-2.67163 2.02351,-2.53631 2.19595,-2.38857 2.35764,-2.22914 2.50777,-2.05877 2.64563,-1.87833 2.77053,-1.68869 2.88185,-1.49077 2.97906,-1.28556 3.06169,-1.07404 3.12931,-0.85727 3.1816,-0.6363 3.21832,-0.41221 3.23926,-0.1861 3.24435,0.0409 3.23354,0.26774 3.2069,0.49324 3.16455,0.71634 3.10669,0.93591 3.03362,1.15092 2.9457,1.36028 2.84334,1.56298 2.72706,1.75802 2.59741,1.94445 2.45506,2.12136 2.30067,2.28788 2.13501,2.4432 1.95891,2.58654 1.77319,2.71721 1.5788,2.83458 1.37668,2.93807 1.16781,3.02716 0.95322,3.10143 0.73396,3.1605 0.51111,3.2041 0.28576,3.232 0.0653,2.31689 v 0"
           style="fill:none;stroke:#000000;stroke-width:1;stroke-linecap:butt;stroke-linejoin:round;stroke-miterlimit:10;stroke-dasharray:3.7, 1.6;stroke-dashoffset:0;stroke-opacity:1"
           id="path672"
           inkscape:connector-curvature="0" /></g></g><g
       id="g674"><g
         id="g676"
         clip-path="url(#clipPath680)"><path
           d="m 338.99711,96.472871 -0.11354,3.242621 -0.34006,3.226738 -0.56491,3.19505 -0.787,3.14772 -1.00524,3.08496 -1.21854,3.0071 -1.42588,2.9145 -1.62624,2.80764 -1.81863,2.68701 -2.00212,2.55324 -2.17579,2.40695 -2.33881,2.24887 -2.49038,2.07979 -2.62974,1.9005 -2.75623,1.71192 -2.86922,1.51495 -2.96815,1.31056 -3.05255,1.09974 -3.12199,0.88355 -3.17614,0.66303 -3.21474,0.43925 -3.23759,0.21333 -3.24457,-0.0136 -3.23568,-0.24054 -3.21093,-0.46626 -3.17046,-0.68971 -3.11445,-0.90976 -3.04319,-1.12537 -2.95703,-1.33547 -2.85638,-1.53902 -2.74174,-1.73503 -2.61368,-1.92255 -2.4728,-2.10064 -2.31982,-2.26846 -2.15548,-2.42516 -1.98058,-2.56998 -1.79598,-2.70221 -1.60257,-2.82121 -1.40133,-2.92639 -1.19322,-3.01723 -0.97926,-3.0933 -0.76051,-3.15423 -0.53803,-3.19968 -0.31292,-3.229486 -0.0863,-3.243461 0.14079,-3.241551 0.36718,-3.223766 0.59175,-3.190189 0.81344,-3.140987 1.03113,-3.076401 1.24378,-2.996747 1.45034,-2.902413 1.64978,-2.793866 1.84116,-2.671632 2.02351,-2.536314 2.19595,-2.388572 2.35764,-2.229132 2.50777,-2.058773 2.64563,-1.878329 2.77053,-1.688687 2.88185,-1.490773 2.97907,-1.285557 3.06168,-1.074044 3.12931,-0.857271 3.1816,-0.636299 3.21832,-0.412211 3.23926,-0.186102 3.24435,0.04092 3.23355,0.267735 3.20689,0.493243 3.16455,0.716335 3.10669,0.935917 3.03362,1.150917 2.9457,1.360278 2.84334,1.562977 2.72706,1.758021 2.59741,1.944453 2.45506,2.121363 2.30067,2.28788 2.13501,2.443193 1.95891,2.586539 1.77319,2.717216 1.5788,2.834583 1.37668,2.938067 1.16781,3.027161 0.95322,3.101427 0.73396,3.160503 0.51112,3.204098 0.28575,3.232 0.0653,2.316888 v 0"
           style="fill:none;stroke:#000000;stroke-width:1;stroke-linecap:butt;stroke-linejoin:round;stroke-miterlimit:10;stroke-dasharray:3.7, 1.6;stroke-dashoffset:0;stroke-opacity:1"
           id="path682"
           inkscape:connector-curvature="0" /></g></g><g
       id="g684"><g
         id="g686"
         clip-path="url(#clipPath690)"><path
           d="m 327.61759,125.97533 -0.11354,3.24262 -0.34006,3.22674 -0.56491,3.19505 -0.787,3.14771 -1.00524,3.08497 -1.21854,3.00709 -1.42588,2.91451 -1.62624,2.80763 -1.81863,2.68702 -2.00212,2.55324 -2.17579,2.40695 -2.33881,2.24887 -2.49038,2.07978 -2.62974,1.90051 -2.75623,1.71192 -2.86922,1.51495 -2.96815,1.31056 -3.05255,1.09974 -3.12199,0.88355 -3.17614,0.66303 -3.21474,0.43925 -3.23758,0.21333 -3.24458,-0.0136 -3.23568,-0.24054 -3.21093,-0.46627 -3.17046,-0.6897 -3.11445,-0.90977 -3.04319,-1.12537 -2.95703,-1.33546 -2.85638,-1.53902 -2.74174,-1.73503 -2.61367,-1.92255 -2.47281,-2.10065 -2.31982,-2.26845 -2.15548,-2.42516 -1.98058,-2.56998 -1.79598,-2.70221 -1.60257,-2.82121 -1.40133,-2.92639 -1.19322,-3.01724 -0.97926,-3.0933 -0.76051,-3.15422 -0.53803,-3.19969 -0.31292,-3.22948 -0.0863,-3.24346 0.14079,-3.24155 0.36718,-3.22377 0.59175,-3.19019 0.81344,-3.14098 1.03113,-3.0764 1.24378,-2.99675 1.45034,-2.90241 1.64978,-2.79387 1.84116,-2.671632 2.02351,-2.536314 2.19595,-2.388572 2.35764,-2.229132 2.50777,-2.058773 2.64563,-1.878329 2.77053,-1.688687 2.88185,-1.490773 2.97907,-1.285557 3.06168,-1.074044 3.12931,-0.857271 3.1816,-0.636299 3.21832,-0.412211 3.23926,-0.186102 3.24435,0.04092 3.23355,0.267735 3.20689,0.493243 3.16455,0.716335 3.10669,0.935917 3.03362,1.150917 2.9457,1.360278 2.84334,1.562977 2.72706,1.758021 2.59742,1.944453 2.45505,2.121363 2.30067,2.28788 2.13502,2.443193 1.9589,2.586539 1.77319,2.717215 1.5788,2.83458 1.37668,2.93807 1.16781,3.02716 0.95322,3.10143 0.73396,3.1605 0.51112,3.2041 0.28575,3.232 0.0653,2.31689 v 0"
           style="fill:none;stroke:#000000;stroke-width:1;stroke-linecap:butt;stroke-linejoin:round;stroke-miterlimit:10;stroke-dasharray:3.7, 1.6;stroke-dashoffset:0;stroke-opacity:1"
           id="path692"
           inkscape:connector-curvature="0" /></g></g><g
       id="g694"><g
         id="g696"
         clip-path="url(#clipPath700)"><path
           d="m 335.20393,141.56948 -0.11354,3.24262 -0.34005,3.22674 -0.56492,3.19505 -0.787,3.14772 -1.00523,3.08496 -1.21854,3.0071 -1.42588,2.9145 -1.62624,2.80764 -1.81863,2.68702 -2.00212,2.55323 -2.17579,2.40695 -2.33881,2.24888 -2.49038,2.07978 -2.62975,1.90051 -2.75623,1.71192 -2.86922,1.51494 -2.96815,1.31056 -3.05254,1.09975 -3.12199,0.88355 -3.17614,0.66302 -3.21474,0.43926 -3.23759,0.21332 -3.24458,-0.0136 -3.23568,-0.24055 -3.21093,-0.46626 -3.17045,-0.6897 -3.11445,-0.90977 -3.0432,-1.12537 -2.95702,-1.33547 -2.85638,-1.53901 -2.74174,-1.73504 -2.61368,-1.92254 -2.4728,-2.10065 -2.31983,-2.26846 -2.15548,-2.42515 -1.98057,-2.56998 -1.79598,-2.70221 -1.60258,-2.82121 -1.40133,-2.92639 -1.19321,-3.01724 -0.97927,-3.0933 -0.7605,-3.15422 -0.53804,-3.19969 -0.31291,-3.22948 -0.0863,-3.24346 0.1408,-3.24156 0.36717,-3.22376 0.59176,-3.19019 0.81343,-3.14099 1.03114,-3.0764 1.24378,-2.99675 1.45033,-2.90241 1.64979,-2.79386 1.84116,-2.67164 2.02351,-2.53631 2.19595,-2.38857 2.35763,-2.22913 2.50778,-2.05878 2.64563,-1.87833 2.77053,-1.68868 2.88185,-1.490776 2.97906,-1.285557 3.06169,-1.074044 3.1293,-0.857272 3.18161,-0.636299 3.21831,-0.41221 3.23927,-0.186102 3.24435,0.04092 3.23354,0.267736 3.2069,0.493243 3.16455,0.716335 3.10669,0.935917 3.03362,1.150917 2.9457,1.360272 2.84334,1.56298 2.72705,1.75802 2.59742,1.94445 2.45506,2.12136 2.30067,2.28789 2.13501,2.44319 1.9589,2.58654 1.7732,2.71721 1.5788,2.83459 1.37668,2.93806 1.16781,3.02717 0.95322,3.10142 0.73396,3.1605 0.51111,3.2041 0.28576,3.232 0.0653,2.31689 v 0"
           style="fill:none;stroke:#000000;stroke-width:1;stroke-linecap:butt;stroke-linejoin:round;stroke-miterlimit:10;stroke-dasharray:3.7, 1.6;stroke-dashoffset:0;stroke-opacity:1"
           id="path702"
           inkscape:connector-curvature="0" /></g></g><g
       id="g704"><g
         id="g706"
         clip-path="url(#clipPath710)"><path
           d="m 209.60776,137.35485 -0.11354,3.24262 -0.34006,3.22674 -0.56491,3.19505 -0.787,3.14771 -1.00523,3.08496 -1.21855,3.0071 -1.42588,2.91451 -1.62624,2.80763 -1.81863,2.68702 -2.00211,2.55324 -2.1758,2.40695 -2.33881,2.24887 -2.49038,2.07978 -2.62974,1.90051 -2.75623,1.71192 -2.86922,1.51495 -2.96815,1.31055 -3.05255,1.09975 -3.12198,0.88355 -3.17615,0.66303 -3.21473,0.43925 -3.23759,0.21333 -3.24458,-0.0136 -3.23568,-0.24054 -3.21093,-0.46627 -3.17046,-0.6897 -3.11445,-0.90977 -3.04319,-1.12537 -2.95703,-1.33546 -2.85638,-1.53902 -2.74174,-1.73503 -2.61367,-1.92255 -2.47281,-2.10065 -2.31982,-2.26845 -2.15548,-2.42516 -1.98058,-2.56998 -1.79597,-2.70221 -1.60258,-2.82121 -1.40133,-2.92639 -1.19322,-3.01724 -0.97926,-3.0933 -0.76051,-3.15422 -0.53803,-3.19969 -0.31292,-3.22948 -0.0863,-3.24346 0.1408,-3.24155 0.36717,-3.22377 0.59175,-3.19019 0.81344,-3.14098 1.03113,-3.0764 1.24378,-2.99675 1.45034,-2.90241 1.64979,-2.79387 1.84115,-2.67163 2.02351,-2.53632 2.19595,-2.38857 2.35764,-2.22913 2.50778,-2.05877 2.64562,-1.878333 2.77053,-1.688687 2.88185,-1.490773 2.97907,-1.285557 3.06168,-1.074044 3.12931,-0.857271 3.1816,-0.636299 3.21832,-0.412211 3.23927,-0.186102 3.24435,0.04092 3.23354,0.267735 3.2069,0.493243 3.16454,0.716335 3.10669,0.935918 3.03363,1.150916 2.94569,1.360278 2.84334,1.562977 2.72706,1.758021 2.59742,1.944454 2.45505,2.12136 2.30067,2.28788 2.13502,2.44319 1.9589,2.58654 1.77319,2.71722 1.57881,2.83458 1.37667,2.93807 1.16781,3.02716 0.95322,3.10143 0.73397,3.1605 0.51111,3.2041 0.28575,3.232 0.0653,2.31688 v 0"
           style="fill:none;stroke:#000000;stroke-width:1;stroke-linecap:butt;stroke-linejoin:round;stroke-miterlimit:10;stroke-dasharray:3.7, 1.6;stroke-dashoffset:0;stroke-opacity:1"
           id="path712"
           inkscape:connector-curvature="0" /></g></g><g
       id="g714"><g
         id="g716"
         clip-path="url(#clipPath720)"><path
           d="m 201.17849,159.69242 -0.11354,3.24262 -0.34006,3.22674 -0.56491,3.19505 -0.787,3.14772 -1.00524,3.08496 -1.21854,3.0071 -1.42588,2.9145 -1.62624,2.80764 -1.81863,2.68701 -2.00212,2.55324 -2.17579,2.40695 -2.33881,2.24887 -2.49038,2.07979 -2.62974,1.9005 -2.75624,1.71192 -2.86921,1.51495 -2.96815,1.31056 -3.05255,1.09975 -3.12199,0.88355 -3.17614,0.66302 -3.21474,0.43925 -3.23759,0.21333 -3.24457,-0.0136 -3.23568,-0.24054 -3.21093,-0.46626 -3.17046,-0.68971 -3.11445,-0.90976 -3.04319,-1.12537 -2.95703,-1.33547 -2.85638,-1.53902 -2.74174,-1.73503 -2.61368,-1.92254 -2.4728,-2.10065 -2.31982,-2.26846 -2.15548,-2.42516 -1.98058,-2.56997 -1.79598,-2.70222 -1.60257,-2.82121 -1.40133,-2.92639 -1.19322,-3.01723 -0.97926,-3.09331 -0.76051,-3.15422 -0.53803,-3.19968 -0.31292,-3.22949 -0.0863,-3.24346 0.14079,-3.24155 0.36718,-3.22376 0.59175,-3.19019 0.81344,-3.14099 1.03113,-3.0764 1.24378,-2.99675 1.45034,-2.90241 1.64978,-2.79387 1.84116,-2.67163 2.02351,-2.53631 2.19595,-2.38857 2.35764,-2.22914 2.50777,-2.05877 2.64563,-1.87833 2.77053,-1.68869 2.88185,-1.49077 2.97906,-1.28555 3.06169,-1.07405 3.12931,-0.85727 3.1816,-0.6363 3.21832,-0.41221 3.23926,-0.1861 3.24435,0.0409 3.23354,0.26774 3.2069,0.49324 3.16455,0.71634 3.10669,0.93592 3.03362,1.15091 2.9457,1.36028 2.84334,1.56298 2.72706,1.75802 2.59741,1.94445 2.45506,2.12136 2.30067,2.28788 2.13501,2.4432 1.95891,2.58654 1.77319,2.71721 1.5788,2.83458 1.37668,2.93807 1.16781,3.02716 0.95322,3.10143 0.73396,3.1605 0.51111,3.2041 0.28576,3.232 0.0653,2.31689 v 0"
           style="fill:none;stroke:#000000;stroke-width:1;stroke-linecap:butt;stroke-linejoin:round;stroke-miterlimit:10;stroke-dasharray:3.7, 1.6;stroke-dashoffset:0;stroke-opacity:1"
           id="path722"
           inkscape:connector-curvature="0" /></g></g><g
       id="g724"><g
         id="g726"
         clip-path="url(#clipPath730)"><path
           d="m 259.76194,242.2993 -0.11354,3.24262 -0.34006,3.22674 -0.56491,3.19505 -0.787,3.14772 -1.00524,3.08496 -1.21854,3.00709 -1.42588,2.91451 -1.62624,2.80764 -1.81863,2.68701 -2.00212,2.55324 -2.17579,2.40695 -2.33881,2.24887 -2.49038,2.07979 -2.62974,1.9005 -2.75623,1.71192 -2.86922,1.51495 -2.96815,1.31056 -3.05255,1.09974 -3.12199,0.88355 -3.17614,0.66303 -3.21474,0.43925 -3.23758,0.21333 -3.24458,-0.0136 -3.23568,-0.24054 -3.21093,-0.46626 -3.17046,-0.68971 -3.11445,-0.90976 -3.04319,-1.12537 -2.95703,-1.33547 -2.85638,-1.53902 -2.74174,-1.73503 -2.61368,-1.92255 -2.4728,-2.10064 -2.31982,-2.26846 -2.15548,-2.42516 -1.98058,-2.56998 -1.79598,-2.70221 -1.60257,-2.82121 -1.40133,-2.92639 -1.19322,-3.01723 -0.97926,-3.09331 -0.76051,-3.15422 -0.53803,-3.19968 -0.31292,-3.22949 -0.0863,-3.24346 0.14079,-3.24155 0.36718,-3.22376 0.59175,-3.19019 0.81344,-3.14099 1.03113,-3.0764 1.24378,-2.99675 1.45034,-2.90241 1.64978,-2.79387 1.84116,-2.67163 2.02351,-2.53631 2.19595,-2.38858 2.35764,-2.22913 2.50777,-2.05877 2.64563,-1.87833 2.77053,-1.68869 2.88185,-1.49077 2.97907,-1.28556 3.06168,-1.07404 3.12931,-0.85727 3.1816,-0.6363 3.21832,-0.41221 3.23926,-0.1861 3.24435,0.0409 3.23355,0.26774 3.20689,0.49324 3.16455,0.71634 3.10669,0.93591 3.03362,1.15092 2.9457,1.36028 2.84334,1.56298 2.72706,1.75802 2.59741,1.94445 2.45506,2.12136 2.30067,2.28788 2.13502,2.4432 1.9589,2.58653 1.77319,2.71722 1.5788,2.83458 1.37668,2.93807 1.16781,3.02716 0.95322,3.10143 0.73396,3.1605 0.51111,3.2041 0.28576,3.232 0.0653,2.31689 v 0"
           style="fill:none;stroke:#000000;stroke-width:1;stroke-linecap:butt;stroke-linejoin:round;stroke-miterlimit:10;stroke-dasharray:3.7, 1.6;stroke-dashoffset:0;stroke-opacity:1"
           id="path732"
           inkscape:connector-curvature="0" /></g></g><g
       id="g734"><g
         id="g736"
         clip-path="url(#clipPath740)"><path
           d="m 279.57073,213.63977 -0.11354,3.24262 -0.34006,3.22674 -0.56491,3.19505 -0.787,3.14772 -1.00523,3.08496 -1.21855,3.0071 -1.42588,2.9145 -1.62624,2.80764 -1.81863,2.68701 -2.00211,2.55324 -2.1758,2.40695 -2.33881,2.24887 -2.49038,2.07979 -2.62974,1.9005 -2.75623,1.71192 -2.86922,1.51495 -2.96815,1.31056 -3.05255,1.09975 -3.12199,0.88355 -3.17614,0.66302 -3.21474,0.43925 -3.23758,0.21333 -3.24458,-0.0136 -3.23568,-0.24054 -3.21093,-0.46626 -3.17046,-0.68971 -3.11445,-0.90976 -3.04319,-1.12537 -2.95703,-1.33547 -2.85638,-1.53902 -2.74174,-1.73503 -2.61367,-1.92254 -2.47281,-2.10065 -2.31982,-2.26846 -2.15548,-2.42516 -1.98058,-2.56998 -1.79597,-2.70221 -1.60258,-2.82121 -1.40133,-2.92639 -1.19322,-3.01723 -0.97926,-3.09331 -0.76051,-3.15421 -0.53803,-3.19969 -0.31292,-3.22949 -0.0863,-3.24346 0.14079,-3.24155 0.36718,-3.22376 0.59175,-3.19019 0.81344,-3.14099 1.03113,-3.0764 1.24378,-2.99675 1.45034,-2.90241 1.64978,-2.79387 1.84116,-2.67163 2.02351,-2.53631 2.19595,-2.38858 2.35764,-2.22913 2.50777,-2.05877 2.64563,-1.87833 2.77053,-1.68869 2.88185,-1.49077 2.97907,-1.28555 3.06168,-1.07405 3.12931,-0.85727 3.1816,-0.6363 3.21832,-0.41221 3.23927,-0.1861 3.24435,0.0409 3.23354,0.26774 3.2069,0.49324 3.16454,0.71634 3.10669,0.93591 3.03363,1.15092 2.94569,1.36028 2.84334,1.56298 2.72706,1.75802 2.59742,1.94445 2.45505,2.12136 2.30067,2.28788 2.13502,2.4432 1.9589,2.58654 1.77319,2.71721 1.57881,2.83458 1.37667,2.93807 1.16781,3.02716 0.95322,3.10143 0.73397,3.1605 0.51111,3.2041 0.28575,3.232 0.0653,2.31689 v 0"
           style="fill:none;stroke:#000000;stroke-width:1;stroke-linecap:butt;stroke-linejoin:round;stroke-miterlimit:10;stroke-dasharray:3.7, 1.6;stroke-dashoffset:0;stroke-opacity:1"
           id="path742"
           inkscape:connector-curvature="0" /></g></g><g
       id="g744"><g
         id="g746"
         clip-path="url(#clipPath750)"><path
           d="m 257.65462,216.59002 -0.11354,3.24262 -0.34006,3.22674 -0.56491,3.19505 -0.787,3.14771 -1.00523,3.08496 -1.21855,3.0071 -1.42588,2.91451 -1.62624,2.80763 -1.81863,2.68702 -2.00211,2.55324 -2.1758,2.40695 -2.33881,2.24887 -2.49038,2.07978 -2.62974,1.90051 -2.75623,1.71192 -2.86922,1.51495 -2.96815,1.31055 -3.05255,1.09975 -3.12199,0.88355 -3.17614,0.66303 -3.21474,0.43925 -3.23758,0.21333 -3.24458,-0.0136 -3.23568,-0.24054 -3.21093,-0.46627 -3.17046,-0.6897 -3.11445,-0.90977 -3.04319,-1.12537 -2.95703,-1.33546 -2.85638,-1.53902 -2.74174,-1.73503 -2.61367,-1.92255 -2.47281,-2.10065 -2.31982,-2.26845 -2.15548,-2.42516 -1.98058,-2.56998 -1.79598,-2.70221 -1.60257,-2.82121 -1.40133,-2.92639 -1.19322,-3.01724 -0.97926,-3.0933 -0.76051,-3.15422 -0.53803,-3.19969 -0.31292,-3.22948 -0.0863,-3.24346 0.14079,-3.24155 0.36718,-3.22377 0.59175,-3.19019 0.81344,-3.14098 1.03113,-3.07641 1.24378,-2.99674 1.45034,-2.90241 1.64978,-2.79387 1.84116,-2.67163 2.02351,-2.53632 2.19595,-2.38857 2.35764,-2.22913 2.50777,-2.05877 2.64563,-1.87833 2.77053,-1.68869 2.88185,-1.49077 2.97907,-1.28556 3.06168,-1.07404 3.12931,-0.85728 3.1816,-0.63629 3.21832,-0.41221 3.23926,-0.18611 3.24435,0.0409 3.23355,0.26773 3.20689,0.49325 3.16455,0.71633 3.10669,0.93592 3.03362,1.15092 2.9457,1.36027 2.84334,1.56298 2.72706,1.75802 2.59742,1.94446 2.45505,2.12136 2.30067,2.28788 2.13502,2.44319 1.9589,2.58654 1.77319,2.71722 1.57881,2.83458 1.37667,2.93807 1.16781,3.02716 0.95322,3.10142 0.73397,3.16051 0.51111,3.2041 0.28575,3.232 0.0653,2.31688 v 0"
           style="fill:none;stroke:#000000;stroke-width:1;stroke-linecap:butt;stroke-linejoin:round;stroke-miterlimit:10;stroke-dasharray:3.7, 1.6;stroke-dashoffset:0;stroke-opacity:1"
           id="path752"
           inkscape:connector-curvature="0" /></g></g><g
       id="g754"><g
         id="g756"
         clip-path="url(#clipPath760)"><path
           d="m 363.86346,245.67101 -0.11353,3.24262 -0.34006,3.22674 -0.56492,3.19505 -0.787,3.14772 -1.00523,3.08496 -1.21854,3.00709 -1.42588,2.91451 -1.62624,2.80764 -1.81864,2.68701 -2.00211,2.55324 -2.17579,2.40695 -2.33881,2.24887 -2.49038,2.07979 -2.62975,1.9005 -2.75623,1.71192 -2.86922,1.51495 -2.96815,1.31056 -3.05254,1.09974 -3.12199,0.88356 -3.17614,0.66302 -3.21474,0.43925 -3.23759,0.21333 -3.24458,-0.0136 -3.23568,-0.24054 -3.21093,-0.46626 -3.17045,-0.68971 -3.11445,-0.90976 -3.0432,-1.12537 -2.95702,-1.33547 -2.85638,-1.53902 -2.74174,-1.73503 -2.61368,-1.92255 -2.4728,-2.10064 -2.31982,-2.26846 -2.15549,-2.42516 -1.98057,-2.56998 -1.79598,-2.70221 -1.60258,-2.82121 -1.40133,-2.92639 -1.19321,-3.01723 -0.97927,-3.09331 -0.7605,-3.15422 -0.53804,-3.19968 -0.31291,-3.22949 -0.0863,-3.24346 0.1408,-3.24155 0.36717,-3.22376 0.59176,-3.19019 0.81343,-3.14099 1.03114,-3.0764 1.24378,-2.99675 1.45033,-2.90241 1.64979,-2.79387 1.84116,-2.67163 2.02351,-2.53631 2.19595,-2.38858 2.35763,-2.22913 2.50778,-2.05877 2.64563,-1.87833 2.77052,-1.68869 2.88186,-1.49077 2.97906,-1.28556 3.06169,-1.07404 3.1293,-0.85727 3.18161,-0.6363 3.21831,-0.41221 3.23927,-0.1861 3.24435,0.0409 3.23354,0.26774 3.2069,0.49324 3.16454,0.71634 3.1067,0.93591 3.03362,1.15092 2.9457,1.36028 2.84334,1.56298 2.72705,1.75802 2.59742,1.94445 2.45506,2.12136 2.30067,2.28788 2.13501,2.4432 1.9589,2.58653 1.7732,2.71722 1.5788,2.83458 1.37668,2.93807 1.16781,3.02716 0.95322,3.10143 0.73396,3.1605 0.51111,3.2041 0.28576,3.232 0.0653,2.31689 v 0"
           style="fill:none;stroke:#000000;stroke-width:1;stroke-linecap:butt;stroke-linejoin:round;stroke-miterlimit:10;stroke-dasharray:3.7, 1.6;stroke-dashoffset:0;stroke-opacity:1"
           id="path762"
           inkscape:connector-curvature="0" /></g></g><g
       id="g764"><path
         d="M 57.6,38.016 V 304.128"
         style="fill:none;stroke:#000000;stroke-width:0.80000001;stroke-linecap:square;stroke-linejoin:miter;stroke-miterlimit:10;stroke-dasharray:none;stroke-opacity:1"
         id="path766"
         inkscape:connector-curvature="0" /><path
         d="M 414.72,38.016 V 304.128"
         style="fill:none;stroke:#000000;stroke-width:0.80000001;stroke-linecap:square;stroke-linejoin:miter;stroke-miterlimit:10;stroke-dasharray:none;stroke-opacity:1"
         id="path768"
         inkscape:connector-curvature="0" /><path
         d="M 57.6,38.016 H 414.72"
         style="fill:none;stroke:#000000;stroke-width:0.80000001;stroke-linecap:square;stroke-linejoin:miter;stroke-miterlimit:10;stroke-dasharray:none;stroke-opacity:1"
         id="path770"
         inkscape:connector-curvature="0" /><path
         d="M 57.6,304.128 H 414.72"
         style="fill:none;stroke:#000000;stroke-width:0.80000001;stroke-linecap:square;stroke-linejoin:miter;stroke-miterlimit:10;stroke-dasharray:none;stroke-opacity:1"
         id="path772"
         inkscape:connector-curvature="0" /><path
         d="m 64.6,222.76862 h 87.23437 c 1.33334,0 2,0.66667 2,2 V 297.128 c 0,1.33333 -0.66666,2 -2,2 H 64.6 c -1.333333,0 -2,-0.66667 -2,-2 v -72.35938 c 0,-1.33333 0.666667,-2 2,-2 z"
         style="fill:#ffffff;fill-opacity:0.8;fill-rule:nonzero;stroke:#cccccc;stroke-width:1;stroke-linecap:butt;stroke-linejoin:miter;stroke-miterlimit:10;stroke-dasharray:none;stroke-opacity:0.8"
         id="path774"
         inkscape:connector-curvature="0" /><path
         d="m 76.6,287.15925 c 0.795609,0 1.55874,0.3161 2.12132,0.87868 0.562581,0.56258 0.87868,1.32571 0.87868,2.12132 0,0.79561 -0.316099,1.55874 -0.87868,2.12132 -0.56258,0.56258 -1.325711,0.87868 -2.12132,0.87868 -0.795609,0 -1.55874,-0.3161 -2.12132,-0.87868 C 73.916099,291.71799 73.6,290.95486 73.6,290.15925 c 0,-0.79561 0.316099,-1.55874 0.87868,-2.12132 0.56258,-0.56258 1.325711,-0.87868 2.12132,-0.87868 z"
         style="fill:#bfbf00;fill-opacity:1;fill-rule:nonzero;stroke:#bfbf00;stroke-width:1;stroke-linecap:butt;stroke-linejoin:round;stroke-miterlimit:10;stroke-dasharray:none;stroke-opacity:1"
         id="path776"
         inkscape:connector-curvature="0" /><text
         transform="matrix(1,0,0,-1,94.6,287.53425)"
         style="font-variant:normal;font-weight:normal;font-size:10px;font-family:'DejaVu Sans';-inkscape-font-specification:DejaVuSans;writing-mode:lr-tb;fill:#000000;fill-opacity:1;fill-rule:nonzero;stroke:none"
         id="text780"><tspan
           x="0 6.98 13.11 17.030001 23.18 29.530001 35.650002 39.759998 45.68 48.860001"
           y="0"
           sodipodi:role="line"
           id="tspan778">Category 1</tspan></text>
<path
         d="m 76.6,272.48737 c 0.795609,0 1.55874,0.3161 2.12132,0.87868 0.562581,0.56258 0.87868,1.32572 0.87868,2.12132 0,0.79561 -0.316099,1.55874 -0.87868,2.12132 -0.56258,0.56259 -1.325711,0.87868 -2.12132,0.87868 -0.795609,0 -1.55874,-0.31609 -2.12132,-0.87868 C 73.916099,277.04611 73.6,276.28298 73.6,275.48737 c 0,-0.7956 0.316099,-1.55874 0.87868,-2.12132 0.56258,-0.56258 1.325711,-0.87868 2.12132,-0.87868 z"
         style="fill:#008000;fill-opacity:1;fill-rule:nonzero;stroke:#008000;stroke-width:1;stroke-linecap:butt;stroke-linejoin:round;stroke-miterlimit:10;stroke-dasharray:none;stroke-opacity:1"
         id="path782"
         inkscape:connector-curvature="0" /><text
         transform="matrix(1,0,0,-1,94.6,272.86237)"
         style="font-variant:normal;font-weight:normal;font-size:10px;font-family:'DejaVu Sans';-inkscape-font-specification:DejaVuSans;writing-mode:lr-tb;fill:#000000;fill-opacity:1;fill-rule:nonzero;stroke:none"
         id="text786"><tspan
           x="0 6.98 13.11 17.030001 23.18 29.530001 35.650002 39.759998 45.68 48.860001"
           y="0"
           sodipodi:role="line"
           id="tspan784">Category 2</tspan></text>
<path
         d="m 76.6,257.8155 c 0.795609,0 1.55874,0.3161 2.12132,0.87868 0.562581,0.56258 0.87868,1.32571 0.87868,2.12132 0,0.79561 -0.316099,1.55874 -0.87868,2.12132 -0.56258,0.56258 -1.325711,0.87868 -2.12132,0.87868 -0.795609,0 -1.55874,-0.3161 -2.12132,-0.87868 C 73.916099,262.37424 73.6,261.61111 73.6,260.8155 c 0,-0.79561 0.316099,-1.55874 0.87868,-2.12132 0.56258,-0.56258 1.325711,-0.87868 2.12132,-0.87868 z"
         style="fill:#0000ff;fill-opacity:1;fill-rule:nonzero;stroke:#0000ff;stroke-width:1;stroke-linecap:butt;stroke-linejoin:round;stroke-miterlimit:10;stroke-dasharray:none;stroke-opacity:1"
         id="path788"
         inkscape:connector-curvature="0" /><text
         transform="matrix(1,0,0,-1,94.6,258.1905)"
         style="font-variant:normal;font-weight:normal;font-size:10px;font-family:'DejaVu Sans';-inkscape-font-specification:DejaVuSans;writing-mode:lr-tb;fill:#000000;fill-opacity:1;fill-rule:nonzero;stroke:none"
         id="text792"><tspan
           x="0 6.98 13.11 17.030001 23.18 29.530001 35.650002 39.759998 45.68 48.860001"
           y="0"
           sodipodi:role="line"
           id="tspan790">Category 3</tspan></text>
<path
         d="m 76.6,243.14362 c 0.795609,0 1.55874,0.3161 2.12132,0.87869 0.562581,0.56257 0.87868,1.32571 0.87868,2.12131 0,0.79561 -0.316099,1.55874 -0.87868,2.12132 -0.56258,0.56259 -1.325711,0.87868 -2.12132,0.87868 -0.795609,0 -1.55874,-0.31609 -2.12132,-0.87868 C 73.916099,247.70236 73.6,246.93923 73.6,246.14362 c 0,-0.7956 0.316099,-1.55874 0.87868,-2.12131 0.56258,-0.56259 1.325711,-0.87869 2.12132,-0.87869 z"
         style="fill:#00bfbf;fill-opacity:1;fill-rule:nonzero;stroke:#00bfbf;stroke-width:1;stroke-linecap:butt;stroke-linejoin:round;stroke-miterlimit:10;stroke-dasharray:none;stroke-opacity:1"
         id="path794"
         inkscape:connector-curvature="0" /><text
         transform="matrix(1,0,0,-1,94.6,243.51862)"
         style="font-variant:normal;font-weight:normal;font-size:10px;font-family:'DejaVu Sans';-inkscape-font-specification:DejaVuSans;writing-mode:lr-tb;fill:#000000;fill-opacity:1;fill-rule:nonzero;stroke:none"
         id="text798"><tspan
           x="0 6.98 13.11 17.030001 23.18 29.530001 35.650002 39.759998 45.68 48.860001"
           y="0"
           sodipodi:role="line"
           id="tspan796">Category 4</tspan></text>
<path
         d="M 76.6,234.47175 75.926458,232.3988 H 73.74683 l 1.763356,-1.28115 -0.673542,-2.07295 1.763356,1.28115 1.763356,-1.28115 -0.673542,2.07295 1.763356,1.28115 h -2.179628 z"
         style="fill:#ff0000;fill-opacity:1;fill-rule:nonzero;stroke:#ff0000;stroke-width:1;stroke-linecap:butt;stroke-linejoin:round;stroke-miterlimit:10;stroke-dasharray:none;stroke-opacity:1"
         id="path800"
         inkscape:connector-curvature="0" /><text
         transform="matrix(1,0,0,-1,94.6,228.84675)"
         style="font-variant:normal;font-weight:normal;font-size:10px;font-family:'DejaVu Sans';-inkscape-font-specification:DejaVuSans;writing-mode:lr-tb;fill:#000000;fill-opacity:1;fill-rule:nonzero;stroke:none"
         id="text804"><tspan
           x="0 6.98 13.1 17.209999 23.360001 26.540001 32.889999 39.009998 41.790001 48.130001"
           y="0"
           sodipodi:role="line"
           id="tspan802">Core point</tspan></text>
</g></g></svg>