<?xml version="1.0" encoding="UTF-8" standalone="no"?>
<svg
   xmlns:dc="http://purl.org/dc/elements/1.1/"
   xmlns:cc="http://creativecommons.org/ns#"
   xmlns:rdf="http://www.w3.org/1999/02/22-rdf-syntax-ns#"
   xmlns:svg="http://www.w3.org/2000/svg"
   xmlns="http://www.w3.org/2000/svg"
   viewBox="0 0 800 800"
   height="800"
   width="800"
   xml:space="preserve"
   id="svg2"
   version="1.1"><metadata
     id="metadata8"><rdf:RDF><cc:Work
         rdf:about=""><dc:format>image/svg+xml</dc:format><dc:type
           rdf:resource="http://purl.org/dc/dcmitype/StillImage" /><dc:title></dc:title></cc:Work></rdf:RDF></metadata><defs
     id="defs6" /><g
     transform="matrix(1.3333333,0,0,-1.3333333,0,800)"
     id="g10"><g
       id="g12"><path
         id="path14"
         style="fill:#ffffff;fill-opacity:1;fill-rule:nonzero;stroke:none"
         d="M 0,0 H 600 V 600 H 0 Z" /><path
         id="path16"
         style="fill:none;stroke:#444444;stroke-width:1;stroke-linecap:butt;stroke-linejoin:miter;stroke-miterlimit:10;stroke-dasharray:none;stroke-opacity:1"
         d="m 166.059,529.574 -48.286,-5.926" /><path
         id="path18"
         style="fill:none;stroke:#444444;stroke-width:1;stroke-linecap:butt;stroke-linejoin:miter;stroke-miterlimit:10;stroke-dasharray:none;stroke-opacity:1"
         d="m 166.059,529.574 0.879,-40.258" /><path
         id="path20"
         style="fill:none;stroke:#444444;stroke-width:1;stroke-linecap:butt;stroke-linejoin:miter;stroke-miterlimit:10;stroke-dasharray:none;stroke-opacity:1"
         d="M 467.863,126.133 411.754,113.25" /><path
         id="path22"
         style="fill:none;stroke:#444444;stroke-width:1;stroke-linecap:butt;stroke-linejoin:miter;stroke-miterlimit:10;stroke-dasharray:none;stroke-opacity:1"
         d="m 467.863,126.133 33.399,66.793" /><path
         id="path24"
         style="fill:none;stroke:#444444;stroke-width:1;stroke-linecap:butt;stroke-linejoin:miter;stroke-miterlimit:10;stroke-dasharray:none;stroke-opacity:1"
         d="M 467.863,126.133 440.852,62.949" /><path
         id="path26"
         style="fill:none;stroke:#444444;stroke-width:1;stroke-linecap:butt;stroke-linejoin:miter;stroke-miterlimit:10;stroke-dasharray:none;stroke-opacity:1"
         d="m 534.297,297.898 -34.695,52.204" /><path
         id="path28"
         style="fill:none;stroke:#444444;stroke-width:1;stroke-linecap:butt;stroke-linejoin:miter;stroke-miterlimit:10;stroke-dasharray:none;stroke-opacity:1"
         d="M 534.297,297.898 580,274.902" /><path
         id="path30"
         style="fill:none;stroke:#444444;stroke-width:1;stroke-linecap:butt;stroke-linejoin:miter;stroke-miterlimit:10;stroke-dasharray:none;stroke-opacity:1"
         d="M 534.297,297.898 486.289,263.375" /><path
         id="path32"
         style="fill:none;stroke:#444444;stroke-width:1;stroke-linecap:butt;stroke-linejoin:miter;stroke-miterlimit:10;stroke-dasharray:none;stroke-opacity:1"
         d="m 534.297,297.898 13.281,-62.367" /><path
         id="path34"
         style="fill:none;stroke:#444444;stroke-width:1;stroke-linecap:butt;stroke-linejoin:miter;stroke-miterlimit:10;stroke-dasharray:none;stroke-opacity:1"
         d="M 411.754,113.25 389.098,63.398" /><path
         id="path36"
         style="fill:none;stroke:#444444;stroke-width:1;stroke-linecap:butt;stroke-linejoin:miter;stroke-miterlimit:10;stroke-dasharray:none;stroke-opacity:1"
         d="m 444.883,316.051 41.406,-52.676" /><path
         id="path38"
         style="fill:none;stroke:#444444;stroke-width:1;stroke-linecap:butt;stroke-linejoin:miter;stroke-miterlimit:10;stroke-dasharray:none;stroke-opacity:1"
         d="M 444.883,316.051 369.812,292.07" /><path
         id="path40"
         style="fill:none;stroke:#444444;stroke-width:1;stroke-linecap:butt;stroke-linejoin:miter;stroke-miterlimit:10;stroke-dasharray:none;stroke-opacity:1"
         d="m 45.953,185.449 11.68,-43.726" /><path
         id="path42"
         style="fill:none;stroke:#444444;stroke-width:1;stroke-linecap:butt;stroke-linejoin:miter;stroke-miterlimit:10;stroke-dasharray:none;stroke-opacity:1"
         d="m 57.137,432.715 61.656,38.988" /><path
         id="path44"
         style="fill:none;stroke:#444444;stroke-width:1;stroke-linecap:butt;stroke-linejoin:miter;stroke-miterlimit:10;stroke-dasharray:none;stroke-opacity:1"
         d="M 375.957,575.383 332.266,580" /><path
         id="path46"
         style="fill:none;stroke:#444444;stroke-width:1;stroke-linecap:butt;stroke-linejoin:miter;stroke-miterlimit:10;stroke-dasharray:none;stroke-opacity:1"
         d="m 118.793,471.703 47.266,57.871" /><path
         id="path48"
         style="fill:none;stroke:#444444;stroke-width:1;stroke-linecap:butt;stroke-linejoin:miter;stroke-miterlimit:10;stroke-dasharray:none;stroke-opacity:1"
         d="m 118.793,471.703 17.043,-46.504" /><path
         id="path50"
         style="fill:none;stroke:#444444;stroke-width:1;stroke-linecap:butt;stroke-linejoin:miter;stroke-miterlimit:10;stroke-dasharray:none;stroke-opacity:1"
         d="m 118.793,471.703 -1.02,51.945" /><path
         id="path52"
         style="fill:none;stroke:#444444;stroke-width:1;stroke-linecap:butt;stroke-linejoin:miter;stroke-miterlimit:10;stroke-dasharray:none;stroke-opacity:1"
         d="m 118.793,471.703 48.145,17.613" /><path
         id="path54"
         style="fill:none;stroke:#444444;stroke-width:1;stroke-linecap:butt;stroke-linejoin:miter;stroke-miterlimit:10;stroke-dasharray:none;stroke-opacity:1"
         d="m 118.793,471.703 57.437,-32.16" /><path
         id="path56"
         style="fill:none;stroke:#444444;stroke-width:1;stroke-linecap:butt;stroke-linejoin:miter;stroke-miterlimit:10;stroke-dasharray:none;stroke-opacity:1"
         d="m 117.773,523.648 49.165,-34.332" /><path
         id="path58"
         style="fill:none;stroke:#444444;stroke-width:1;stroke-linecap:butt;stroke-linejoin:miter;stroke-miterlimit:10;stroke-dasharray:none;stroke-opacity:1"
         d="m 132.758,63.398 55.351,18.223" /><path
         id="path60"
         style="fill:none;stroke:#444444;stroke-width:1;stroke-linecap:butt;stroke-linejoin:miter;stroke-miterlimit:10;stroke-dasharray:none;stroke-opacity:1"
         d="m 462.621,532.609 7.945,-44.765" /><path
         id="path62"
         style="fill:none;stroke:#444444;stroke-width:1;stroke-linecap:butt;stroke-linejoin:miter;stroke-miterlimit:10;stroke-dasharray:none;stroke-opacity:1"
         d="M 220.438,179.363 274.5,200.812" /><path
         id="path64"
         style="fill:none;stroke:#444444;stroke-width:1;stroke-linecap:butt;stroke-linejoin:miter;stroke-miterlimit:10;stroke-dasharray:none;stroke-opacity:1"
         d="M 499.602,350.102 444.883,316.051" /><path
         id="path66"
         style="fill:none;stroke:#444444;stroke-width:1;stroke-linecap:butt;stroke-linejoin:miter;stroke-miterlimit:10;stroke-dasharray:none;stroke-opacity:1"
         d="m 153.473,377.586 -17.637,47.613" /><path
         id="path68"
         style="fill:none;stroke:#444444;stroke-width:1;stroke-linecap:butt;stroke-linejoin:miter;stroke-miterlimit:10;stroke-dasharray:none;stroke-opacity:1"
         d="m 153.473,377.586 22.757,61.957" /><path
         id="path70"
         style="fill:none;stroke:#444444;stroke-width:1;stroke-linecap:butt;stroke-linejoin:miter;stroke-miterlimit:10;stroke-dasharray:none;stroke-opacity:1"
         d="m 233.391,132.766 8.804,90.625" /><path
         id="path72"
         style="fill:none;stroke:#444444;stroke-width:1;stroke-linecap:butt;stroke-linejoin:miter;stroke-miterlimit:10;stroke-dasharray:none;stroke-opacity:1"
         d="m 233.391,132.766 13.582,-58.11" /><path
         id="path74"
         style="fill:none;stroke:#444444;stroke-width:1;stroke-linecap:butt;stroke-linejoin:miter;stroke-miterlimit:10;stroke-dasharray:none;stroke-opacity:1"
         d="M 233.391,132.766 188.109,81.621" /><path
         id="path76"
         style="fill:none;stroke:#444444;stroke-width:1;stroke-linecap:butt;stroke-linejoin:miter;stroke-miterlimit:10;stroke-dasharray:none;stroke-opacity:1"
         d="m 233.391,132.766 -12.953,46.597" /><path
         id="path78"
         style="fill:none;stroke:#444444;stroke-width:1;stroke-linecap:butt;stroke-linejoin:miter;stroke-miterlimit:10;stroke-dasharray:none;stroke-opacity:1"
         d="M 233.391,132.766 274.5,200.812" /><path
         id="path80"
         style="fill:none;stroke:#444444;stroke-width:1;stroke-linecap:butt;stroke-linejoin:miter;stroke-miterlimit:10;stroke-dasharray:none;stroke-opacity:1"
         d="M 233.391,132.766 219.594,54.988" /><path
         id="path82"
         style="fill:none;stroke:#444444;stroke-width:1;stroke-linecap:butt;stroke-linejoin:miter;stroke-miterlimit:10;stroke-dasharray:none;stroke-opacity:1"
         d="m 170.457,241.785 71.738,-18.394" /><path
         id="path84"
         style="fill:none;stroke:#444444;stroke-width:1;stroke-linecap:butt;stroke-linejoin:miter;stroke-miterlimit:10;stroke-dasharray:none;stroke-opacity:1"
         d="M 29.891,268.535 20,312.469" /><path
         id="path86"
         style="fill:none;stroke:#444444;stroke-width:1;stroke-linecap:butt;stroke-linejoin:miter;stroke-miterlimit:10;stroke-dasharray:none;stroke-opacity:1"
         d="m 242.195,223.391 72.625,26.273" /><path
         id="path88"
         style="fill:none;stroke:#444444;stroke-width:1;stroke-linecap:butt;stroke-linejoin:miter;stroke-miterlimit:10;stroke-dasharray:none;stroke-opacity:1"
         d="m 242.195,223.391 52.715,56.89" /><path
         id="path90"
         style="fill:none;stroke:#444444;stroke-width:1;stroke-linecap:butt;stroke-linejoin:miter;stroke-miterlimit:10;stroke-dasharray:none;stroke-opacity:1"
         d="M 242.195,223.391 220.438,179.363" /><path
         id="path92"
         style="fill:none;stroke:#444444;stroke-width:1;stroke-linecap:butt;stroke-linejoin:miter;stroke-miterlimit:10;stroke-dasharray:none;stroke-opacity:1"
         d="M 242.195,223.391 274.5,200.812" /><path
         id="path94"
         style="fill:none;stroke:#444444;stroke-width:1;stroke-linecap:butt;stroke-linejoin:miter;stroke-miterlimit:10;stroke-dasharray:none;stroke-opacity:1"
         d="m 246.973,74.656 -58.864,6.965" /><path
         id="path96"
         style="fill:none;stroke:#444444;stroke-width:1;stroke-linecap:butt;stroke-linejoin:miter;stroke-miterlimit:10;stroke-dasharray:none;stroke-opacity:1"
         d="M 246.973,74.656 219.594,54.988" /><path
         id="path98"
         style="fill:none;stroke:#444444;stroke-width:1;stroke-linecap:butt;stroke-linejoin:miter;stroke-miterlimit:10;stroke-dasharray:none;stroke-opacity:1"
         d="M 400.102,20 389.098,63.398" /><path
         id="path100"
         style="fill:none;stroke:#444444;stroke-width:1;stroke-linecap:butt;stroke-linejoin:miter;stroke-miterlimit:10;stroke-dasharray:none;stroke-opacity:1"
         d="m 400.102,20 40.75,42.949" /><path
         id="path102"
         style="fill:none;stroke:#444444;stroke-width:1;stroke-linecap:butt;stroke-linejoin:miter;stroke-miterlimit:10;stroke-dasharray:none;stroke-opacity:1"
         d="m 302.641,355.223 28.023,-39.297" /><path
         id="path104"
         style="fill:none;stroke:#444444;stroke-width:1;stroke-linecap:butt;stroke-linejoin:miter;stroke-miterlimit:10;stroke-dasharray:none;stroke-opacity:1"
         d="M 302.641,355.223 294.91,280.281" /><path
         id="path106"
         style="fill:none;stroke:#444444;stroke-width:1;stroke-linecap:butt;stroke-linejoin:miter;stroke-miterlimit:10;stroke-dasharray:none;stroke-opacity:1"
         d="m 166.938,489.316 9.292,-49.773" /><path
         id="path108"
         style="fill:none;stroke:#444444;stroke-width:1;stroke-linecap:butt;stroke-linejoin:miter;stroke-miterlimit:10;stroke-dasharray:none;stroke-opacity:1"
         d="M 330.664,315.926 314.82,249.664" /><path
         id="path110"
         style="fill:none;stroke:#444444;stroke-width:1;stroke-linecap:butt;stroke-linejoin:miter;stroke-miterlimit:10;stroke-dasharray:none;stroke-opacity:1"
         d="M 330.664,315.926 294.91,280.281" /><path
         id="path112"
         style="fill:none;stroke:#444444;stroke-width:1;stroke-linecap:butt;stroke-linejoin:miter;stroke-miterlimit:10;stroke-dasharray:none;stroke-opacity:1"
         d="M 330.664,315.926 369.812,292.07" /><path
         id="path114"
         style="fill:none;stroke:#444444;stroke-width:1;stroke-linecap:butt;stroke-linejoin:miter;stroke-miterlimit:10;stroke-dasharray:none;stroke-opacity:1"
         d="m 389.098,63.398 51.754,-0.449" /><path
         id="path116"
         style="fill:none;stroke:#444444;stroke-width:1;stroke-linecap:butt;stroke-linejoin:miter;stroke-miterlimit:10;stroke-dasharray:none;stroke-opacity:1"
         d="m 213.969,543.023 -47.91,-13.449" /><path
         id="path118"
         style="fill:none;stroke:#444444;stroke-width:1;stroke-linecap:butt;stroke-linejoin:miter;stroke-miterlimit:10;stroke-dasharray:none;stroke-opacity:1"
         d="M 213.969,543.023 166.938,489.316" /><path
         id="path120"
         style="fill:none;stroke:#444444;stroke-width:1;stroke-linecap:butt;stroke-linejoin:miter;stroke-miterlimit:10;stroke-dasharray:none;stroke-opacity:1"
         d="m 135.836,425.199 31.102,64.117" /><path
         id="path122"
         style="fill:none;stroke:#444444;stroke-width:1;stroke-linecap:butt;stroke-linejoin:miter;stroke-miterlimit:10;stroke-dasharray:none;stroke-opacity:1"
         d="m 135.836,425.199 40.394,14.344" /><path
         id="path124"
         style="fill:none;stroke:#444444;stroke-width:1;stroke-linecap:butt;stroke-linejoin:miter;stroke-miterlimit:10;stroke-dasharray:none;stroke-opacity:1"
         d="m 486.289,263.375 14.973,-70.449" /><path
         id="path126"
         style="fill:none;stroke:#444444;stroke-width:1;stroke-linecap:butt;stroke-linejoin:miter;stroke-miterlimit:10;stroke-dasharray:none;stroke-opacity:1"
         d="m 314.82,249.664 -19.91,30.617" /><path
         id="path128"
         style="fill:none;stroke:#444444;stroke-width:1;stroke-linecap:butt;stroke-linejoin:miter;stroke-miterlimit:10;stroke-dasharray:none;stroke-opacity:1"
         d="m 314.82,249.664 54.992,42.406" /><path
         id="path130"
         style="fill:none;stroke:#444444;stroke-width:1;stroke-linecap:butt;stroke-linejoin:miter;stroke-miterlimit:10;stroke-dasharray:none;stroke-opacity:1"
         d="M 314.82,249.664 274.5,200.812" /><path
         id="path132"
         style="fill:none;stroke:#444444;stroke-width:1;stroke-linecap:butt;stroke-linejoin:miter;stroke-miterlimit:10;stroke-dasharray:none;stroke-opacity:1"
         d="m 294.91,280.281 74.902,11.789" /><path
         id="path134"
         style="fill:none;stroke:#444444;stroke-width:1;stroke-linecap:butt;stroke-linejoin:miter;stroke-miterlimit:10;stroke-dasharray:none;stroke-opacity:1"
         d="M 294.91,280.281 274.5,200.812" /><path
         id="path136"
         style="fill:none;stroke:#444444;stroke-width:1;stroke-linecap:butt;stroke-linejoin:miter;stroke-miterlimit:10;stroke-dasharray:none;stroke-opacity:1"
         d="M 188.109,81.621 219.594,54.988" /><path
         id="path138"
         style="fill:none;stroke:#444444;stroke-width:1;stroke-linecap:butt;stroke-linejoin:miter;stroke-miterlimit:10;stroke-dasharray:none;stroke-opacity:1"
         d="m 215.602,495.297 -1.633,47.726" /><path
         id="path140"
         style="fill:none;stroke:#444444;stroke-width:1;stroke-linecap:butt;stroke-linejoin:miter;stroke-miterlimit:10;stroke-dasharray:none;stroke-opacity:1"
         d="m 215.602,495.297 -49.543,34.277" /><path
         id="path142"
         style="fill:none;stroke:#444444;stroke-width:1;stroke-linecap:butt;stroke-linejoin:miter;stroke-miterlimit:10;stroke-dasharray:none;stroke-opacity:1"
         d="m 215.602,495.297 -48.664,-5.981" /><path
         id="path144"
         style="fill:none;stroke:#444444;stroke-width:1;stroke-linecap:butt;stroke-linejoin:miter;stroke-miterlimit:10;stroke-dasharray:none;stroke-opacity:1"
         d="M 215.602,495.297 176.23,439.543" /><path
         id="path146"
         style="fill:none;stroke:#444444;stroke-width:1;stroke-linecap:butt;stroke-linejoin:miter;stroke-miterlimit:10;stroke-dasharray:none;stroke-opacity:1"
         d="m 501.262,192.926 46.316,42.605" /><path
         id="path148"
         style="fill:none;stroke:#444444;stroke-width:1;stroke-linecap:butt;stroke-linejoin:miter;stroke-miterlimit:10;stroke-dasharray:none;stroke-opacity:1"
         d="M 580,274.902 547.578,235.531" /><path
         id="path150"
         style="fill:#fff000;fill-opacity:1;fill-rule:nonzero;stroke:#000000;stroke-width:1;stroke-linecap:butt;stroke-linejoin:miter;stroke-miterlimit:10;stroke-dasharray:none;stroke-opacity:1"
         d="m 477.863,126.133 c 0,-5.524 -4.476,-10 -10,-10 -5.523,0 -10,4.476 -10,10 0,5.523 4.477,10 10,10 5.524,0 10,-4.477 10,-10" /><path
         id="path152"
         style="fill:#fff000;fill-opacity:1;fill-rule:nonzero;stroke:#000000;stroke-width:1;stroke-linecap:butt;stroke-linejoin:miter;stroke-miterlimit:10;stroke-dasharray:none;stroke-opacity:1"
         d="m 544.297,297.898 c 0,-5.523 -4.481,-10 -10,-10 -5.524,0 -10,4.477 -10,10 0,5.524 4.476,10 10,10 5.519,0 10,-4.476 10,-10" /><path
         id="path154"
         style="fill:#00ffd0;fill-opacity:1;fill-rule:nonzero;stroke:#000000;stroke-width:1;stroke-linecap:butt;stroke-linejoin:miter;stroke-miterlimit:10;stroke-dasharray:none;stroke-opacity:1"
         d="m 421.754,113.25 c 0,-5.52 -4.477,-10 -10,-10 -5.52,0 -10,4.48 -10,10 0,5.523 4.48,10 10,10 5.523,0 10,-4.477 10,-10" /><path
         id="path156"
         style="fill:#00ff36;fill-opacity:1;fill-rule:nonzero;stroke:#000000;stroke-width:1;stroke-linecap:butt;stroke-linejoin:miter;stroke-miterlimit:10;stroke-dasharray:none;stroke-opacity:1"
         d="m 67.137,432.715 c 0,-5.524 -4.477,-10 -10,-10 -5.524,0 -10,4.476 -10,10 0,5.519 4.476,10 10,10 5.523,0 10,-4.481 10,-10" /><path
         id="path158"
         style="fill:#b0ff00;fill-opacity:1;fill-rule:nonzero;stroke:#000000;stroke-width:1;stroke-linecap:butt;stroke-linejoin:miter;stroke-miterlimit:10;stroke-dasharray:none;stroke-opacity:1"
         d="m 385.957,575.383 c 0,-5.52 -4.477,-10 -10,-10 -5.523,0 -10,4.48 -10,10 0,5.523 4.477,10 10,10 5.523,0 10,-4.477 10,-10" /><path
         id="path160"
         style="fill:#00e4ff;fill-opacity:1;fill-rule:nonzero;stroke:#000000;stroke-width:1;stroke-linecap:butt;stroke-linejoin:miter;stroke-miterlimit:10;stroke-dasharray:none;stroke-opacity:1"
         d="m 142.758,63.398 c 0,-5.523 -4.477,-10 -10,-10 -5.524,0 -10,4.477 -10,10 0,5.524 4.476,10 10,10 5.523,0 10,-4.476 10,-10" /><path
         id="path162"
         style="fill:#fdff00;fill-opacity:1;fill-rule:nonzero;stroke:#000000;stroke-width:1;stroke-linecap:butt;stroke-linejoin:miter;stroke-miterlimit:10;stroke-dasharray:none;stroke-opacity:1"
         d="m 472.621,532.609 c 0,-5.519 -4.476,-10 -10,-10 -5.523,0 -10,4.481 -10,10 0,5.524 4.477,10 10,10 5.524,0 10,-4.476 10,-10" /><path
         id="path164"
         style="fill:#17ff00;fill-opacity:1;fill-rule:nonzero;stroke:#000000;stroke-width:1;stroke-linecap:butt;stroke-linejoin:miter;stroke-miterlimit:10;stroke-dasharray:none;stroke-opacity:1"
         d="m 509.602,350.102 c 0,-5.524 -4.477,-10 -10,-10 -5.52,0 -10,4.476 -10,10 0,5.519 4.48,10 10,10 5.523,0 10,-4.481 10,-10" /><path
         id="path166"
         style="fill:#ffdc00;fill-opacity:1;fill-rule:nonzero;stroke:#000000;stroke-width:1;stroke-linecap:butt;stroke-linejoin:miter;stroke-miterlimit:10;stroke-dasharray:none;stroke-opacity:1"
         d="m 163.473,377.586 c 0,-5.524 -4.477,-10 -10,-10 -5.52,0 -10,4.476 -10,10 0,5.523 4.48,10 10,10 5.523,0 10,-4.477 10,-10" /><path
         id="path168"
         style="fill:#ffc800;fill-opacity:1;fill-rule:nonzero;stroke:#000000;stroke-width:1;stroke-linecap:butt;stroke-linejoin:miter;stroke-miterlimit:10;stroke-dasharray:none;stroke-opacity:1"
         d="m 243.391,132.766 c 0,-5.524 -4.477,-10 -10,-10 -5.52,0 -10,4.476 -10,10 0,5.523 4.48,10 10,10 5.523,0 10,-4.477 10,-10" /><path
         id="path170"
         style="fill:#ffc800;fill-opacity:1;fill-rule:nonzero;stroke:#000000;stroke-width:1;stroke-linecap:butt;stroke-linejoin:miter;stroke-miterlimit:10;stroke-dasharray:none;stroke-opacity:1"
         d="m 180.457,241.785 c 0,-5.523 -4.48,-10 -10,-10 -5.523,0 -10,4.477 -10,10 0,5.524 4.477,10 10,10 5.52,0 10,-4.476 10,-10" /><path
         id="path172"
         style="fill:#00c4ff;fill-opacity:1;fill-rule:nonzero;stroke:#000000;stroke-width:1;stroke-linecap:butt;stroke-linejoin:miter;stroke-miterlimit:10;stroke-dasharray:none;stroke-opacity:1"
         d="m 39.891,268.535 c 0,-5.523 -4.481,-10 -10,-10 -5.524,0 -10,4.477 -10,10 0,5.524 4.476,10 10,10 5.519,0 10,-4.476 10,-10" /><path
         id="path174"
         style="fill:#00ffd0;fill-opacity:1;fill-rule:nonzero;stroke:#000000;stroke-width:1;stroke-linecap:butt;stroke-linejoin:miter;stroke-miterlimit:10;stroke-dasharray:none;stroke-opacity:1"
         d="m 252.195,223.391 c 0,-5.524 -4.48,-10 -10,-10 -5.523,0 -10,4.476 -10,10 0,5.519 4.477,10 10,10 5.52,0 10,-4.481 10,-10" /><path
         id="path176"
         style="fill:#00ff83;fill-opacity:1;fill-rule:nonzero;stroke:#000000;stroke-width:1;stroke-linecap:butt;stroke-linejoin:miter;stroke-miterlimit:10;stroke-dasharray:none;stroke-opacity:1"
         d="m 342.266,580 c 0,-5.523 -4.477,-10 -10,-10 -5.524,0 -10,4.477 -10,10 0,5.523 4.476,10 10,10 5.523,0 10,-4.477 10,-10" /><path
         id="path178"
         style="fill:#ffdc00;fill-opacity:1;fill-rule:nonzero;stroke:#000000;stroke-width:1;stroke-linecap:butt;stroke-linejoin:miter;stroke-miterlimit:10;stroke-dasharray:none;stroke-opacity:1"
         d="m 256.973,74.656 c 0,-5.523 -4.477,-10 -10,-10 -5.52,0 -10,4.477 -10,10 0,5.52 4.48,10 10,10 5.523,0 10,-4.48 10,-10" /><path
         id="path180"
         style="fill:#fdff00;fill-opacity:1;fill-rule:nonzero;stroke:#000000;stroke-width:1;stroke-linecap:butt;stroke-linejoin:miter;stroke-miterlimit:10;stroke-dasharray:none;stroke-opacity:1"
         d="m 410.102,20 c 0,-5.523 -4.477,-10 -10,-10 -5.524,0 -10,4.477 -10,10 0,5.523 4.476,10 10,10 5.523,0 10,-4.477 10,-10" /><path
         id="path182"
         style="fill:#65ff00;fill-opacity:1;fill-rule:nonzero;stroke:#000000;stroke-width:1;stroke-linecap:butt;stroke-linejoin:miter;stroke-miterlimit:10;stroke-dasharray:none;stroke-opacity:1"
         d="m 312.641,355.223 c 0,-5.524 -4.477,-10 -10,-10 -5.524,0 -10,4.476 -10,10 0,5.523 4.476,10 10,10 5.523,0 10,-4.477 10,-10" /><path
         id="path184"
         style="fill:#0084ff;fill-opacity:1;fill-rule:nonzero;stroke:#000000;stroke-width:1;stroke-linecap:butt;stroke-linejoin:miter;stroke-miterlimit:10;stroke-dasharray:none;stroke-opacity:1"
         d="m 340.664,315.926 c 0,-5.524 -4.476,-10 -10,-10 -5.523,0 -10,4.476 -10,10 0,5.523 4.477,10 10,10 5.524,0 10,-4.477 10,-10" /><path
         id="path186"
         style="fill:#b0ff00;fill-opacity:1;fill-rule:nonzero;stroke:#000000;stroke-width:1;stroke-linecap:butt;stroke-linejoin:miter;stroke-miterlimit:10;stroke-dasharray:none;stroke-opacity:1"
         d="m 399.098,63.398 c 0,-5.523 -4.477,-10 -10,-10 -5.524,0 -10,4.477 -10,10 0,5.524 4.476,10 10,10 5.523,0 10,-4.476 10,-10" /><path
         id="path188"
         style="fill:#ff5000;fill-opacity:1;fill-rule:nonzero;stroke:#000000;stroke-width:1;stroke-linecap:butt;stroke-linejoin:miter;stroke-miterlimit:10;stroke-dasharray:none;stroke-opacity:1"
         d="m 389.387,484.016 c 0,-5.524 -4.477,-10 -10,-10 -5.524,0 -10,4.476 -10,10 0,5.523 4.476,10 10,10 5.523,0 10,-4.477 10,-10" /><path
         id="path190"
         style="fill:#00e4ff;fill-opacity:1;fill-rule:nonzero;stroke:#000000;stroke-width:1;stroke-linecap:butt;stroke-linejoin:miter;stroke-miterlimit:10;stroke-dasharray:none;stroke-opacity:1"
         d="m 324.82,249.664 c 0,-5.519 -4.476,-10 -10,-10 -5.519,0 -10,4.481 -10,10 0,5.524 4.481,10 10,10 5.524,0 10,-4.476 10,-10" /><path
         id="path192"
         style="fill:#00ff83;fill-opacity:1;fill-rule:nonzero;stroke:#000000;stroke-width:1;stroke-linecap:butt;stroke-linejoin:miter;stroke-miterlimit:10;stroke-dasharray:none;stroke-opacity:1"
         d="m 304.91,280.281 c 0,-5.523 -4.476,-10 -10,-10 -5.523,0 -10,4.477 -10,10 0,5.524 4.477,10 10,10 5.524,0 10,-4.476 10,-10" /><path
         id="path194"
         style="fill:#00e4ff;fill-opacity:1;fill-rule:nonzero;stroke:#000000;stroke-width:1;stroke-linecap:butt;stroke-linejoin:miter;stroke-miterlimit:10;stroke-dasharray:none;stroke-opacity:1"
         d="m 198.109,81.621 c 0,-5.519 -4.48,-10 -10,-10 -5.523,0 -10,4.481 -10,10 0,5.524 4.477,10 10,10 5.52,0 10,-4.476 10,-10" /><path
         id="path196"
         style="fill:#65ff00;fill-opacity:1;fill-rule:nonzero;stroke:#000000;stroke-width:1;stroke-linecap:butt;stroke-linejoin:miter;stroke-miterlimit:10;stroke-dasharray:none;stroke-opacity:1"
         d="m 225.602,495.297 c 0,-5.524 -4.481,-10 -10,-10 -5.524,0 -10,4.476 -10,10 0,5.523 4.476,10 10,10 5.519,0 10,-4.477 10,-10" /><path
         id="path198"
         style="fill:#17ff00;fill-opacity:1;fill-rule:nonzero;stroke:#000000;stroke-width:1;stroke-linecap:butt;stroke-linejoin:miter;stroke-miterlimit:10;stroke-dasharray:none;stroke-opacity:1"
         d="m 590,274.902 c 0,-5.523 -4.477,-10 -10,-10 -5.523,0 -10,4.477 -10,10 0,5.524 4.477,10 10,10 5.523,0 10,-4.476 10,-10" /><path
         id="path200"
         style="fill:#b0ff00;fill-opacity:1;fill-rule:nonzero;stroke:#000000;stroke-width:1;stroke-linecap:butt;stroke-linejoin:miter;stroke-miterlimit:10;stroke-dasharray:none;stroke-opacity:1"
         d="m 223.969,543.023 c 0,-5.523 -4.481,-10 -10,-10 -5.524,0 -10,4.477 -10,10 0,5.524 4.476,10 10,10 5.519,0 10,-4.476 10,-10" /><path
         id="path202"
         style="fill:#00ff83;fill-opacity:1;fill-rule:nonzero;stroke:#000000;stroke-width:1;stroke-linecap:butt;stroke-linejoin:miter;stroke-miterlimit:10;stroke-dasharray:none;stroke-opacity:1"
         d="m 128.793,471.703 c 0,-5.519 -4.477,-10 -10,-10 -5.523,0 -10,4.481 -10,10 0,5.524 4.477,10 10,10 5.523,0 10,-4.476 10,-10" /><path
         id="path204"
         style="fill:#00ff83;fill-opacity:1;fill-rule:nonzero;stroke:#000000;stroke-width:1;stroke-linecap:butt;stroke-linejoin:miter;stroke-miterlimit:10;stroke-dasharray:none;stroke-opacity:1"
         d="m 454.883,316.051 c 0,-5.524 -4.477,-10 -10,-10 -5.524,0 -10,4.476 -10,10 0,5.523 4.476,10 10,10 5.523,0 10,-4.477 10,-10" /><path
         id="path206"
         style="fill:#ffa000;fill-opacity:1;fill-rule:nonzero;stroke:#000000;stroke-width:1;stroke-linecap:butt;stroke-linejoin:miter;stroke-miterlimit:10;stroke-dasharray:none;stroke-opacity:1"
         d="m 55.953,185.449 c 0,-5.519 -4.476,-10 -10,-10 -5.523,0 -10,4.481 -10,10 0,5.524 4.477,10 10,10 5.524,0 10,-4.476 10,-10" /><path
         id="path208"
         style="fill:#0044ff;fill-opacity:1;fill-rule:nonzero;stroke:#000000;stroke-width:1;stroke-linecap:butt;stroke-linejoin:miter;stroke-miterlimit:10;stroke-dasharray:none;stroke-opacity:1"
         d="m 176.059,529.574 c 0,-5.523 -4.477,-10 -10,-10 -5.524,0 -10,4.477 -10,10 0,5.524 4.476,10 10,10 5.523,0 10,-4.476 10,-10" /><path
         id="path210"
         style="fill:#ffb400;fill-opacity:1;fill-rule:nonzero;stroke:#000000;stroke-width:1;stroke-linecap:butt;stroke-linejoin:miter;stroke-miterlimit:10;stroke-dasharray:none;stroke-opacity:1"
         d="m 145.836,425.199 c 0,-5.523 -4.477,-10 -10,-10 -5.524,0 -10,4.477 -10,10 0,5.524 4.476,10 10,10 5.523,0 10,-4.476 10,-10" /><path
         id="path212"
         style="fill:#00c4ff;fill-opacity:1;fill-rule:nonzero;stroke:#000000;stroke-width:1;stroke-linecap:butt;stroke-linejoin:miter;stroke-miterlimit:10;stroke-dasharray:none;stroke-opacity:1"
         d="m 496.289,263.375 c 0,-5.523 -4.477,-10 -10,-10 -5.523,0 -10,4.477 -10,10 0,5.523 4.477,10 10,10 5.523,0 10,-4.477 10,-10" /><path
         id="path214"
         style="fill:#00a4ff;fill-opacity:1;fill-rule:nonzero;stroke:#000000;stroke-width:1;stroke-linecap:butt;stroke-linejoin:miter;stroke-miterlimit:10;stroke-dasharray:none;stroke-opacity:1"
         d="m 127.773,523.648 c 0,-5.523 -4.476,-10 -10,-10 -5.519,0 -10,4.477 -10,10 0,5.524 4.481,10 10,10 5.524,0 10,-4.476 10,-10" /><path
         id="path216"
         style="fill:#00ff83;fill-opacity:1;fill-rule:nonzero;stroke:#000000;stroke-width:1;stroke-linecap:butt;stroke-linejoin:miter;stroke-miterlimit:10;stroke-dasharray:none;stroke-opacity:1"
         d="m 230.438,179.363 c 0,-5.523 -4.477,-10 -10,-10 -5.52,0 -10,4.477 -10,10 0,5.524 4.48,10 10,10 5.523,0 10,-4.476 10,-10" /><path
         id="path218"
         style="fill:#fdff00;fill-opacity:1;fill-rule:nonzero;stroke:#000000;stroke-width:1;stroke-linecap:butt;stroke-linejoin:miter;stroke-miterlimit:10;stroke-dasharray:none;stroke-opacity:1"
         d="m 30,312.469 c 0,-5.524 -4.477,-10 -10,-10 -5.523,0 -10,4.476 -10,10 0,5.523 4.477,10 10,10 5.523,0 10,-4.477 10,-10" /><path
         id="path220"
         style="fill:#ffc800;fill-opacity:1;fill-rule:nonzero;stroke:#000000;stroke-width:1;stroke-linecap:butt;stroke-linejoin:miter;stroke-miterlimit:10;stroke-dasharray:none;stroke-opacity:1"
         d="m 550.207,447.461 c 0,-5.52 -4.477,-10 -10,-10 -5.523,0 -10,4.48 -10,10 0,5.523 4.477,10 10,10 5.523,0 10,-4.477 10,-10" /><path
         id="path222"
         style="fill:#00c4ff;fill-opacity:1;fill-rule:nonzero;stroke:#000000;stroke-width:1;stroke-linecap:butt;stroke-linejoin:miter;stroke-miterlimit:10;stroke-dasharray:none;stroke-opacity:1"
         d="m 511.262,192.926 c 0,-5.52 -4.477,-10 -10,-10 -5.524,0 -10,4.48 -10,10 0,5.523 4.476,10 10,10 5.523,0 10,-4.477 10,-10" /><path
         id="path224"
         style="fill:#ffdc00;fill-opacity:1;fill-rule:nonzero;stroke:#000000;stroke-width:1;stroke-linecap:butt;stroke-linejoin:miter;stroke-miterlimit:10;stroke-dasharray:none;stroke-opacity:1"
         d="m 480.566,487.844 c 0,-5.524 -4.476,-10 -10,-10 -5.523,0 -10,4.476 -10,10 0,5.523 4.477,10 10,10 5.524,0 10,-4.477 10,-10" /><path
         id="path226"
         style="fill:#fff000;fill-opacity:1;fill-rule:nonzero;stroke:#000000;stroke-width:1;stroke-linecap:butt;stroke-linejoin:miter;stroke-miterlimit:10;stroke-dasharray:none;stroke-opacity:1"
         d="m 379.812,292.07 c 0,-5.519 -4.476,-10 -10,-10 -5.523,0 -10,4.481 -10,10 0,5.524 4.477,10 10,10 5.524,0 10,-4.476 10,-10" /><path
         id="path228"
         style="fill:#b0ff00;fill-opacity:1;fill-rule:nonzero;stroke:#000000;stroke-width:1;stroke-linecap:butt;stroke-linejoin:miter;stroke-miterlimit:10;stroke-dasharray:none;stroke-opacity:1"
         d="m 450.852,62.949 c 0,-5.523 -4.477,-10 -10,-10 -5.524,0 -10,4.477 -10,10 0,5.524 4.476,10 10,10 5.523,0 10,-4.476 10,-10" /><path
         id="path230"
         style="fill:#ffc800;fill-opacity:1;fill-rule:nonzero;stroke:#000000;stroke-width:1;stroke-linecap:butt;stroke-linejoin:miter;stroke-miterlimit:10;stroke-dasharray:none;stroke-opacity:1"
         d="m 67.633,141.723 c 0,-5.524 -4.481,-10 -10,-10 -5.524,0 -10,4.476 -10,10 0,5.523 4.476,10 10,10 5.519,0 10,-4.477 10,-10" /><path
         id="path232"
         style="fill:#17ff00;fill-opacity:1;fill-rule:nonzero;stroke:#000000;stroke-width:1;stroke-linecap:butt;stroke-linejoin:miter;stroke-miterlimit:10;stroke-dasharray:none;stroke-opacity:1"
         d="m 176.938,489.316 c 0,-5.519 -4.477,-10 -10,-10 -5.524,0 -10,4.481 -10,10 0,5.524 4.476,10 10,10 5.523,0 10,-4.476 10,-10" /><path
         id="path234"
         style="fill:#17ff00;fill-opacity:1;fill-rule:nonzero;stroke:#000000;stroke-width:1;stroke-linecap:butt;stroke-linejoin:miter;stroke-miterlimit:10;stroke-dasharray:none;stroke-opacity:1"
         d="m 557.578,235.531 c 0,-5.519 -4.476,-10 -10,-10 -5.523,0 -10,4.481 -10,10 0,5.524 4.477,10 10,10 5.524,0 10,-4.476 10,-10" /><path
         id="path236"
         style="fill:#00ff36;fill-opacity:1;fill-rule:nonzero;stroke:#000000;stroke-width:1;stroke-linecap:butt;stroke-linejoin:miter;stroke-miterlimit:10;stroke-dasharray:none;stroke-opacity:1"
         d="m 284.5,200.812 c 0,-5.523 -4.477,-10 -10,-10 -5.523,0 -10,4.477 -10,10 0,5.52 4.477,10 10,10 5.523,0 10,-4.48 10,-10" /><path
         id="path238"
         style="fill:#ffa000;fill-opacity:1;fill-rule:nonzero;stroke:#000000;stroke-width:1;stroke-linecap:butt;stroke-linejoin:miter;stroke-miterlimit:10;stroke-dasharray:none;stroke-opacity:1"
         d="m 229.594,54.988 c 0,-5.523 -4.477,-10 -10,-10 -5.52,0 -10,4.477 -10,10 0,5.524 4.48,10 10,10 5.523,0 10,-4.476 10,-10" /><path
         id="path240"
         style="fill:#ffdc00;fill-opacity:1;fill-rule:nonzero;stroke:#000000;stroke-width:1;stroke-linecap:butt;stroke-linejoin:miter;stroke-miterlimit:10;stroke-dasharray:none;stroke-opacity:1"
         d="m 186.23,439.543 c 0,-5.523 -4.476,-10 -10,-10 -5.523,0 -10,4.477 -10,10 0,5.523 4.477,10 10,10 5.524,0 10,-4.477 10,-10" /></g></g></svg>